<?xml version="1.0" standalone="no"?>
<!DOCTYPE svg PUBLIC "-//W3C//DTD SVG 1.1//EN" "http://www.w3.org/Graphics/SVG/1.1/DTD/svg11.dtd" >
<svg xmlns="http://www.w3.org/2000/svg" width="100%" height="100%">
<metadata>
Created by FontXChange 20100429 at Thu Dec  8 20:45:17 2011
 By Rune Madsen
Copyright (c)2004 Laurenz Brunner - www.lineto.com. All rights reserved.
</metadata>
<defs>
<font id="Akkurat-Bold" horiz-adv-x="570" >
  <font-face 
    font-family="Akkurat"
    font-weight="700"
    font-stretch="normal"
    units-per-em="1000"
    panose-1="2 0 8 3 0 0 0 0 0 0"
    ascent="800"
    descent="-200"
    x-height="520"
    cap-height="709"
    bbox="-30 -293 1147 983"
    underline-thickness="45"
    underline-position="-115"
    stemh=" 109 "
    stemv=" 127 "
    unicode-range="U+0001-20AC"
  />
    <missing-glyph />
    <glyph glyph-name="Ecircumflex" unicode="&#xca;" horiz-adv-x="588" 
d="M88 0v698h412v-698h-412zM163 74h262v549h-262v-549z" />
    <glyph glyph-name="space" unicode=" " horiz-adv-x="209" 
 />
    <glyph glyph-name="uni0001" horiz-adv-x="684" 
d="M641 355c0 -98 -10 -204 -83 -279c-47 -49 -118 -76 -199 -76h-276v326h-63v84h63v299h276c81 0 152 -27 199 -76c73 -75 83 -180 83 -278zM510 355c0 65 -1 148 -51 198c-24 24 -59 40 -100 40h-147v-183h131v-84h-131v-210h147c41 0 76 16 100 40c50 50 51 134 51 199z
" />
    <glyph glyph-name="uni0002" horiz-adv-x="562" 
d="M520 259c0 -76 -18 -141 -57 -190c-36 -44 -103 -82 -182 -82s-146 38 -182 82c-39 49 -57 114 -57 190s19 144 58 193c36 44 102 81 181 81h6l-30 50h-110v67h71l-41 72h125l42 -72h96v-67h-56l91 -149c31 -51 45 -112 45 -175zM393 259c0 49 -4 100 -34 133
c-17 18 -44 33 -78 33s-61 -15 -78 -33c-30 -33 -34 -84 -34 -133s4 -99 34 -132c17 -18 44 -33 78 -33s61 15 78 33c30 33 34 83 34 132z" />
    <glyph glyph-name="uni0003" horiz-adv-x="566" 
d="M557 0h-458v274l-53 -33l-43 69l96 60v339h129v-258l109 69l44 -70l-153 -95v-233h329v-122z" />
    <glyph glyph-name="uni0004" horiz-adv-x="389" 
d="M373 464l-109 -69v-240c0 -30 7 -50 50 -50c11 0 14 1 21 1v-105c-25 -5 -30 -7 -55 -7c-85 0 -142 41 -142 140v181l-45 -28l-43 69l88 56v311h126v-231l65 41z" />
    <glyph glyph-name="uni0005" horiz-adv-x="632" 
d="M599 211c0 -66 -24 -113 -59 -148c-54 -54 -137 -76 -224 -76c-75 0 -154 20 -212 73c-42 38 -74 98 -74 165h132c0 -35 16 -66 37 -87c30 -30 78 -38 119 -38c49 0 96 10 123 38c16 17 28 34 28 68c0 52 -40 76 -84 84c-48 9 -110 11 -157 19c-98 16 -180 80 -180 198
c0 56 25 103 62 140c47 46 125 75 208 75c76 0 150 -24 198 -69c42 -40 71 -92 72 -151h-132c-1 25 -14 52 -31 70c-23 24 -70 38 -108 38c-40 0 -86 -9 -115 -39c-15 -16 -24 -34 -24 -60c0 -46 30 -70 72 -77c45 -7 108 -12 154 -18c106 -15 195 -84 195 -205zM282 772
l-140 148l65 59l107 -118l105 115l62 -56l-136 -148h-63z" />
    <glyph glyph-name="uni0006" horiz-adv-x="521" 
d="M482 161c0 -50 -18 -87 -45 -114c-42 -42 -107 -60 -178 -60c-66 0 -125 19 -168 60c-30 29 -55 72 -55 121h117c0 -23 12 -48 28 -61c20 -16 43 -23 79 -23c42 0 106 9 106 66c0 30 -20 50 -52 55c-46 7 -98 10 -144 20c-71 15 -119 73 -119 139c0 53 22 90 53 117
c38 33 93 52 158 52c62 0 125 -20 163 -61c28 -30 46 -69 46 -107h-119c0 20 -9 36 -21 49c-15 15 -42 24 -68 24c-18 0 -35 0 -54 -8c-22 -9 -40 -28 -40 -55c0 -37 32 -48 60 -52c47 -6 60 -7 111 -15c82 -13 142 -65 142 -147zM238 572l-126 134l59 53l96 -106l94 103
l56 -50l-122 -134h-57z" />
    <glyph glyph-name="uni0007" horiz-adv-x="624" 
d="M624 709l-248 -437v-272h-130v272l-246 437h140l175 -306l175 306h134zM433 876l-200 -112l-40 65l184 138z" />
    <glyph glyph-name="uni0008" horiz-adv-x="530" 
d="M530 520l-229 -609c-26 -68 -69 -130 -160 -130c-41 0 -69 6 -96 13v104c33 -6 42 -9 70 -9c23 0 47 8 60 39l30 73l-205 519h137l136 -376l130 376h127zM413 675l-200 -112l-40 65l184 138z" />
    <glyph glyph-name="uni000B" horiz-adv-x="594" 
d="M581 364c0 -143 -83 -232 -245 -232h-125v-132h-128v709h128v-119h125c163 0 245 -90 245 -226zM451 363c0 68 -34 114 -120 114h-120v-233h120c88 0 120 43 120 119z" />
    <glyph glyph-name="uni000C" horiz-adv-x="592" 
d="M550 260c0 -82 -23 -162 -74 -215c-33 -34 -77 -57 -137 -57c-52 0 -111 19 -137 60v-247h-124v459v462h124v-249c26 41 85 60 137 60c60 0 104 -23 137 -57c51 -53 74 -134 74 -216zM424 260c0 48 -8 100 -35 134c-17 21 -41 36 -78 36c-96 0 -115 -92 -115 -170
s19 -169 115 -169c37 0 61 15 78 36c27 34 35 85 35 133z" />
    <glyph glyph-name="uni000D" unicode="&#xd;" horiz-adv-x="708" 
 />
    <glyph glyph-name="uni000E" horiz-adv-x="615" 
d="M584 0h-555v127l391 465h-385v117h544v-127l-388 -465h393v-117zM258 765l-140 148l65 59l107 -118l105 115l62 -56l-136 -148h-63z" />
    <glyph glyph-name="uni000F" horiz-adv-x="507" 
d="M468 0h-424v110l275 307h-273v103h420v-113l-272 -304h274v-103zM224 572l-126 134l59 53l96 -106l94 103l56 -50l-122 -134h-57z" />
    <glyph glyph-name="uni0015" horiz-adv-x="916" 
d="M814 0h-288v73l153 131c16 14 30 24 30 49c0 24 -18 41 -43 41c-37 0 -50 -24 -52 -55h-95c7 89 59 136 148 136c74 0 139 -44 139 -123c0 -50 -33 -83 -68 -112l-64 -53h140v-87zM703 670l-507 -690l-74 56l505 687zM257 344h-93v256l-95 -67v103l105 73h83v-365z" />
    <glyph glyph-name="uni0016" horiz-adv-x="883" 
d="M828 71h-48v-71h-90v71h-179v95l116 208h96l-123 -222h90v82h90v-82h48v-81zM718 670l-507 -690l-74 56l505 687zM262 344h-93v256l-95 -67v103l105 73h83v-365z" />
    <glyph glyph-name="uni0017" horiz-adv-x="312" 
d="M227 344h-93v256l-95 -67v103l105 73h83v-365z" />
    <glyph glyph-name="uni0018" horiz-adv-x="920" 
d="M865 71h-48v-71h-90v71h-179v95l116 208h96l-123 -222h90v82h90v-82h48v-81zM769 670l-507 -690l-74 56l505 687zM363 450c0 -27 -9 -48 -21 -64c-28 -38 -80 -51 -133 -51c-45 0 -87 16 -114 44c-20 20 -31 46 -34 81h88c3 -34 31 -48 62 -48c26 0 60 9 60 42
c0 28 -20 39 -53 39h-27v73h27c25 0 45 8 45 36s-27 39 -51 39c-34 0 -57 -15 -61 -50h-87c3 39 17 68 39 88c27 24 65 37 109 37c49 0 97 -17 124 -52c12 -16 20 -31 20 -57c0 -33 -21 -65 -52 -75c35 -11 59 -46 59 -82z" />
    <glyph glyph-name="uni0019" horiz-adv-x="412" 
d="M357 450c0 -27 -9 -48 -21 -64c-28 -38 -80 -51 -133 -51c-45 0 -87 16 -114 44c-20 20 -31 46 -34 81h88c3 -34 31 -48 62 -48c26 0 60 9 60 42c0 28 -20 39 -53 39h-27v73h27c25 0 45 8 45 36s-27 39 -51 39c-34 0 -57 -15 -61 -50h-87c3 39 17 68 39 88
c27 24 65 37 109 37c49 0 97 -17 124 -52c12 -16 20 -31 20 -57c0 -33 -21 -65 -52 -75c35 -11 59 -46 59 -82z" />
    <glyph glyph-name="uni001A" horiz-adv-x="405" 
d="M350 341h-288v73l153 131c16 14 30 24 30 49c0 24 -18 41 -43 41c-37 0 -50 -24 -52 -55h-95c7 89 59 136 148 136c74 0 139 -44 139 -123c0 -50 -33 -83 -68 -112l-64 -53h140v-87z" />
    <glyph glyph-name="uni001B" horiz-adv-x="289" 
d="M206 440h-123v319h123v-319zM206 -50h-123v319h123v-319z" />
    <glyph glyph-name="uni001C" horiz-adv-x="659" 
d="M599 252h-539v112h539v-112z" />
    <glyph glyph-name="uni001D" horiz-adv-x="687" 
d="M551 17l-208 208l-208 -208l-72 72l208 208l-208 208l72 72l208 -207l208 207l73 -72l-208 -208l208 -208z" />
    <glyph glyph-name="exclam" unicode="!" horiz-adv-x="332" 
d="M249 487l-28 -275h-75l-28 275v222h131v-222zM250 0h-132v133h132v-133z" />
    <glyph glyph-name="quotedbl" unicode="&#x22;" horiz-adv-x="525" 
d="M443 563l-25 -171h-83l-25 171v147h133v-147zM215 563l-25 -171h-83l-25 171v147h133v-147z" />
    <glyph glyph-name="numbersign" unicode="#" horiz-adv-x="758" 
d="M700 413h-136l-17 -131h121v-98h-136l-26 -184h-105l26 184h-138l-26 -184h-105l26 184h-121v98h136l18 131h-122v99h136l27 183h104l-26 -183h138l27 183h104l-26 -183h121v-99zM460 413h-138l-18 -131h138z" />
    <glyph glyph-name="dollar" unicode="$" 
d="M553 217c0 -63 -24 -106 -57 -140c-41 -42 -98 -66 -163 -73v-91h-73v90c-63 5 -121 26 -170 71c-40 36 -70 91 -71 154h123c1 -34 16 -64 37 -84c23 -22 51 -32 81 -35v198c-16 2 -33 4 -49 7c-108 17 -174 86 -174 188c0 53 25 97 61 132c39 39 95 66 162 72v93h73v-95
c56 -7 106 -28 143 -62c40 -37 67 -88 69 -143h-123c-1 24 -15 51 -31 68c-14 15 -35 25 -58 31v-183c11 -2 23 -3 34 -5c102 -16 186 -80 186 -193zM260 425v176c-27 -4 -54 -14 -74 -33c-16 -15 -27 -37 -27 -63c0 -46 29 -68 71 -75c10 -2 20 -4 30 -5zM432 212
c0 51 -39 73 -82 81l-17 3v-186c29 5 53 15 71 33c16 16 28 36 28 69z" />
    <glyph glyph-name="percent" unicode="%" horiz-adv-x="904" 
d="M854 182c0 -44 -7 -85 -31 -120c-31 -45 -76 -72 -141 -72s-110 27 -141 72c-24 35 -31 76 -31 120s7 85 31 120c31 45 76 72 141 72s110 -27 141 -72c24 -35 31 -76 31 -120zM743 670l-507 -690l-74 56l505 687zM389 527c0 -44 -7 -85 -31 -120
c-31 -45 -76 -72 -141 -72s-110 27 -141 72c-24 35 -31 76 -31 120s7 85 31 120c31 45 76 72 141 72s110 -27 141 -72c24 -35 31 -76 31 -120zM755 182c0 54 -11 106 -73 106s-73 -52 -73 -106s11 -106 73 -106s73 52 73 106zM290 527c0 54 -11 106 -73 106
s-73 -52 -73 -106s11 -106 73 -106s73 52 73 106z" />
    <glyph glyph-name="ampersand" unicode="&#x26;" horiz-adv-x="742" 
d="M704 -1h-152l-50 56c-57 -50 -128 -74 -201 -74c-126 0 -235 82 -235 215c0 88 51 149 126 195c-45 49 -76 88 -76 154c0 112 87 179 194 179c103 0 196 -64 196 -175c0 -92 -56 -145 -134 -190l123 -134c12 22 16 54 18 87c2 32 2 65 2 87h183v-99h-82
c-3 -55 -13 -112 -43 -159zM389 544c0 49 -34 77 -79 77c-41 0 -79 -25 -79 -74c0 -46 38 -79 67 -109c44 24 91 47 91 106zM427 134l-162 179c-47 -28 -84 -52 -84 -112c0 -73 60 -111 127 -111c42 0 88 10 119 44z" />
    <glyph glyph-name="quotesingle" unicode="'" horiz-adv-x="277" 
d="M205 563l-25 -171h-83l-25 171v147h133v-147z" />
    <glyph glyph-name="parenleft" unicode="(" horiz-adv-x="328" 
d="M318 -115l-71 -53c-120 138 -182 294 -182 485s62 347 182 485l71 -53c-102 -137 -149 -249 -149 -432s47 -295 149 -432z" />
    <glyph glyph-name="parenright" unicode=")" horiz-adv-x="328" 
d="M263 317c0 -191 -62 -347 -182 -485l-71 53c102 137 149 249 149 432s-47 295 -149 432l71 53c120 -138 182 -294 182 -485z" />
    <glyph glyph-name="asterisk" unicode="*" horiz-adv-x="525" 
d="M485 506l-151 -40l100 -125l-87 -65l-84 139l-85 -140l-87 65l100 126l-151 40l33 106l145 -60l-10 161l108 -1l-11 -161l146 61z" />
    <glyph glyph-name="plus" unicode="+" horiz-adv-x="679" 
d="M624 255h-228v-250h-113v250h-228v107h228v234h113v-234h228v-107z" />
    <glyph glyph-name="comma" unicode="," horiz-adv-x="292" 
d="M222 12c0 -87 -23 -145 -111 -182l-35 58c58 27 69 58 69 112h-75v156h152v-144z" />
    <glyph glyph-name="hyphen" unicode="-" horiz-adv-x="463" 
d="M403 252h-343v112h343v-112z" />
    <glyph glyph-name="period" unicode="." horiz-adv-x="293" 
d="M222 0h-152v156h152v-156z" />
    <glyph glyph-name="slash" unicode="/" horiz-adv-x="389" 
d="M399 722l-307 -735h-92l307 735h92z" />
    <glyph glyph-name="zero" unicode="0" 
d="M530 348c0 -114 -11 -230 -83 -299c-36 -35 -87 -62 -162 -62s-126 27 -162 62c-72 69 -83 185 -83 299s11 230 83 299c36 35 87 62 162 62s126 -27 162 -62c72 -69 83 -185 83 -299zM403 348c0 90 11 245 -118 245s-118 -155 -118 -245s-11 -245 118 -245
s118 155 118 245z" />
    <glyph glyph-name="one" unicode="1" 
d="M394 0h-125v547l-153 -111v136l171 123h107v-695z" />
    <glyph glyph-name="two" unicode="2" 
d="M506 0h-444v100l271 323c24 28 36 61 36 89c0 49 -31 87 -88 87c-59 0 -93 -45 -93 -100h-128c1 122 79 210 222 210c119 0 214 -74 214 -196c0 -62 -37 -123 -76 -170l-192 -230h278v-113z" />
    <glyph glyph-name="three" unicode="3" 
d="M516 199c0 -139 -106 -212 -237 -212c-128 0 -232 84 -236 214h125c5 -68 51 -104 112 -104c62 0 110 38 110 104c0 72 -57 105 -122 105h-52v109h52c68 0 107 28 107 93c0 50 -40 91 -95 91c-62 0 -106 -31 -107 -94h-126c2 131 106 204 233 204c126 0 222 -78 222 -198
c0 -63 -37 -127 -100 -149c72 -20 114 -91 114 -163z" />
    <glyph glyph-name="four" unicode="4" 
d="M550 140h-88v-140h-125v140h-310v118l255 437h136l-259 -442h178v163h125v-163h88v-113z" />
    <glyph glyph-name="five" unicode="5" 
d="M533 236c0 -147 -87 -250 -242 -250c-138 0 -234 86 -241 217h125c3 -69 51 -106 117 -106c84 0 114 61 114 136c0 73 -34 126 -114 126c-41 0 -82 -21 -104 -56h-123l15 392h422v-112h-314l-8 -159c32 30 76 45 138 45c140 0 215 -101 215 -233z" />
    <glyph glyph-name="six" unicode="6" 
d="M535 229c0 -136 -81 -242 -239 -242c-132 0 -214 94 -235 219c-8 45 -11 86 -11 130c0 102 6 227 77 303c38 40 87 70 170 70c71 0 123 -23 159 -57c39 -37 59 -87 59 -128h-126c-2 21 -11 40 -24 53c-16 17 -40 25 -74 25c-33 0 -52 -12 -69 -28
c-38 -35 -48 -98 -48 -159c31 37 90 51 132 51c150 0 229 -96 229 -237zM408 234c0 72 -37 130 -114 130c-67 0 -108 -57 -108 -130c0 -76 36 -135 110 -135c75 0 112 54 112 135z" />
    <glyph glyph-name="seven" unicode="7" 
d="M526 595l-271 -595h-135l272 583h-345v112h479v-100z" />
    <glyph glyph-name="eight" unicode="8" 
d="M525 195c0 -135 -115 -209 -240 -209s-240 74 -240 209c0 69 35 135 101 166c-51 28 -87 91 -87 150c0 131 105 198 226 198s226 -67 226 -198c0 -59 -36 -122 -87 -150c66 -31 101 -97 101 -166zM385 509c0 51 -34 90 -100 90c-67 0 -100 -39 -100 -90s34 -93 100 -93
s100 42 100 93zM399 203c0 57 -40 103 -114 103s-114 -46 -114 -103c0 -64 46 -106 114 -106s114 42 114 106z" />
    <glyph glyph-name="nine" unicode="9" 
d="M522 360c0 -102 -6 -227 -77 -303c-38 -40 -87 -70 -170 -70c-71 0 -123 23 -159 57c-39 37 -59 87 -59 128h126c2 -21 11 -40 24 -53c16 -17 40 -25 74 -25c33 0 52 12 69 28c38 35 48 98 48 159c-31 -37 -90 -51 -132 -51c-150 0 -229 96 -229 237
c0 136 81 242 239 242c132 0 214 -94 235 -219c8 -45 11 -86 11 -130zM386 462c0 76 -36 135 -110 135c-75 0 -112 -54 -112 -135c0 -72 37 -130 114 -130c67 0 108 57 108 130z" />
    <glyph glyph-name="colon" unicode=":" horiz-adv-x="321" 
d="M245 369h-151v151h151v-151zM245 0h-151v151h151v-151z" />
    <glyph glyph-name="semicolon" unicode=";" horiz-adv-x="321" 
d="M245 369h-151v151h151v-151zM245 12c0 -87 -22 -144 -110 -181l-35 58c56 26 69 58 69 111h-75v151h151v-139z" />
    <glyph glyph-name="less" unicode="&#x3c;" horiz-adv-x="466" 
d="M351 645l70 -70l-254 -253l254 -254l-69 -68l-322 323z" />
    <glyph glyph-name="equal" unicode="=" horiz-adv-x="690" 
d="M600 328h-510v98h510v-98zM600 129h-510v99h510v-99z" />
    <glyph glyph-name="greater" unicode="&#x3e;" horiz-adv-x="466" 
d="M45 575l70 70l321 -322l-322 -323l-69 68l254 254z" />
    <glyph glyph-name="question" unicode="?" horiz-adv-x="522" 
d="M494 529c0 -70 -33 -120 -79 -159c-52 -44 -95 -65 -95 -140v-28h-124c0 29 -1 68 5 97c19 88 77 114 124 157c19 17 39 40 39 72c0 44 -34 84 -97 84s-106 -35 -106 -100h-129c0 140 107 213 240 213c131 0 222 -86 222 -196zM327 0h-139v140h139v-140z" />
    <glyph glyph-name="at" unicode="@" horiz-adv-x="927" 
d="M874 384c0 -116 -63 -270 -214 -270c-44 0 -81 14 -101 69c-26 -46 -70 -67 -118 -67c-113 0 -162 94 -162 195c0 110 58 208 173 208c41 0 88 -22 101 -64l14 53h92l-18 -254c-2 -29 7 -47 27 -47c39 0 73 46 86 86c9 28 13 59 13 89c0 161 -112 244 -273 244
c-195 0 -314 -126 -314 -311c0 -166 112 -294 286 -294c77 0 156 6 247 38v-96c-78 -29 -156 -40 -248 -40c-243 0 -395 171 -395 400c0 240 173 399 423 399c209 0 381 -114 381 -338zM546 331c0 56 -20 99 -75 99c-58 0 -82 -61 -82 -119c0 -53 20 -102 71 -102
c65 0 86 58 86 122z" />
    <glyph glyph-name="A" unicode="A" horiz-adv-x="639" 
d="M639 0h-135l-46 136h-282l-46 -136h-130l249 709h141zM418 252l-101 299l-101 -299h202z" />
    <glyph glyph-name="B" unicode="B" horiz-adv-x="664" 
d="M626 206c0 -63 -21 -120 -72 -159c-55 -42 -121 -48 -189 -48h-282v710h282c57 0 116 -8 164 -39c52 -34 82 -93 82 -154c0 -58 -27 -123 -87 -150c67 -31 102 -94 102 -160zM480 508c0 68 -52 90 -110 90h-159v-178h162c58 0 107 21 107 88zM495 209
c0 76 -53 103 -121 103h-163v-197h159c60 0 125 22 125 94z" />
    <glyph glyph-name="C" unicode="C" horiz-adv-x="628" 
d="M600 226c-6 -56 -27 -113 -68 -155c-53 -54 -127 -84 -203 -84s-147 25 -201 79c-77 77 -88 172 -88 288s11 211 88 288c54 54 125 80 201 80s150 -28 203 -82c41 -42 62 -98 68 -154h-132c-3 31 -14 53 -32 75c-23 29 -63 44 -107 44c-41 0 -81 -17 -109 -47
c-49 -51 -49 -139 -49 -204s0 -153 49 -204c28 -30 68 -47 109 -47c44 0 84 16 107 45c18 22 29 47 32 78h132z" />
    <glyph glyph-name="D" unicode="D" horiz-adv-x="684" 
d="M641 355c0 -98 -10 -204 -83 -279c-47 -49 -118 -76 -199 -76h-276v709h276c81 0 152 -27 199 -76c73 -75 83 -180 83 -278zM510 355c0 65 -1 148 -51 198c-24 24 -59 40 -100 40h-147v-477h147c41 0 76 16 100 40c50 50 51 134 51 199z" />
    <glyph glyph-name="E" unicode="E" horiz-adv-x="628" 
d="M588 0h-505v709h505v-117h-376v-165h331v-116h-331v-194h376v-117z" />
    <glyph glyph-name="F" unicode="F" horiz-adv-x="588" 
d="M573 592h-361v-190h322v-117h-322v-285h-129v709h490v-117z" />
    <glyph glyph-name="G" unicode="G" horiz-adv-x="684" 
d="M621 0h-83l-15 78c-21 -41 -89 -90 -178 -91c-82 -1 -155 20 -211 79c-74 77 -92 172 -92 288s15 208 92 285c54 54 135 83 211 83c87 0 162 -32 210 -81c35 -36 61 -81 65 -143h-132c-2 28 -16 47 -31 65c-25 29 -64 43 -113 43c-41 0 -88 -18 -116 -48
c-49 -51 -55 -139 -55 -204s7 -156 56 -207c28 -30 74 -45 115 -45c46 0 82 16 106 41c38 40 46 84 46 138h-169v107h294v-388z" />
    <glyph glyph-name="H" unicode="H" horiz-adv-x="715" 
d="M632 0h-129v309h-291v-309h-129v709h129v-277h291v277h129v-709z" />
    <glyph glyph-name="I" unicode="I" horiz-adv-x="297" 
d="M214 0h-131v709h131v-709z" />
    <glyph glyph-name="J" unicode="J" horiz-adv-x="491" 
d="M428 207c0 -134 -79 -221 -215 -221c-67 0 -116 22 -151 58c-42 43 -62 101 -62 178h125c0 -35 4 -71 26 -95c14 -15 36 -26 62 -26c58 0 86 38 86 96v512h129v-502z" />
    <glyph glyph-name="K" unicode="K" horiz-adv-x="678" 
d="M678 0h-152l-192 335l-122 -143v-192h-129v709h129v-327l283 327h157l-228 -268z" />
    <glyph glyph-name="L" unicode="L" horiz-adv-x="550" 
d="M541 0h-458v709h129v-587h329v-122z" />
    <glyph glyph-name="M" unicode="M" horiz-adv-x="878" 
d="M795 0h-125v506l-184 -496h-95l-183 502v-512h-125v709h174l186 -505l187 505h165v-709z" />
    <glyph glyph-name="N" unicode="N" horiz-adv-x="733" 
d="M650 0h-133l-307 487v-487h-127v709h137l303 -480v480h127v-709z" />
    <glyph glyph-name="O" unicode="O" horiz-adv-x="672" 
d="M630 354c0 -116 -13 -210 -90 -287c-54 -54 -128 -80 -204 -80s-150 26 -204 80c-77 77 -90 171 -90 287s13 211 90 288c54 54 128 80 204 80s150 -26 204 -80c77 -77 90 -172 90 -288zM499 354c0 65 -2 153 -51 204c-28 30 -71 47 -112 47s-84 -17 -112 -47
c-49 -51 -51 -139 -51 -204s2 -152 51 -203c28 -30 71 -47 112 -47s84 17 112 47c49 51 51 138 51 203z" />
    <glyph glyph-name="P" unicode="P" horiz-adv-x="624" 
d="M611 482c0 -136 -87 -228 -250 -228h-150v-254h-128v709h278c163 0 250 -91 250 -227zM481 481c0 68 -39 115 -125 115h-145v-229h145c86 0 125 46 125 114z" />
    <glyph glyph-name="Q" unicode="Q" horiz-adv-x="672" 
d="M630 354c0 -116 -13 -209 -89 -286l62 -78l-77 -60l-66 82c-39 -17 -81 -25 -124 -25c-76 0 -150 26 -204 80c-77 77 -90 171 -90 287s13 211 90 288c54 54 128 80 204 80s150 -26 204 -80c77 -77 90 -172 90 -288zM499 354c0 65 -2 153 -51 204c-28 30 -71 47 -112 47
s-84 -17 -112 -47c-49 -51 -51 -139 -51 -204s2 -152 51 -203c28 -30 71 -47 112 -47c15 0 31 2 46 7l-76 95l78 61l78 -99c35 52 37 128 37 186z" />
    <glyph glyph-name="R" unicode="R" horiz-adv-x="659" 
d="M628 0h-140l-118 268h-157v-268h-130v709h299c169 0 246 -106 246 -220c0 -95 -52 -170 -130 -199zM499 489c0 57 -44 107 -117 107h-170v-212h172c73 0 115 38 115 105z" />
    <glyph glyph-name="S" unicode="S" horiz-adv-x="632" 
d="M599 211c0 -66 -24 -113 -59 -148c-54 -54 -137 -76 -224 -76c-75 0 -154 20 -212 73c-42 38 -74 98 -74 165h132c0 -35 16 -66 37 -87c30 -30 78 -38 119 -38c49 0 96 10 123 38c16 17 28 34 28 68c0 52 -40 76 -84 84c-48 9 -110 11 -157 19c-98 16 -180 80 -180 198
c0 56 25 103 62 140c47 46 125 75 208 75c76 0 150 -24 198 -69c42 -40 71 -92 72 -151h-132c-1 25 -14 52 -31 70c-23 24 -70 38 -108 38c-40 0 -86 -9 -115 -39c-15 -16 -24 -34 -24 -60c0 -46 30 -70 72 -77c45 -7 108 -12 154 -18c106 -15 195 -84 195 -205z" />
    <glyph glyph-name="T" unicode="T" horiz-adv-x="561" 
d="M555 589h-210v-589h-129v589h-210v120h549v-120z" />
    <glyph glyph-name="U" unicode="U" horiz-adv-x="682" 
d="M619 272c0 -169 -95 -285 -278 -285s-278 116 -278 285v437h129v-435c0 -101 46 -170 149 -170s149 69 149 170v435h129v-437z" />
    <glyph glyph-name="V" unicode="V" horiz-adv-x="610" 
d="M610 709l-233 -709h-142l-235 709h137l172 -541l171 541h130z" />
    <glyph glyph-name="W" unicode="W" horiz-adv-x="872" 
d="M855 709l-141 -709h-129l-148 489l-148 -489h-129l-143 709h123l99 -493l146 482h108l143 -482l101 493h118z" />
    <glyph glyph-name="X" unicode="X" horiz-adv-x="603" 
d="M601 0h-142l-159 258l-159 -258h-139l223 361l-221 348h141l159 -248l154 248h140l-218 -349z" />
    <glyph glyph-name="Y" unicode="Y" horiz-adv-x="624" 
d="M624 709l-248 -437v-272h-130v272l-246 437h140l175 -306l175 306h134z" />
    <glyph glyph-name="Z" unicode="Z" horiz-adv-x="615" 
d="M584 0h-555v127l391 465h-385v117h544v-127l-388 -465h393v-117z" />
    <glyph glyph-name="bracketleft" unicode="[" horiz-adv-x="363" 
d="M338 -148h-234v928h234v-85h-140v-758h140v-85z" />
    <glyph glyph-name="backslash" unicode="\" horiz-adv-x="389" 
d="M389 -13h-92l-307 735h92z" />
    <glyph glyph-name="bracketright" unicode="]" horiz-adv-x="363" 
d="M259 -148h-234v85h140v758h-140v85h234v-928z" />
    <glyph glyph-name="asciicircum" unicode="^" horiz-adv-x="538" 
d="M488 404h-138l-83 163l-84 -163h-133l170 318h99z" />
    <glyph glyph-name="underscore" unicode="_" horiz-adv-x="587" 
d="M563 -90h-539v88h539v-88z" />
    <glyph glyph-name="grave" unicode="`" horiz-adv-x="255" 
d="M243 631l-40 -65l-200 112l56 91z" />
    <glyph glyph-name="a" unicode="a" horiz-adv-x="562" 
d="M531 6c-21 -9 -32 -14 -62 -14c-54 0 -84 34 -88 73c-24 -42 -84 -78 -158 -78c-124 0 -188 78 -188 163c0 99 77 156 176 163l153 11v32c0 49 -17 82 -88 82c-58 0 -92 -26 -95 -74h-121c7 117 100 169 216 169c89 0 165 -28 195 -106c13 -33 15 -70 15 -105v-193
c0 -24 8 -33 29 -33c8 0 16 2 16 2v-92zM364 207v24l-132 -10c-38 -3 -75 -26 -75 -68c0 -40 35 -65 74 -65c78 0 133 42 133 119z" />
    <glyph glyph-name="b" unicode="b" horiz-adv-x="601" 
d="M559 259c0 -98 -31 -176 -93 -227c-32 -26 -74 -44 -126 -44c-57 0 -115 21 -146 69l-8 -57h-108v722h125v-240c24 29 74 51 136 51c53 0 95 -16 127 -42c62 -51 93 -130 93 -232zM432 261c0 45 -7 92 -33 126c-18 23 -45 41 -84 41c-98 0 -118 -92 -118 -167
c0 -51 9 -109 45 -142c17 -16 41 -26 73 -26c39 0 66 18 84 41c26 34 33 82 33 127z" />
    <glyph glyph-name="c" unicode="c" horiz-adv-x="531" 
d="M498 184c-2 -41 -16 -82 -40 -113c-36 -45 -99 -82 -178 -82s-145 38 -181 82c-39 49 -57 114 -57 190s18 141 57 190c36 44 102 82 181 82s142 -37 178 -82c24 -31 38 -72 40 -113h-123c-1 19 -7 35 -15 48c-15 23 -42 39 -80 39c-34 0 -59 -14 -76 -32
c-30 -33 -35 -83 -35 -132s5 -98 35 -131c17 -18 42 -33 76 -33c38 0 65 16 80 39c8 13 14 29 15 48h123z" />
    <glyph glyph-name="d" unicode="d" horiz-adv-x="601" 
d="M523 0h-108l-8 57c-31 -48 -89 -69 -146 -69c-52 0 -95 18 -127 44c-62 51 -92 129 -92 227c0 102 31 181 93 232c32 26 74 42 127 42c66 0 114 -22 136 -49v238h125v-722zM404 261c0 75 -20 167 -118 167c-39 0 -66 -18 -84 -41c-26 -34 -33 -81 -33 -126s7 -93 33 -127
c18 -23 45 -41 84 -41c98 0 118 93 118 168z" />
    <glyph glyph-name="e" unicode="e" horiz-adv-x="557" 
d="M518 256c0 0 -1 -24 -1 -35h-348c-1 -40 13 -78 38 -102c18 -17 43 -32 77 -32c36 0 58 7 76 25c11 11 20 25 25 44h120c-3 -31 -24 -72 -44 -96c-44 -52 -109 -73 -175 -73c-71 0 -123 25 -164 64c-52 50 -80 123 -80 208c0 83 25 157 75 208c39 40 95 66 166 66
c77 0 147 -31 190 -96c38 -57 47 -116 45 -181zM393 312c-1 39 -12 69 -32 91c-17 18 -43 30 -79 30c-38 0 -69 -16 -87 -40c-18 -23 -26 -47 -27 -81h225z" />
    <glyph glyph-name="f" unicode="f" horiz-adv-x="379" 
d="M379 623c-26 5 -49 8 -82 8c-45 0 -68 -26 -68 -63v-48h139v-103h-139v-417h-125v417h-88v103h88v50c0 96 65 164 177 164c36 0 59 -3 98 -11v-100z" />
    <glyph glyph-name="g" unicode="g" horiz-adv-x="551" 
d="M536 -69c0 -137 -135 -174 -251 -174c-63 0 -130 5 -184 43c-40 28 -63 65 -63 114c0 45 22 86 62 106c-33 18 -52 55 -52 89c0 44 20 79 62 105c-32 32 -52 75 -52 128c0 124 96 191 213 191c43 0 84 -12 118 -32c22 45 62 65 106 65c8 0 26 0 34 -2v-97
c-3 0 -7 1 -10 1c-29 0 -55 -8 -63 -33c17 -28 27 -59 27 -94c0 -119 -100 -189 -212 -189c-29 0 -58 5 -84 14c-12 -7 -26 -20 -26 -37c0 -31 31 -38 57 -38h86c52 0 120 -1 169 -35c45 -31 63 -75 63 -125zM363 342c0 56 -35 97 -92 97s-92 -41 -92 -97s35 -96 92 -96
s92 40 92 96zM418 -72c0 64 -77 64 -124 64h-98c-27 -8 -47 -31 -47 -64c0 -66 82 -72 131 -72c50 0 138 3 138 72z" />
    <glyph glyph-name="h" unicode="h" horiz-adv-x="591" 
d="M521 0h-125v321c0 60 -20 97 -86 97c-75 0 -107 -80 -107 -144v-274h-125v722h125v-257c30 44 88 68 142 68c111 0 176 -79 176 -186v-347z" />
    <glyph glyph-name="i" unicode="i" horiz-adv-x="286" 
d="M210 592h-134v129h134v-129zM207 0h-127v520h127v-520z" />
    <glyph glyph-name="j" unicode="j" horiz-adv-x="296" 
d="M220 594h-134v129h134v-129zM217 -72c0 -89 -53 -145 -146 -145c-14 0 -28 0 -44 2s-34 5 -57 11v106c37 -4 42 -6 61 -6c39 0 60 21 60 56v568h126v-592z" />
    <glyph glyph-name="k" unicode="k" horiz-adv-x="577" 
d="M577 0h-145l-146 227l-83 -90v-137h-125v722h125v-413l197 211h157l-186 -201z" />
    <glyph glyph-name="l" unicode="l" horiz-adv-x="302" 
d="M272 1c-25 -5 -30 -7 -55 -7c-85 0 -142 41 -142 140v589h126v-568c0 -30 7 -50 50 -50c11 0 14 1 21 1v-105z" />
    <glyph glyph-name="m" unicode="m" horiz-adv-x="885" 
d="M815 0h-124v323c0 64 -17 101 -80 101c-71 0 -102 -75 -102 -140v-284h-124v323c0 64 -17 101 -80 101c-71 0 -103 -75 -103 -140v-284h-124v520h104l10 -69c29 48 79 82 148 82c73 0 123 -32 149 -85c31 54 87 85 157 85c111 0 169 -74 169 -182v-351z" />
    <glyph glyph-name="n" unicode="n" horiz-adv-x="591" 
d="M521 0h-125v319c0 61 -20 98 -86 98c-44 0 -73 -28 -90 -66c-18 -41 -17 -95 -17 -139v-212h-125v520h105l9 -67c31 55 93 80 153 80c111 0 176 -78 176 -186v-347z" />
    <glyph glyph-name="o" unicode="o" 
d="M528 260c0 -88 -22 -143 -61 -192c-36 -44 -103 -81 -182 -81s-146 37 -182 81c-39 49 -61 104 -61 192s22 143 61 192c36 44 103 81 182 81s146 -37 182 -81c39 -49 61 -104 61 -192zM401 260c0 49 -7 98 -37 131c-17 18 -45 33 -79 33s-62 -15 -79 -33
c-30 -33 -37 -82 -37 -131s7 -98 37 -131c17 -18 45 -33 79 -33s62 15 79 33c30 33 37 82 37 131z" />
    <glyph glyph-name="p" unicode="p" horiz-adv-x="601" 
d="M559 261c0 -102 -31 -181 -93 -232c-32 -26 -74 -42 -127 -42c-62 0 -112 22 -136 51v-237h-125v719h108l8 -57c31 48 89 69 146 69c52 0 94 -18 126 -44c62 -51 93 -129 93 -227zM432 259c0 45 -7 93 -33 127c-18 23 -45 41 -84 41c-98 0 -118 -93 -118 -168
s20 -167 118 -167c39 0 66 18 84 41c26 34 33 81 33 126z" />
    <glyph glyph-name="q" unicode="q" horiz-adv-x="601" 
d="M523 -199h-125v236c-24 -29 -74 -50 -136 -50c-53 0 -95 16 -127 42c-62 51 -93 130 -93 232c0 98 31 176 93 227c32 26 74 44 126 44c57 0 115 -21 146 -69l8 57h108v-719zM404 259c0 75 -20 168 -118 168c-39 0 -66 -18 -84 -41c-26 -34 -33 -82 -33 -127
s7 -92 33 -126c18 -23 45 -41 84 -41c98 0 118 92 118 167z" />
    <glyph glyph-name="r" unicode="r" horiz-adv-x="395" 
d="M381 404c-14 3 -29 5 -43 5c-88 0 -134 -63 -134 -147v-262h-126v520h106l11 -78c24 60 86 85 147 85c13 0 26 -1 39 -3v-120z" />
    <glyph glyph-name="s" unicode="s" horiz-adv-x="521" 
d="M482 161c0 -50 -18 -87 -45 -114c-42 -42 -107 -60 -178 -60c-66 0 -125 19 -168 60c-30 29 -55 72 -55 121h117c0 -23 12 -48 28 -61c20 -16 43 -23 79 -23c42 0 106 9 106 66c0 30 -20 50 -52 55c-46 7 -98 10 -144 20c-71 15 -119 73 -119 139c0 53 22 90 53 117
c38 33 93 52 158 52c62 0 125 -20 163 -61c28 -30 46 -69 46 -107h-119c0 20 -9 36 -21 49c-15 15 -42 24 -68 24c-18 0 -35 0 -54 -8c-22 -9 -40 -28 -40 -55c0 -37 32 -48 60 -52c47 -6 60 -7 111 -15c82 -13 142 -65 142 -147z" />
    <glyph glyph-name="t" unicode="t" horiz-adv-x="400" 
d="M372 7c-35 -9 -70 -14 -107 -14c-105 0 -157 60 -157 160v264h-95v103h95v132l125 31v-163h131v-103h-131v-253c0 -40 18 -57 58 -57c26 0 47 1 81 5v-105z" />
    <glyph glyph-name="u" unicode="u" horiz-adv-x="590" 
d="M512 0h-104l-9 68c-25 -51 -83 -81 -149 -81c-111 0 -180 75 -180 186v347h125v-319c0 -61 24 -99 90 -99c29 0 49 11 64 26c30 28 38 75 38 117v275h125v-520z" />
    <glyph glyph-name="v" unicode="v" horiz-adv-x="514" 
d="M514 520l-188 -520h-133l-193 520h132l130 -366l123 366h129z" />
    <glyph glyph-name="w" unicode="w" horiz-adv-x="771" 
d="M748 520l-127 -520h-116l-118 351l-116 -351h-116l-132 520h121l83 -341l109 336h103l110 -335l80 340h119z" />
    <glyph glyph-name="x" unicode="x" horiz-adv-x="516" 
d="M513 520l-179 -256l178 -264h-141l-116 174l-114 -174h-137l182 265l-183 255h144l116 -168l113 168h137z" />
    <glyph glyph-name="y" unicode="y" horiz-adv-x="530" 
d="M530 520l-229 -609c-26 -68 -69 -130 -160 -130c-41 0 -69 6 -96 13v104c33 -6 42 -9 70 -9c23 0 47 8 60 39l30 73l-205 519h137l136 -376l130 376h127z" />
    <glyph glyph-name="z" unicode="z" horiz-adv-x="507" 
d="M468 0h-424v110l275 307h-273v103h420v-113l-272 -304h274v-103z" />
    <glyph glyph-name="braceleft" unicode="{" horiz-adv-x="379" 
d="M379 -148h-53c-115 0 -164 80 -164 169c0 30 1 94 1 124c0 88 -39 119 -118 125v93c76 7 118 32 118 124c0 30 -1 94 -1 124c0 89 49 169 164 169h53v-85h-34c-66 0 -88 -34 -88 -91v-154c-1 -58 -37 -116 -108 -131v-3c71 -15 107 -76 108 -134v-154
c0 -57 22 -91 88 -91h34v-85z" />
    <glyph glyph-name="bar" unicode="|" horiz-adv-x="268" 
d="M183 -148h-98v928h98v-928z" />
    <glyph glyph-name="braceright" unicode="}" horiz-adv-x="379" 
d="M334 270c-79 -6 -118 -37 -118 -125c0 -30 1 -94 1 -124c0 -89 -49 -169 -164 -169h-53v85h34c66 0 88 34 88 91v154c1 58 37 119 108 134v3c-71 15 -107 73 -108 131v154c0 57 -22 91 -88 91h-34v85h53c115 0 164 -80 164 -169c0 -30 -1 -94 -1 -124
c0 -92 42 -117 118 -124v-93z" />
    <glyph glyph-name="asciitilde" unicode="~" horiz-adv-x="683" 
d="M623 306c-51 -53 -107 -100 -185 -100s-142 62 -196 62c-41 0 -77 -32 -103 -60l-79 95c50 53 105 102 183 102c76 0 139 -60 195 -60c41 0 78 28 105 56z" />
    <glyph glyph-name="uni0080" horiz-adv-x="639" 
d="M639 0h-135l-46 136h-282l-46 -136h-130l249 709h141zM418 252l-101 299l-101 -299h202zM479 791h-117v121h117v-121zM273 791h-117v121h117v-121z" />
    <glyph glyph-name="uni0081" horiz-adv-x="639" 
d="M639 0h-135l-46 136h-282l-46 -136h-130l235 669c-27 23 -44 58 -44 96c0 71 57 127 128 127s128 -56 128 -127c0 -38 -16 -73 -43 -96zM375 765c0 31 -25 55 -56 55s-54 -24 -54 -55s23 -56 54 -56s56 25 56 56zM418 252l-101 299l-101 -299h202z" />
    <glyph glyph-name="uni0082" horiz-adv-x="628" 
d="M600 226c-6 -56 -27 -113 -68 -155c-53 -54 -127 -84 -203 -84s-147 25 -201 79c-77 77 -88 172 -88 288s11 211 88 288c54 54 125 80 201 80s150 -28 203 -82c41 -42 62 -98 68 -154h-132c-3 31 -14 53 -32 75c-23 29 -63 44 -107 44c-41 0 -81 -17 -109 -47
c-49 -51 -49 -139 -49 -204s0 -153 49 -204c28 -30 68 -47 109 -47c44 0 84 16 107 45c18 22 29 47 32 78h132zM398 -41l-76 -199l-104 49l83 150h97z" />
    <glyph glyph-name="uni0083" horiz-adv-x="628" 
d="M588 0h-505v709h505v-117h-376v-165h331v-116h-331v-194h376v-117zM451 876l-200 -112l-40 65l184 138z" />
    <glyph glyph-name="uni0084" horiz-adv-x="733" 
d="M650 0h-133l-307 487v-487h-127v709h137l303 -480v480h127v-709zM537 852c-30 -31 -70 -60 -115 -60c-54 0 -87 41 -121 41c-24 0 -48 -16 -63 -33l-51 64c31 31 69 60 115 60c54 0 84 -42 121 -42c22 0 48 19 63 34z" />
    <glyph glyph-name="uni0085" unicode="&#x85;" horiz-adv-x="672" 
d="M630 354c0 -116 -13 -210 -90 -287c-54 -54 -128 -80 -204 -80s-150 26 -204 80c-77 77 -90 171 -90 287s13 211 90 288c54 54 128 80 204 80s150 -26 204 -80c77 -77 90 -172 90 -288zM499 354c0 65 -2 153 -51 204c-28 30 -71 47 -112 47s-84 -17 -112 -47
c-49 -51 -51 -139 -51 -204s2 -152 51 -203c28 -30 71 -47 112 -47s84 17 112 47c49 51 51 138 51 203zM498 793h-117v121h117v-121zM292 793h-117v121h117v-121z" />
    <glyph glyph-name="uni0086" horiz-adv-x="682" 
d="M619 272c0 -169 -95 -285 -278 -285s-278 116 -278 285v437h129v-435c0 -101 46 -170 149 -170s149 69 149 170v435h129v-437zM502 792h-117v121h117v-121zM296 792h-117v121h117v-121z" />
    <glyph glyph-name="uni0087" horiz-adv-x="562" 
d="M531 6c-21 -9 -32 -14 -62 -14c-54 0 -84 34 -88 73c-24 -42 -84 -78 -158 -78c-124 0 -188 78 -188 163c0 99 77 156 176 163l153 11v32c0 49 -17 82 -88 82c-58 0 -92 -26 -95 -74h-121c7 117 100 169 216 169c89 0 165 -28 195 -106c13 -33 15 -70 15 -105v-193
c0 -24 8 -33 29 -33c8 0 16 2 16 2v-92zM364 207v24l-132 -10c-38 -3 -75 -26 -75 -68c0 -40 35 -65 74 -65c78 0 133 42 133 119zM382 678l-200 -112l-40 65l184 138z" />
    <glyph glyph-name="uni0088" horiz-adv-x="562" 
d="M531 6c-21 -9 -32 -14 -62 -14c-54 0 -84 34 -88 73c-24 -42 -84 -78 -158 -78c-124 0 -188 78 -188 163c0 99 77 156 176 163l153 11v32c0 49 -17 82 -88 82c-58 0 -92 -26 -95 -74h-121c7 117 100 169 216 169c89 0 165 -28 195 -106c13 -33 15 -70 15 -105v-193
c0 -24 8 -33 29 -33c8 0 16 2 16 2v-92zM364 207v24l-132 -10c-38 -3 -75 -26 -75 -68c0 -40 35 -65 74 -65c78 0 133 42 133 119zM357 566l-200 112l56 91l184 -138z" />
    <glyph glyph-name="uni0089" horiz-adv-x="562" 
d="M531 6c-21 -9 -32 -14 -62 -14c-54 0 -84 34 -88 73c-24 -42 -84 -78 -158 -78c-124 0 -188 78 -188 163c0 99 77 156 176 163l153 11v32c0 49 -17 82 -88 82c-58 0 -92 -26 -95 -74h-121c7 117 100 169 216 169c89 0 165 -28 195 -106c13 -33 15 -70 15 -105v-193
c0 -24 8 -33 29 -33c8 0 16 2 16 2v-92zM364 207v24l-132 -10c-38 -3 -75 -26 -75 -68c0 -40 35 -65 74 -65c78 0 133 42 133 119zM437 629l-61 -55l-103 113l-105 -116l-64 58l138 145h61z" />
    <glyph glyph-name="uni008A" horiz-adv-x="562" 
d="M531 6c-21 -9 -32 -14 -62 -14c-54 0 -84 34 -88 73c-24 -42 -84 -78 -158 -78c-124 0 -188 78 -188 163c0 99 77 156 176 163l153 11v32c0 49 -17 82 -88 82c-58 0 -92 -26 -95 -74h-121c7 117 100 169 216 169c89 0 165 -28 195 -106c13 -33 15 -70 15 -105v-193
c0 -24 8 -33 29 -33c8 0 16 2 16 2v-92zM364 207v24l-132 -10c-38 -3 -75 -26 -75 -68c0 -40 35 -65 74 -65c78 0 133 42 133 119zM442 601h-117v121h117v-121zM236 601h-117v121h117v-121z" />
    <glyph glyph-name="uni008B" horiz-adv-x="562" 
d="M531 6c-21 -9 -32 -14 -62 -14c-54 0 -84 34 -88 73c-24 -42 -84 -78 -158 -78c-124 0 -188 78 -188 163c0 99 77 156 176 163l153 11v32c0 49 -17 82 -88 82c-58 0 -92 -26 -95 -74h-121c7 117 100 169 216 169c89 0 165 -28 195 -106c13 -33 15 -70 15 -105v-193
c0 -24 8 -33 29 -33c8 0 16 2 16 2v-92zM364 207v24l-132 -10c-38 -3 -75 -26 -75 -68c0 -40 35 -65 74 -65c78 0 133 42 133 119zM443 672c-30 -30 -68 -59 -113 -59c-53 0 -85 40 -118 40c-24 0 -47 -15 -62 -32l-50 63c30 30 68 59 113 59c52 0 82 -41 118 -41
c22 0 48 18 62 33z" />
    <glyph glyph-name="uni008C" horiz-adv-x="562" 
d="M531 6c-21 -9 -32 -14 -62 -14c-54 0 -84 34 -88 73c-24 -42 -84 -78 -158 -78c-124 0 -188 78 -188 163c0 99 77 156 176 163l153 11v32c0 49 -17 82 -88 82c-58 0 -92 -26 -95 -74h-121c7 117 100 169 216 169c89 0 165 -28 195 -106c13 -33 15 -70 15 -105v-193
c0 -24 8 -33 29 -33c8 0 16 2 16 2v-92zM364 207v24l-132 -10c-38 -3 -75 -26 -75 -68c0 -40 35 -65 74 -65c78 0 133 42 133 119zM396 710c0 -68 -54 -122 -122 -122s-122 54 -122 122s54 121 122 121s122 -53 122 -121zM327 710c0 29 -24 52 -53 52s-52 -23 -52 -52
s23 -53 52 -53s53 24 53 53z" />
    <glyph glyph-name="uni008D" horiz-adv-x="531" 
d="M498 184c-2 -41 -16 -82 -40 -113c-36 -45 -99 -82 -178 -82s-145 38 -181 82c-39 49 -57 114 -57 190s18 141 57 190c36 44 102 82 181 82s142 -37 178 -82c24 -31 38 -72 40 -113h-123c-1 19 -7 35 -15 48c-15 23 -42 39 -80 39c-34 0 -59 -14 -76 -32
c-30 -33 -35 -83 -35 -132s5 -98 35 -131c17 -18 42 -33 76 -33c38 0 65 16 80 39c8 13 14 29 15 48h123zM350 -44l-76 -199l-104 49l83 150h97z" />
    <glyph glyph-name="uni008E" horiz-adv-x="557" 
d="M518 256c0 0 -1 -24 -1 -35h-348c-1 -40 13 -78 38 -102c18 -17 43 -32 77 -32c36 0 58 7 76 25c11 11 20 25 25 44h120c-3 -31 -24 -72 -44 -96c-44 -52 -109 -73 -175 -73c-71 0 -123 25 -164 64c-52 50 -80 123 -80 208c0 83 25 157 75 208c39 40 95 66 166 66
c77 0 147 -31 190 -96c38 -57 47 -116 45 -181zM393 312c-1 39 -12 69 -32 91c-17 18 -43 30 -79 30c-38 0 -69 -16 -87 -40c-18 -23 -26 -47 -27 -81h225zM409 678l-200 -112l-40 65l184 138z" />
    <glyph glyph-name="uni008F" horiz-adv-x="557" 
d="M518 256c0 0 -1 -24 -1 -35h-348c-1 -40 13 -78 38 -102c18 -17 43 -32 77 -32c36 0 58 7 76 25c11 11 20 25 25 44h120c-3 -31 -24 -72 -44 -96c-44 -52 -109 -73 -175 -73c-71 0 -123 25 -164 64c-52 50 -80 123 -80 208c0 83 25 157 75 208c39 40 95 66 166 66
c77 0 147 -31 190 -96c38 -57 47 -116 45 -181zM393 312c-1 39 -12 69 -32 91c-17 18 -43 30 -79 30c-38 0 -69 -16 -87 -40c-18 -23 -26 -47 -27 -81h225zM364 567l-200 112l56 91l184 -138z" />
    <glyph glyph-name="uni0090" horiz-adv-x="557" 
d="M518 256c0 0 -1 -24 -1 -35h-348c-1 -40 13 -78 38 -102c18 -17 43 -32 77 -32c36 0 58 7 76 25c11 11 20 25 25 44h120c-3 -31 -24 -72 -44 -96c-44 -52 -109 -73 -175 -73c-71 0 -123 25 -164 64c-52 50 -80 123 -80 208c0 83 25 157 75 208c39 40 95 66 166 66
c77 0 147 -31 190 -96c38 -57 47 -116 45 -181zM393 312c-1 39 -12 69 -32 91c-17 18 -43 30 -79 30c-38 0 -69 -16 -87 -40c-18 -23 -26 -47 -27 -81h225zM441 629l-61 -55l-103 113l-105 -116l-64 58l138 145h61z" />
    <glyph glyph-name="uni0091" horiz-adv-x="557" 
d="M518 256c0 0 -1 -24 -1 -35h-348c-1 -40 13 -78 38 -102c18 -17 43 -32 77 -32c36 0 58 7 76 25c11 11 20 25 25 44h120c-3 -31 -24 -72 -44 -96c-44 -52 -109 -73 -175 -73c-71 0 -123 25 -164 64c-52 50 -80 123 -80 208c0 83 25 157 75 208c39 40 95 66 166 66
c77 0 147 -31 190 -96c38 -57 47 -116 45 -181zM393 312c-1 39 -12 69 -32 91c-17 18 -43 30 -79 30c-38 0 -69 -16 -87 -40c-18 -23 -26 -47 -27 -81h225zM453 601h-117v121h117v-121zM247 601h-117v121h117v-121z" />
    <glyph glyph-name="uni0092" horiz-adv-x="286" 
d="M207 0h-127v520h127v-520zM238 671l-178 -103l-36 60l164 127z" />
    <glyph glyph-name="uni0093" horiz-adv-x="286" 
d="M207 0h-127v520h127v-520zM210 567l-178 103l50 84l164 -127z" />
    <glyph glyph-name="uni0094" horiz-adv-x="286" 
d="M207 0h-127v520h127v-520zM291 619l-55 -50l-91 104l-94 -107l-57 53l123 134h54z" />
    <glyph glyph-name="uni0095" horiz-adv-x="286" 
d="M207 0h-127v520h127v-520zM287 608h-104v107h104v-107zM103 608h-104v107h104v-107z" />
    <glyph glyph-name="uni0096" horiz-adv-x="591" 
d="M521 0h-125v319c0 61 -20 98 -86 98c-44 0 -73 -28 -90 -66c-18 -41 -17 -95 -17 -139v-212h-125v520h105l9 -67c31 55 93 80 153 80c111 0 176 -78 176 -186v-347zM476 672c-30 -30 -68 -59 -112 -59c-53 0 -86 40 -119 40c-23 0 -46 -15 -62 -32l-50 63
c30 30 68 59 113 59c53 0 82 -41 119 -41c21 0 47 18 61 33z" />
    <glyph glyph-name="uni0097" 
d="M528 260c0 -88 -22 -143 -61 -192c-36 -44 -103 -81 -182 -81s-146 37 -182 81c-39 49 -61 104 -61 192s22 143 61 192c36 44 103 81 182 81s146 -37 182 -81c39 -49 61 -104 61 -192zM401 260c0 49 -7 98 -37 131c-17 18 -45 33 -79 33s-62 -15 -79 -33
c-30 -33 -37 -82 -37 -131s7 -98 37 -131c17 -18 45 -33 79 -33s62 15 79 33c30 33 37 82 37 131zM410 678l-200 -112l-40 65l184 138z" />
    <glyph glyph-name="uni0098" 
d="M528 260c0 -88 -22 -143 -61 -192c-36 -44 -103 -81 -182 -81s-146 37 -182 81c-39 49 -61 104 -61 192s22 143 61 192c36 44 103 81 182 81s146 -37 182 -81c39 -49 61 -104 61 -192zM401 260c0 49 -7 98 -37 131c-17 18 -45 33 -79 33s-62 -15 -79 -33
c-30 -33 -37 -82 -37 -131s7 -98 37 -131c17 -18 45 -33 79 -33s62 15 79 33c30 33 37 82 37 131zM367 567l-200 112l56 91l184 -138z" />
    <glyph glyph-name="uni0099" 
d="M528 260c0 -88 -22 -143 -61 -192c-36 -44 -103 -81 -182 -81s-146 37 -182 81c-39 49 -61 104 -61 192s22 143 61 192c36 44 103 81 182 81s146 -37 182 -81c39 -49 61 -104 61 -192zM401 260c0 49 -7 98 -37 131c-17 18 -45 33 -79 33s-62 -15 -79 -33
c-30 -33 -37 -82 -37 -131s7 -98 37 -131c17 -18 45 -33 79 -33s62 15 79 33c30 33 37 82 37 131zM445 629l-61 -55l-103 113l-105 -116l-64 58l138 145h61z" />
    <glyph glyph-name="uni009A" 
d="M528 260c0 -88 -22 -143 -61 -192c-36 -44 -103 -81 -182 -81s-146 37 -182 81c-39 49 -61 104 -61 192s22 143 61 192c36 44 103 81 182 81s146 -37 182 -81c39 -49 61 -104 61 -192zM401 260c0 49 -7 98 -37 131c-17 18 -45 33 -79 33s-62 -15 -79 -33
c-30 -33 -37 -82 -37 -131s7 -98 37 -131c17 -18 45 -33 79 -33s62 15 79 33c30 33 37 82 37 131zM451 601h-117v121h117v-121zM245 601h-117v121h117v-121z" />
    <glyph glyph-name="uni009B" 
d="M528 260c0 -88 -22 -143 -61 -192c-36 -44 -103 -81 -182 -81s-146 37 -182 81c-39 49 -61 104 -61 192s22 143 61 192c36 44 103 81 182 81s146 -37 182 -81c39 -49 61 -104 61 -192zM401 260c0 49 -7 98 -37 131c-17 18 -45 33 -79 33s-62 -15 -79 -33
c-30 -33 -37 -82 -37 -131s7 -98 37 -131c17 -18 45 -33 79 -33s62 15 79 33c30 33 37 82 37 131zM444 678c-29 -30 -68 -58 -112 -58c-53 0 -86 40 -119 40c-23 0 -46 -16 -62 -33l-50 63c30 31 68 59 113 59c53 0 82 -41 119 -41c21 0 47 18 61 33z" />
    <glyph glyph-name="uni009C" horiz-adv-x="590" 
d="M512 0h-104l-9 68c-25 -51 -83 -81 -149 -81c-111 0 -180 75 -180 186v347h125v-319c0 -61 24 -99 90 -99c29 0 49 11 64 26c30 28 38 75 38 117v275h125v-520zM422 678l-200 -112l-40 65l184 138z" />
    <glyph glyph-name="uni009D" horiz-adv-x="590" 
d="M512 0h-104l-9 68c-25 -51 -83 -81 -149 -81c-111 0 -180 75 -180 186v347h125v-319c0 -61 24 -99 90 -99c29 0 49 11 64 26c30 28 38 75 38 117v275h125v-520zM361 566l-200 112l56 91l184 -138z" />
    <glyph glyph-name="uni009E" horiz-adv-x="590" 
d="M512 0h-104l-9 68c-25 -51 -83 -81 -149 -81c-111 0 -180 75 -180 186v347h125v-319c0 -61 24 -99 90 -99c29 0 49 11 64 26c30 28 38 75 38 117v275h125v-520zM451 629l-61 -55l-103 113l-105 -116l-64 58l138 145h61z" />
    <glyph glyph-name="uni009F" horiz-adv-x="590" 
d="M512 0h-104l-9 68c-25 -51 -83 -81 -149 -81c-111 0 -180 75 -180 186v347h125v-319c0 -61 24 -99 90 -99c29 0 49 11 64 26c30 28 38 75 38 117v275h125v-520zM457 601h-117v121h117v-121zM251 601h-117v121h117v-121z" />
    <glyph glyph-name="uni00A0" unicode="&#xa0;" horiz-adv-x="562" 
d="M522 415h-184v-540h-114v540h-184v105h184v189h114v-189h184v-105z" />
    <glyph glyph-name="exclamdown" unicode="&#xa1;" horiz-adv-x="446" 
d="M396 555c0 -102 -80 -169 -175 -169s-171 72 -171 169c0 92 64 167 171 167c103 0 175 -72 175 -167zM298 555c0 43 -34 76 -77 76c-42 0 -75 -33 -75 -76c0 -44 33 -78 75 -78s77 34 77 78z" />
    <glyph glyph-name="cent" unicode="&#xa2;" 
d="M521 276c-2 -41 -16 -81 -40 -112c-31 -40 -82 -74 -148 -81v-85h-62v87c-64 9 -116 42 -146 79c-39 48 -54 114 -54 190s15 142 54 190c30 37 82 71 146 80v88h62v-87c66 -7 117 -41 148 -81c24 -31 38 -71 40 -112h-121c-1 19 -7 34 -15 47c-11 18 -28 31 -52 37v-324
c24 6 41 19 52 37c8 13 14 28 15 47h121zM271 194v320c-17 -6 -31 -16 -42 -28c-30 -33 -34 -83 -34 -132s4 -99 34 -132c11 -12 25 -22 42 -28z" />
    <glyph glyph-name="sterling" unicode="&#xa3;" horiz-adv-x="575" 
d="M549 192c0 -125 -68 -192 -193 -192h-318v110c50 0 76 23 76 74v130h-75v103h75v91c0 126 80 202 205 202c113 0 200 -73 200 -190h-125c0 46 -26 82 -75 82c-54 0 -79 -37 -79 -88v-97h143v-103h-143v-131c0 -26 -7 -62 -37 -69v-2h151c55 0 76 26 76 80h119z" />
    <glyph glyph-name="Euro" unicode="&#x20ac;" horiz-adv-x="549" 
d="M504 173c0 -61 -38 -105 -86 -138c26 -31 40 -65 40 -110c0 -48 -18 -86 -46 -114c-34 -35 -86 -55 -142 -55c-104 0 -190 66 -190 180h109c0 -46 29 -82 80 -82c46 0 77 26 77 69c0 28 -15 48 -35 66l-195 167c-41 35 -66 83 -66 137c0 61 39 104 87 137
c-26 31 -41 66 -41 111c0 48 19 85 47 113c34 35 86 56 142 56c104 0 190 -67 190 -181h-110c0 46 -28 83 -79 83c-46 0 -77 -26 -77 -69c0 -28 14 -48 34 -66l195 -167c41 -35 66 -83 66 -137zM394 165c0 23 -10 47 -28 63l-160 139c-23 -16 -45 -39 -45 -66
c0 -23 9 -47 27 -63l161 -139c23 16 45 39 45 66z" />
    <glyph glyph-name="yen" unicode="&#xa5;" horiz-adv-x="432" 
d="M357 292c0 -78 -63 -141 -141 -141s-141 63 -141 141s63 141 141 141s141 -63 141 -141z" />
    <glyph glyph-name="Scaron" unicode="&#x160;" horiz-adv-x="673" 
d="M613 612h-68v-737h-100v737h-97v-737h-99v436c-110 0 -199 89 -199 199s89 199 199 199h364v-97z" />
    <glyph glyph-name="section" unicode="&#xa7;" horiz-adv-x="609" 
d="M584 211c0 -128 -85 -221 -216 -221c-30 0 -65 3 -94 10v109c21 -4 46 -6 67 -6c74 0 117 50 117 121c0 88 -56 123 -136 123h-21v104h21c54 0 87 32 87 84c0 54 -35 89 -89 89c-74 0 -99 -50 -99 -120v-504h-123v417h-83v103h85c2 134 95 212 222 212
c121 0 213 -73 213 -186c0 -60 -35 -124 -95 -142c93 -21 144 -101 144 -193z" />
    <glyph glyph-name="scaron" unicode="&#x161;" horiz-adv-x="838" 
d="M789 354c0 -215 -156 -368 -370 -368c-215 0 -370 153 -370 368c0 213 158 368 370 368s370 -156 370 -368zM695 354c0 162 -112 282 -276 282s-276 -120 -276 -282c0 -163 111 -282 276 -282c163 0 276 121 276 282zM571 178h-97l-49 120h-47v-120h-93v365h145
c77 0 138 -42 138 -124c0 -42 -17 -83 -57 -103zM474 422c0 26 -20 38 -44 38h-53v-79h53c26 0 44 14 44 41z" />
    <glyph glyph-name="copyright" unicode="&#xa9;" horiz-adv-x="838" 
d="M789 354c0 -215 -156 -368 -370 -368c-215 0 -370 153 -370 368c0 213 158 368 370 368s370 -156 370 -368zM696 354c0 162 -113 282 -277 282s-276 -120 -276 -282c0 -163 111 -282 276 -282c163 0 277 121 277 282zM597 301c-10 -85 -77 -148 -173 -148
c-119 0 -188 91 -188 199s69 198 188 198c96 0 163 -63 173 -148h-102c-5 30 -31 57 -71 57c-59 0 -85 -53 -85 -107c0 -62 29 -108 85 -108c40 0 66 27 71 57h102z" />
    <glyph glyph-name="ordfeminine" unicode="&#xaa;" horiz-adv-x="857" 
d="M797 328h-95v256l-78 -246h-73l-78 245v-255h-95v381h135l77 -241l76 241h131v-381zM326 624h-110v-296h-96v296h-110v85h316v-85z" />
    <glyph glyph-name="guillemotleft" unicode="&#xab;" horiz-adv-x="255" 
d="M247 678l-200 -112l-40 65l184 138z" />
    <glyph glyph-name="logicalnot" unicode="&#xac;" horiz-adv-x="323" 
d="M323 601h-117v121h117v-121zM117 601h-117v121h117v-121z" />
    <glyph glyph-name="uni00AD" unicode="&#xad;" horiz-adv-x="690" 
d="M600 129h-339l-101 -131l-58 44l67 87h-79v99h155l77 100h-232v98h308l97 126l57 -45l-62 -81h110v-98h-186l-77 -100h263v-99z" />
    <glyph glyph-name="registered" unicode="&#xae;" horiz-adv-x="957" 
d="M917 0h-462v179h-237l-77 -179h-141l323 709h594v-120h-333v-160h285v-120h-285v-189h333v-120zM455 298v291h-55l-128 -291h183z" />
    <glyph glyph-name="macron" unicode="&#xaf;" horiz-adv-x="672" 
d="M630 354c0 -116 -13 -210 -90 -287c-54 -54 -128 -80 -204 -80c-43 0 -85 8 -124 25l-40 -84l-67 30l43 94c-6 5 -11 10 -16 15c-77 77 -90 171 -90 287s13 211 90 288c54 54 128 80 204 80c40 0 79 -7 115 -22l33 70l67 -30l-35 -76c8 -7 16 -14 24 -22
c77 -77 90 -172 90 -288zM499 354c0 59 -1 138 -39 190l-197 -422c23 -12 48 -18 73 -18c41 0 84 17 112 47c49 51 51 138 51 203zM400 591c-20 9 -42 14 -64 14c-41 0 -84 -17 -112 -47c-49 -51 -51 -139 -51 -204c0 -56 2 -127 33 -179z" />
    <glyph glyph-name="degree" unicode="&#xb0;" horiz-adv-x="719" 
d="M663 0h-350c-125 0 -230 63 -230 199c0 64 43 140 103 165c-56 33 -90 89 -90 154c0 130 107 192 226 192c33 0 67 -2 99 -10v-108c-30 6 -60 10 -91 10c-56 0 -110 -27 -110 -90c0 -65 47 -94 107 -94h116v104h117v-104h103v-106h-103v-206h103v-106zM443 106v206h-121
c-67 0 -116 -38 -116 -106s47 -100 111 -100h126z" />
    <glyph glyph-name="plusminus" unicode="&#xb1;" horiz-adv-x="608" 
d="M558 322h-198v-160h-113v160h-197v105h197v160h113v-160h198v-105zM558 0h-508v106h508v-106z" />
    <glyph glyph-name="uni00B2" unicode="&#xb2;" horiz-adv-x="797" 
d="M752 275h-540l204 -204l-70 -70l-321 323l321 323l70 -69l-204 -205h540v-98z" />
    <glyph glyph-name="uni00B3" unicode="&#xb3;" horiz-adv-x="797" 
d="M772 323l-321 -323l-70 70l204 204h-540v98h540l-204 205l70 69z" />
    <glyph glyph-name="Zcaron" unicode="&#x17d;" horiz-adv-x="569" 
d="M569 695l-165 -297h114v-73h-170v-90h170v-73h-170v-162h-128v162h-159v73h159v90h-159v73h104l-165 297h139l149 -271l144 271h137z" />
    <glyph glyph-name="uni00B5" unicode="&#xb5;" horiz-adv-x="598" 
d="M520 0h-104l-10 70c-25 -51 -82 -83 -148 -83c-20 0 -39 2 -56 11v-200h-124v375v112v235h124v-235v-86c0 -61 25 -99 91 -99c29 0 49 11 64 26c30 28 38 75 38 117v277h125v-520z" />
    <glyph glyph-name="paragraph" unicode="&#xb6;" 
d="M239 109v438l-153 -111v136l171 123h107v-586h139v-109h-403v109h139z" />
    <glyph glyph-name="periodcentered" unicode="&#xb7;" horiz-adv-x="953" 
d="M895 -99h-837v248h84v-162h670v162h83v-248z" />
    <glyph glyph-name="zcaron" unicode="&#x17e;" horiz-adv-x="932" 
d="M172 897l-107 -107v28l79 79h28zM372 897l-307 -307v27l280 280h27zM773 897l-708 -708v27l681 681h27zM572 897l-507 -508v28l480 480h27zM867 790l-802 -801v27l802 802v-28zM867 590l-802 -802v28l802 801v-27zM867 -212l-82 -81h-27l109 109v-28zM867 389l-683 -682
h-27l710 710v-28zM867 -11l-282 -282h-27l309 309v-27zM867 189l-482 -482h-28l510 509v-27z" />
    <glyph glyph-name="uni00B9" unicode="&#xb9;" horiz-adv-x="636" 
d="M581 1c-24 -4 -42 -8 -67 -8c-96 0 -143 51 -143 145v266h-121v-406h-124v406h-76v101h520v-101h-75v-248c0 -34 12 -50 47 -50c11 0 32 2 39 2v-107z" />
    <glyph glyph-name="ordmasculine" unicode="&#xba;" horiz-adv-x="630" 
d="M590 232l-69 -70l-382 382v-288h-99v453h457v-96h-289z" />
    <glyph glyph-name="guillemotright" unicode="&#xbb;" horiz-adv-x="475" 
d="M425 309c-16 -7 -24 -11 -47 -11c-41 0 -64 26 -67 56c-18 -32 -64 -59 -120 -59c-94 0 -141 60 -141 125c0 75 57 116 132 122l116 9v24c0 37 -12 62 -66 62c-44 0 -69 -20 -71 -56h-92c6 89 75 129 163 129c68 0 125 -22 147 -81c10 -25 11 -53 11 -80v-148
c0 -18 7 -24 23 -24c6 0 12 2 12 2v-70zM298 462v18l-99 -8c-29 -2 -56 -19 -56 -51c0 -30 25 -50 55 -50c60 0 100 33 100 91z" />
    <glyph glyph-name="OE" unicode="&#x152;" horiz-adv-x="475" 
d="M419 501c0 -58 -13 -107 -43 -144c-27 -33 -78 -63 -138 -63s-112 30 -139 63c-30 37 -43 86 -43 144s14 110 44 147c27 33 78 61 138 61s110 -28 137 -61c30 -37 44 -89 44 -147zM323 501c0 37 -3 76 -26 101c-13 14 -33 25 -59 25s-47 -11 -60 -25
c-23 -25 -25 -64 -25 -101s2 -75 25 -100c13 -14 34 -25 60 -25s46 11 59 25c23 25 26 63 26 100z" />
    <glyph glyph-name="oe" unicode="&#x153;" horiz-adv-x="838" 
d="M788 354c0 -215 -155 -367 -369 -367c-215 0 -369 152 -369 367c0 213 157 368 369 368s369 -156 369 -368zM695 354c0 162 -112 282 -276 282s-275 -120 -275 -282c0 -163 110 -281 275 -281c163 0 276 120 276 281zM590 408c0 -96 -59 -142 -151 -142h-51v-104h-100
v386h151c85 0 151 -51 151 -140zM493 408c0 34 -21 52 -54 52h-52v-106h52c36 0 54 18 54 54z" />
    <glyph glyph-name="Ydieresis" unicode="&#x178;" horiz-adv-x="860" 
d="M821 219h-344c3 -72 32 -135 113 -135c51 0 84 22 101 70h121c-4 -32 -23 -69 -43 -93c-43 -52 -109 -74 -175 -74c-94 0 -165 44 -191 101c-28 -53 -82 -101 -182 -101c-92 0 -186 53 -186 162c0 103 81 152 176 160c47 4 140 2 140 2v45c0 56 -25 79 -81 79
c-55 0 -88 -23 -92 -71h-121c7 117 97 169 213 169c67 0 119 -19 158 -61c33 37 85 61 160 61c77 0 144 -30 188 -95c38 -56 45 -126 45 -191v-28zM695 311c-1 69 -31 123 -108 123c-75 0 -109 -55 -111 -123h219zM351 219c-40 0 -81 1 -121 -2c-41 -3 -73 -22 -73 -64
c0 -41 35 -63 73 -63c82 0 121 58 121 129z" />
    <glyph glyph-name="questiondown" unicode="&#xbf;" 
d="M528 260c0 -88 -22 -143 -61 -192c-36 -44 -103 -81 -182 -81c-31 0 -61 5 -87 15l-35 -77l-63 28l37 82c-13 10 -25 21 -34 33c-39 49 -61 104 -61 192s22 143 61 192c36 44 103 81 182 81c26 0 51 -4 74 -11l29 62l63 -28l-29 -64c18 -12 33 -25 45 -40
c39 -49 61 -104 61 -192zM401 260c0 45 -6 90 -29 122l-127 -279c12 -5 25 -7 40 -7c34 0 62 15 79 33c30 33 37 82 37 131zM313 421c-9 2 -18 3 -28 3c-34 0 -62 -15 -79 -33c-30 -33 -37 -82 -37 -131c0 -39 4 -78 21 -109z" />
    <glyph glyph-name="Agrave" unicode="&#xc0;" horiz-adv-x="522" 
d="M334 364h-139v140h139v-140zM490 -8c0 -140 -107 -213 -240 -213c-131 0 -222 86 -222 196c0 70 33 120 79 159c52 44 95 65 95 140v28h124c0 -29 1 -68 -5 -97c-19 -88 -77 -114 -124 -157c-19 -17 -39 -40 -39 -72c0 -44 34 -84 97 -84s106 35 106 100h129z" />
    <glyph glyph-name="Aacute" unicode="&#xc1;" horiz-adv-x="332" 
d="M215 370h-132v135h132v-135zM214 -204h-131v222l28 275h75l28 -275v-222z" />
    <glyph glyph-name="Acircumflex" unicode="&#xc2;" horiz-adv-x="665" 
d="M585 84h-122v167h-408v113h529z" />
    <glyph glyph-name="Atilde" unicode="&#xc3;" horiz-adv-x="697" 
d="M707 728h-113l-254 -736h-106l-189 528h133l109 -321l211 633h209v-104z" />
    <glyph glyph-name="Adieresis" unicode="&#xc4;" horiz-adv-x="532" 
d="M499 608c-14 3 -28 6 -43 6c-55 0 -81 -18 -94 -72c-7 -30 -12 -61 -17 -91h130v-112h-155l-62 -310c-19 -93 -78 -151 -175 -151c-28 0 -56 4 -83 12v106c18 -4 37 -6 55 -6c55 0 74 25 84 76l55 273h-94v112h117l24 119c18 92 84 155 180 155c26 0 52 -4 78 -8v-109z
" />
    <glyph glyph-name="Aring" unicode="&#xc5;" horiz-adv-x="640" 
d="M580 377c-47 -50 -94 -97 -166 -97c-38 0 -73 15 -104 30l-45 20s-27 10 -40 10c-39 0 -69 -31 -94 -57l-71 84c47 50 94 97 166 97c37 0 71 -15 102 -29c16 -7 31 -14 45 -19s28 -9 41 -9c39 0 67 28 93 55zM580 157c-47 -50 -94 -96 -166 -96c-38 0 -73 14 -104 29
c-16 7 -31 15 -45 21s-27 9 -40 9c-39 0 -69 -30 -94 -56l-71 84c47 50 94 96 166 96c37 0 71 -14 102 -28c16 -7 31 -15 45 -20s28 -9 41 -9c39 0 67 28 93 55z" />
    <glyph glyph-name="AE" unicode="&#xc6;" horiz-adv-x="650" 
d="M585 256h-99v288l-382 -382l-69 70l382 381h-289v96h457v-453z" />
    <glyph glyph-name="Ccedilla" unicode="&#xc7;" horiz-adv-x="587" 
d="M532 105l-73 -51l-173 244l173 247l73 -52l-114 -194zM291 105l-73 -51l-173 244l173 247l73 -52l-114 -194z" />
    <glyph glyph-name="Egrave" unicode="&#xc8;" horiz-adv-x="587" 
d="M542 298l-173 -244l-73 51l114 194l-114 194l73 52zM301 298l-173 -244l-73 51l114 194l-114 194l73 52z" />
    <glyph glyph-name="Eacute" unicode="&#xc9;" horiz-adv-x="999" 
d="M907 0h-145v146h145v-146zM572 0h-145v146h145v-146zM237 0h-145v146h145v-146z" />
    <glyph glyph-name="Edieresis" unicode="&#xcb;" horiz-adv-x="639" 
d="M386 764l-200 112l56 91l184 -138zM639 0h-135l-46 136h-282l-46 -136h-130l249 709h141zM418 252l-101 299l-101 -299h202z" />
    <glyph glyph-name="Igrave" unicode="&#xcc;" horiz-adv-x="639" 
d="M480 828c-30 -29 -68 -56 -112 -56c-53 0 -85 38 -118 38c-24 0 -46 -14 -62 -31l-49 61c30 29 67 56 112 56c52 0 82 -40 118 -40c21 0 47 19 61 33zM639 0h-135l-46 136h-282l-46 -136h-130l249 709h141zM418 252l-101 299l-101 -299h202z" />
    <glyph glyph-name="Iacute" unicode="&#xcd;" horiz-adv-x="672" 
d="M630 354c0 -116 -13 -210 -90 -287c-54 -54 -128 -80 -204 -80s-150 26 -204 80c-77 77 -90 171 -90 287s13 211 90 288c54 54 128 80 204 80s150 -26 204 -80c77 -77 90 -172 90 -288zM499 354c0 65 -2 153 -51 204c-28 30 -71 47 -112 47s-84 -17 -112 -47
c-49 -51 -51 -139 -51 -204s2 -152 51 -203c28 -30 71 -47 112 -47s84 17 112 47c49 51 51 138 51 203zM507 834c-29 -29 -68 -56 -112 -56c-53 0 -85 38 -118 38c-23 0 -46 -15 -61 -31l-50 61c30 29 67 56 112 56c52 0 82 -39 118 -39c21 0 47 18 62 32z" />
    <glyph glyph-name="Icircumflex" unicode="&#xce;" horiz-adv-x="1030" 
d="M990 0h-505v36c-37 -28 -98 -49 -157 -49c-83 0 -156 30 -205 80c-75 77 -81 186 -81 288s6 210 81 287c49 50 122 80 205 80c59 0 124 -22 157 -49v36h505v-117h-376v-165h331v-116h-331v-194h376v-117zM483 355c0 68 4 157 -49 209c-25 25 -62 41 -106 41
s-81 -16 -106 -41c-53 -52 -49 -141 -49 -209s-4 -158 49 -210c25 -25 62 -41 106 -41s81 16 106 41c53 52 49 142 49 210z" />
    <glyph glyph-name="Idieresis" unicode="&#xcf;" horiz-adv-x="904" 
d="M865 256c0 0 -1 -24 -1 -35h-344c-1 -40 13 -82 38 -106c18 -17 39 -31 73 -31c36 0 59 9 77 27c11 11 20 26 25 45h120c-3 -31 -24 -72 -44 -96c-44 -52 -108 -73 -174 -73c-71 0 -122 25 -163 64c-4 4 -9 8 -13 13c-36 -42 -101 -77 -178 -77c-79 0 -146 38 -182 82
c-39 49 -57 114 -57 190s19 144 58 193c36 44 102 81 181 81c77 0 141 -34 177 -76l9 9c39 40 94 67 165 67c77 0 146 -32 189 -97c38 -57 46 -115 44 -180zM740 312c-1 39 -11 70 -31 92c-17 18 -42 30 -78 30c-38 0 -68 -16 -86 -40c-18 -23 -25 -48 -26 -82h221zM393 259
c0 49 -4 100 -34 133c-17 18 -44 33 -78 33s-61 -15 -78 -33c-30 -33 -34 -84 -34 -133s4 -99 34 -132c17 -18 44 -33 78 -33s61 15 78 33c30 33 34 83 34 132z" />
    <glyph glyph-name="Eth" unicode="&#xd0;" horiz-adv-x="659" 
d="M599 252h-539v112h539v-112z" />
    <glyph glyph-name="Ntilde" unicode="&#xd1;" horiz-adv-x="1149" 
d="M1089 252h-1029v111h1029v-111z" />
    <glyph glyph-name="Ograve" unicode="&#xd2;" horiz-adv-x="483" 
d="M419 413h-144v135c0 81 23 136 106 171l32 -58c-52 -25 -65 -52 -65 -102h71v-146zM207 413h-143v135c0 81 21 136 104 171l32 -58c-52 -25 -65 -52 -65 -102h72v-146z" />
    <glyph glyph-name="Oacute" unicode="&#xd3;" horiz-adv-x="463" 
d="M409 574c0 -81 -21 -136 -104 -171l-32 58c52 25 65 52 65 102h-72v146h143v-135zM198 574c0 -81 -23 -136 -106 -171l-32 58c52 25 65 52 65 102h-71v146h144v-135z" />
    <glyph glyph-name="Ocircumflex" unicode="&#xd4;" horiz-adv-x="267" 
d="M205 414h-144v135c0 81 22 136 105 171l32 -58c-52 -25 -64 -52 -64 -102h71v-146z" />
    <glyph glyph-name="Otilde" unicode="&#xd5;" horiz-adv-x="247" 
d="M196 573c0 -81 -22 -136 -105 -171l-33 58c52 25 65 52 65 102h-72v147h145v-136z" />
    <glyph glyph-name="Odieresis" unicode="&#xd6;" horiz-adv-x="648" 
d="M394 436h-137v139h137v-139zM588 243h-528v114h528v-114zM394 30h-137v139h137v-139z" />
    <glyph glyph-name="multiply" unicode="&#xd7;" 
d="M530 348c0 -114 -11 -230 -83 -299c-36 -35 -87 -62 -162 -62s-126 27 -162 62c-72 69 -83 185 -83 299s11 230 83 299c36 35 87 62 162 62s126 -27 162 -62c72 -69 83 -185 83 -299zM385 536c-17 36 -47 63 -100 63c-132 0 -121 -162 -121 -251c0 -20 -1 -43 0 -68z
M406 348c0 22 1 47 0 74l-222 -260c17 -38 46 -65 101 -65c132 0 121 162 121 251z" />
    <glyph glyph-name="Oslash" unicode="&#xd8;" horiz-adv-x="530" 
d="M530 520l-229 -609c-26 -68 -69 -130 -160 -130c-41 0 -69 6 -96 13v104c33 -6 42 -9 70 -9c23 0 47 8 60 39l30 73l-205 519h137l136 -376l130 376h127zM434 601h-117v121h117v-121zM228 601h-117v121h117v-121z" />
    <glyph glyph-name="Ugrave" unicode="&#xd9;" horiz-adv-x="624" 
d="M624 709l-248 -437v-272h-130v272l-246 437h140l175 -306l175 306h134zM477 779h-117v121h117v-121zM271 779h-117v121h117v-121z" />
    <glyph glyph-name="Uacute" unicode="&#xda;" horiz-adv-x="587" 
d="M584 670l-507 -690l-74 56l505 687z" />
    <glyph glyph-name="Ucircumflex" unicode="&#xdb;" horiz-adv-x="621" 
d="M606 54c-56 -42 -114 -67 -200 -67c-84 0 -155 29 -208 82c-50 50 -74 108 -85 169h-78v73h70c-1 12 -1 25 -1 37c0 11 1 23 1 34h-70v73h77c11 62 35 121 86 172c53 53 124 82 208 82c86 0 144 -25 200 -67l-47 -101c-51 39 -94 55 -153 55c-48 0 -90 -15 -123 -50
c-24 -26 -37 -57 -44 -91h281l-35 -73h-254v-35v-36h234l-35 -73h-191c7 -33 21 -63 44 -88c33 -35 75 -50 123 -50c59 0 117 26 153 55z" />
    <glyph glyph-name="Udieresis" unicode="&#xdc;" horiz-adv-x="336" 
d="M286 105l-73 -51l-173 244l173 247l73 -52l-114 -194z" />
    <glyph glyph-name="Yacute" unicode="&#xdd;" horiz-adv-x="336" 
d="M296 298l-173 -244l-73 51l114 194l-114 194l73 52z" />
    <glyph glyph-name="Thorn" unicode="&#xde;" horiz-adv-x="659" 
d="M583 590h-134v131h134v-131zM580 0h-127v520h127v-520zM379 623c-26 5 -49 8 -82 8c-45 0 -68 -26 -68 -63v-48h139v-103h-139v-417h-125v417h-88v103h88v50c0 96 65 164 177 164c36 0 59 -3 98 -11v-100z" />
    <glyph glyph-name="germandbls" unicode="&#xdf;" horiz-adv-x="673" 
d="M643 1c-25 -5 -30 -7 -55 -7c-85 0 -142 41 -142 140v589h126v-568c0 -30 7 -50 50 -50c11 0 14 1 21 1v-105zM379 623c-26 5 -49 8 -82 8c-45 0 -68 -26 -68 -63v-48h139v-103h-139v-417h-125v417h-88v103h88v50c0 96 65 164 177 164c36 0 59 -3 98 -11v-100z" />
    <glyph glyph-name="agrave" unicode="&#xe0;" horiz-adv-x="562" 
d="M522 64h-184v-189h-114v189h-184v105h184v246h-184v105h184v189h114v-189h184v-105h-184v-246h184v-105z" />
    <glyph glyph-name="aacute" unicode="&#xe1;" horiz-adv-x="315" 
d="M224 215h-152v156h152v-156z" />
    <glyph glyph-name="acircumflex" unicode="&#xe2;" horiz-adv-x="287" 
d="M217 11c0 -83 -22 -139 -107 -174l-33 59c53 25 66 53 66 104h-73v150h147v-139z" />
    <glyph glyph-name="atilde" unicode="&#xe3;" horiz-adv-x="504" 
d="M434 11c0 -83 -22 -139 -107 -174l-33 59c53 25 66 53 66 104h-73v150h147v-139zM217 11c0 -83 -22 -139 -107 -174l-33 59c53 25 66 53 66 104h-73v150h147v-139z" />
    <glyph glyph-name="adieresis" unicode="&#xe4;" horiz-adv-x="1165" 
d="M1147 172c0 -42 -7 -81 -30 -114c-29 -43 -72 -69 -134 -69c-61 0 -104 26 -134 69c-23 33 -29 72 -29 114c0 41 6 81 29 114c30 42 73 68 134 68c62 0 105 -26 134 -68c23 -33 30 -73 30 -114zM782 172c0 -42 -7 -81 -30 -114c-29 -43 -72 -69 -134 -69
c-61 0 -104 26 -134 69c-23 33 -29 72 -29 114c0 41 6 81 29 114c30 42 73 68 134 68c62 0 105 -26 134 -68c23 -33 30 -73 30 -114zM702 670l-507 -690l-74 56l505 687zM372 537c0 -41 -7 -81 -30 -114c-29 -42 -72 -69 -134 -69c-61 0 -104 27 -134 69
c-23 33 -29 73 -29 114s6 81 29 114c30 42 73 68 134 68c62 0 105 -26 134 -68c23 -33 30 -73 30 -114zM1053 172c0 51 -11 100 -70 100s-69 -49 -69 -100c0 -52 10 -101 69 -101s70 49 70 101zM688 172c0 51 -10 100 -70 100c-59 0 -69 -49 -69 -100c0 -52 10 -101 69 -101
c60 0 70 49 70 101zM278 537c0 51 -10 101 -70 101c-59 0 -69 -50 -69 -101c0 -52 10 -101 69 -101c60 0 70 49 70 101z" />
    <glyph glyph-name="aring" unicode="&#xe5;" horiz-adv-x="639" 
d="M639 0h-135l-46 136h-282l-46 -136h-130l249 709h141zM418 252l-101 299l-101 -299h202zM476 830l-61 -55l-103 113l-105 -116l-64 58l138 145h61z" />
    <glyph glyph-name="ae" unicode="&#xe6;" horiz-adv-x="628" 
d="M588 0h-505v709h505v-117h-376v-165h331v-116h-331v-194h376v-117zM498 830l-61 -55l-103 113l-105 -116l-64 58l138 145h61z" />
    <glyph glyph-name="ccedilla" unicode="&#xe7;" horiz-adv-x="639" 
d="M639 0h-135l-46 136h-282l-46 -136h-130l249 709h141zM418 252l-101 299l-101 -299h202zM428 876l-200 -112l-40 65l184 138z" />
    <glyph glyph-name="egrave" unicode="&#xe8;" horiz-adv-x="628" 
d="M588 0h-505v709h505v-117h-376v-165h331v-116h-331v-194h376v-117zM509 791h-117v121h117v-121zM303 791h-117v121h117v-121z" />
    <glyph glyph-name="eacute" unicode="&#xe9;" horiz-adv-x="628" 
d="M588 0h-505v709h505v-117h-376v-165h331v-116h-331v-194h376v-117zM445 830l-40 -65l-200 112l56 91z" />
    <glyph glyph-name="ecircumflex" unicode="&#xea;" horiz-adv-x="297" 
d="M214 0h-131v709h131v-709zM269 881l-200 -112l-40 65l184 138z" />
    <glyph glyph-name="edieresis" unicode="&#xeb;" horiz-adv-x="297" 
d="M214 0h-131v709h131v-709zM314 830l-61 -55l-103 113l-105 -116l-64 58l138 145h61z" />
    <glyph glyph-name="igrave" unicode="&#xec;" horiz-adv-x="297" 
d="M214 0h-131v709h131v-709zM311 791h-117v121h117v-121zM105 791h-117v121h117v-121z" />
    <glyph glyph-name="iacute" unicode="&#xed;" horiz-adv-x="297" 
d="M214 0h-131v709h131v-709zM265 835l-40 -65l-200 112l56 91z" />
    <glyph glyph-name="icircumflex" unicode="&#xee;" horiz-adv-x="672" 
d="M630 354c0 -116 -13 -210 -90 -287c-54 -54 -128 -80 -204 -80s-150 26 -204 80c-77 77 -90 171 -90 287s13 211 90 288c54 54 128 80 204 80s150 -26 204 -80c77 -77 90 -172 90 -288zM499 354c0 65 -2 153 -51 204c-28 30 -71 47 -112 47s-84 -17 -112 -47
c-49 -51 -51 -139 -51 -204s2 -152 51 -203c28 -30 71 -47 112 -47s84 17 112 47c49 51 51 138 51 203zM445 876l-200 -112l-40 65l184 138z" />
    <glyph glyph-name="idieresis" unicode="&#xef;" horiz-adv-x="672" 
d="M630 354c0 -116 -13 -210 -90 -287c-54 -54 -128 -80 -204 -80s-150 26 -204 80c-77 77 -90 171 -90 287s13 211 90 288c54 54 128 80 204 80s150 -26 204 -80c77 -77 90 -172 90 -288zM499 354c0 65 -2 153 -51 204c-28 30 -71 47 -112 47s-84 -17 -112 -47
c-49 -51 -51 -139 -51 -204s2 -152 51 -203c28 -30 71 -47 112 -47s84 17 112 47c49 51 51 138 51 203zM504 830l-61 -55l-103 113l-105 -116l-64 58l138 145h61z" />
    <glyph glyph-name="eth" unicode="&#xf0;" horiz-adv-x="588" 
d="M539 364c0 -54 -39 -94 -93 -94h-72c11 -15 17 -35 17 -54c0 -54 -39 -93 -93 -93h-249v248c0 54 39 94 93 94c20 0 39 -6 55 -17v71c0 54 39 94 93 94s93 -40 93 -94v-62h63c54 0 93 -40 93 -93zM522 364c0 45 -31 76 -76 76h-79v79c0 45 -32 77 -77 77s-76 -32 -76 -77
v-232h232c45 0 76 32 76 77z" />
    <glyph glyph-name="ntilde" unicode="&#xf1;" horiz-adv-x="672" 
d="M630 354c0 -116 -13 -210 -90 -287c-54 -54 -128 -80 -204 -80s-150 26 -204 80c-77 77 -90 171 -90 287s13 211 90 288c54 54 128 80 204 80s150 -26 204 -80c77 -77 90 -172 90 -288zM499 354c0 65 -2 153 -51 204c-28 30 -71 47 -112 47s-84 -17 -112 -47
c-49 -51 -51 -139 -51 -204s2 -152 51 -203c28 -30 71 -47 112 -47s84 17 112 47c49 51 51 138 51 203zM451 830l-40 -65l-200 112l56 91z" />
    <glyph glyph-name="ograve" unicode="&#xf2;" horiz-adv-x="682" 
d="M619 272c0 -169 -95 -285 -278 -285s-278 116 -278 285v437h129v-435c0 -101 46 -170 149 -170s149 69 149 170v435h129v-437zM471 881l-200 -112l-40 65l184 138z" />
    <glyph glyph-name="oacute" unicode="&#xf3;" horiz-adv-x="682" 
d="M619 272c0 -169 -95 -285 -278 -285s-278 116 -278 285v437h129v-435c0 -101 46 -170 149 -170s149 69 149 170v435h129v-437zM509 830l-61 -55l-103 113l-105 -116l-64 58l138 145h61z" />
    <glyph glyph-name="ocircumflex" unicode="&#xf4;" horiz-adv-x="682" 
d="M619 272c0 -169 -95 -285 -278 -285s-278 116 -278 285v437h129v-435c0 -101 46 -170 149 -170s149 69 149 170v435h129v-437zM448 835l-40 -65l-200 112l56 91z" />
    <glyph glyph-name="otilde" unicode="&#xf5;" horiz-adv-x="286" 
d="M207 0h-127v520h127v-520z" />
    <glyph glyph-name="odieresis" unicode="&#xf6;" horiz-adv-x="365" 
d="M349 629l-61 -55l-103 113l-105 -116l-64 58l138 145h61z" />
    <glyph glyph-name="divide" unicode="&#xf7;" horiz-adv-x="382" 
d="M369 672c-30 -31 -70 -60 -115 -60c-54 0 -87 41 -121 41c-24 0 -48 -16 -63 -33l-51 64c31 31 69 60 115 60c54 0 84 -42 121 -42c22 0 48 19 63 34z" />
    <glyph glyph-name="oslash" unicode="&#xf8;" horiz-adv-x="305" 
d="M305 631h-300v100h300v-100z" />
    <glyph glyph-name="ugrave" unicode="&#xf9;" horiz-adv-x="350" 
d="M346 767c-8 -103 -62 -175 -169 -175s-160 72 -168 175h94c7 -59 29 -84 74 -84s68 25 75 84h94z" />
    <glyph glyph-name="uacute" unicode="&#xfa;" horiz-adv-x="265" 
d="M201 592h-133v128h133v-128z" />
    <glyph glyph-name="ucircumflex" unicode="&#xfb;" horiz-adv-x="248" 
d="M248 710c0 -68 -54 -122 -122 -122s-122 54 -122 122s54 121 122 121s122 -53 122 -121zM179 710c0 29 -24 52 -53 52s-52 -23 -52 -52s23 -53 52 -53s53 24 53 53z" />
    <glyph glyph-name="udieresis" unicode="&#xfc;" horiz-adv-x="198" 
d="M189 -31l-76 -199l-104 49l83 150h97z" />
    <glyph glyph-name="yacute" unicode="&#xfd;" horiz-adv-x="510" 
d="M504 725l-202 -117l-42 65l185 144zM249 725l-202 -117l-42 65l185 144z" />
    <glyph glyph-name="thorn" unicode="&#xfe;" horiz-adv-x="198" 
d="M194 -185l-110 -52l-80 210h102z" />
    <glyph glyph-name="ydieresis" unicode="&#xff;" horiz-adv-x="358" 
d="M348 924l-140 -148h-63l-136 148l62 56l105 -115l107 118z" />
    <glyph glyph-name="currency" unicode="&#xa4;" horiz-adv-x="571" 
d="M564 64l-86 -84l-70 76c-40 -23 -78 -33 -121 -33s-82 10 -123 33l-69 -76l-87 84l79 67c-24 42 -36 82 -36 123s12 81 36 123l-79 63l88 87l67 -75c41 23 82 32 124 32c43 0 80 -9 121 -32l69 75l87 -87l-78 -63c24 -42 36 -82 36 -123s-12 -82 -36 -123zM410 254
c0 71 -47 126 -123 126c-84 0 -125 -52 -125 -126c0 -67 46 -127 125 -127c80 0 123 54 123 127z" />
    <glyph glyph-name="nbspace" unicode="&#xa0;" horiz-adv-x="209" 
 />
  </font>
</defs>
</svg>
