<?xml version="1.0" standalone="no"?>
<!DOCTYPE svg PUBLIC "-//W3C//DTD SVG 1.1//EN" "http://www.w3.org/Graphics/SVG/1.1/DTD/svg11.dtd" >
<svg xmlns="http://www.w3.org/2000/svg">
<metadata></metadata>
<defs>
<font id="MinionProRegular" horiz-adv-x="983" >
<font-face units-per-em="2048" ascent="1489" descent="-559" />
<missing-glyph horiz-adv-x="464" />
<glyph unicode="&#xfb01;" horiz-adv-x="1095" d="M51 834l58 59h98v47q0 81 22 160q45 148 168 248q123 96 256 110q82 -3 138 -33.5t79 -64.5q24 -36 11 -74q-6 -11 -16.5 -23.5t-26.5 -25.5t-31 -12.5t-31 14.5q-103 121 -213 121q-82 0 -127 -74q-67 -91 -67 -323v-70h161q261 0 385 27v-715q0 -52 3.5 -76.5t20 -42 t42 -23t78.5 -10.5v-53h-434v53q87 9 108 33.5t21 118.5v500q0 71 -17 88.5t-90 17.5h-278v-606q0 -95 23 -119t120 -33v-53h-451v53q54 6 78.5 11.5t42 22.5t21.5 42t4 76v606h-148z" />
<glyph unicode="&#xfb02;" horiz-adv-x="1091" d="M55 834l56 59h96v35q0 110 26 186q37 135 166 238q108 87 240 106q97 0 168 -47q15 4 29 10t36 18t27 15l16 -10v-1239q0 -51 4 -76t21.5 -42.5t43 -23t79.5 -10.5v-53h-442v53q48 4 71.5 9.5t39 23t19 43t3.5 76.5v1067q-26 41 -77.5 67.5t-105.5 26.5q-83 0 -139 -74 q-63 -85 -63 -293v-106h237q10 -13 4.5 -42.5t-22.5 -39.5h-219v-606q0 -95 21.5 -119t115.5 -33v-53h-443v53q53 6 77.5 11.5t42 22.5t21 42t3.5 76v606h-144z" />
<glyph unicode="&#xfb03;" horiz-adv-x="1634" d="M53 834l53 59h97v41q0 70 22 147q40 133 174 236q119 89 254 102q89 -3 150 -33.5t90 -74.5q46 46 100.5 80t105.5 50.5t97 18.5q45 -1 83.5 -11.5t65.5 -27t43.5 -30.5t28.5 -29q19 -26 15 -51t-16.5 -42.5t-33.5 -31.5q-39 -25 -67 6q-1 1 -14.5 16t-17 18.5l-17 17 t-20.5 18.5t-21 15.5t-25 15t-26 10.5t-30 8t-32 2q-83 0 -137 -76q-64 -86 -64 -313v-82h164q255 0 383 27v-715q0 -96 21.5 -119.5t119.5 -32.5v-53h-432v53q31 3 49 6t34.5 10t23.5 16t13 26.5t7.5 38.5t1.5 55v500q0 20 -0.5 31t-2 24t-4 19t-8 13t-12.5 10t-18.5 5.5 t-25 3t-33.5 0.5h-281v-606q0 -34 1 -54.5t7 -38.5t14 -26.5t25 -16t37 -10.5t54 -6v-53h-431v53q25 2 40 4.5t30.5 6.5t23.5 8.5t16 13t11.5 18t6.5 25.5t3.5 33t0.5 43v606h-385v-600q0 -36 1 -57t7 -40t13.5 -28t25 -16.5t37 -11t53.5 -7.5v-51h-434v53q26 3 41 4.5t31 6 t24 8.5t16.5 13t12 19t6.5 27t3.5 35.5t0.5 46.5v598h-144zM365 893h385v53q0 74 18 148q18 66 43 106q-35 56 -93 94.5t-134 38.5q-102 0 -158 -90q-27 -42 -44 -117t-17 -178v-55z" />
<glyph unicode="&#xfb04;" horiz-adv-x="1640" d="M57 834l54 59h96v37q0 71 24 145q41 132 166 230q124 97 265 108q149 -5 237 -98q60 60 133.5 98t145.5 45q110 0 180 -51q6 2 86 49l18 -12v-1241q0 -95 23 -118t123 -32v-53h-437v53q48 4 70.5 9t37.5 22.5t18 42.5t3 76v1069q-26 42 -74 69t-104 27q-91 0 -143 -70 q-64 -83 -64 -313v-92h240q10 -13 4.5 -42.5t-22.5 -39.5h-219l-3 -606q0 -96 21.5 -119.5t116.5 -32.5v-53h-432v53q90 9 111.5 33t21.5 119v606h-385v-600q0 -53 3.5 -79.5t20 -44t39 -23t72.5 -11.5v-53h-434v53q34 3 52.5 6t36.5 10.5t25.5 16.5t13.5 27t7.5 40t1.5 58 v600h-144zM369 893h385v39q0 98 12.5 146t50.5 126q-32 51 -91.5 86t-133.5 35q-109 0 -166 -90q-57 -96 -57 -291v-51z" />
<glyph horiz-adv-x="0" />
<glyph horiz-adv-x="2048" />
<glyph unicode=" "  horiz-adv-x="464" />
<glyph unicode="&#x09;" horiz-adv-x="464" />
<glyph unicode="&#xa0;" horiz-adv-x="464" />
<glyph unicode="!" horiz-adv-x="565" d="M166 96q0 51 33 85t82 34q51 0 83.5 -34t32.5 -85q0 -55 -32 -88t-84 -33h-2q-48 0 -80.5 33.5t-32.5 87.5zM168 1300q0 33 27 47.5t84 14.5h2q55 0 80.5 -14.5t25.5 -47.5q0 -46 -14 -161q-24 -206 -60 -736q-7 -11 -35 -11t-34 11q-5 62 -17 235t-21.5 283.5 t-21.5 217.5q-16 131 -16 161z" />
<glyph unicode="&#x22;" horiz-adv-x="651" d="M86 1399l158 55l12 -10q-2 -13 -23 -195t-30 -254l-58 -24q-14 132 -33 268t-26 160zM391 1399l158 55l12 -10q-2 -15 -12 -105t-22 -190t-19 -154l-57 -24q-45 375 -60 428z" />
<glyph unicode="#" d="M49 412l23 118h202l60 277h-191l19 119h198l70 319h78l-70 -319h221l68 319h80l-68 -319h179l-19 -119h-186l-62 -277h176l-18 -118h-184l-78 -357h-78l76 357h-221l-78 -357h-78l78 357h-197zM354 530h219l62 277h-221z" />
<glyph unicode="$" d="M92 371l62 16q85 -274 315 -301v496l-74 30q-258 110 -258 316q0 126 87 218.5t245 110.5v162h72v-157q99 0 182 -27q13 -3 35.5 -8.5t34.5 -7.5q5 -38 20 -121t23 -133l-58 -15q-12 42 -22.5 69.5t-29.5 60.5t-42 53.5t-59.5 38t-83.5 24.5v-455l59 -22 q128 -45 208.5 -128.5t80.5 -211.5q0 -146 -92.5 -241t-255.5 -115v-179h-72v174q-189 0 -319 84q-24 75 -58 269zM279 989q0 -78 48.5 -130.5t141.5 -88.5v426q-92 -8 -141 -68t-49 -139zM541 88q91 12 142.5 72.5t51.5 146.5q0 81 -36 138.5t-134 101.5l-24 10v-469z" />
<glyph unicode="%" horiz-adv-x="1548" d="M100 928q0 65 17.5 128.5t51.5 119t93 90t133 34.5h2q74 0 133 -34.5t93 -90t51.5 -119t17.5 -128.5q0 -64 -17.5 -127.5t-52 -119t-93.5 -90t-134 -34.5q-60 0 -110 23t-83.5 60.5t-57 86.5t-34 99.5t-10.5 101.5zM250 928q0 -47 6 -93.5t20.5 -99t45.5 -85t75 -32.5 q45 0 76.5 33t45.5 86.5t19 98.5t5 92q0 48 -5 93.5t-19 99t-45.5 86t-76.5 32.5h-2q-43 0 -74 -32.5t-45 -84.5t-20 -99.5t-6 -94.5zM326 -18l823 1353l68 -47l-828 -1354zM862 348q0 65 18 128.5t52.5 119t93.5 89.5t133 34h2q59 0 109 -22.5t83 -60t56.5 -86.5t34 -100 t10.5 -102t-10.5 -102t-34 -100t-57 -87t-83.5 -61t-110 -23q-74 0 -133 35t-93.5 90.5t-52.5 119.5t-18 128zM1012 348q0 -46 6 -93t21 -99.5t46.5 -85.5t75.5 -33q36 0 63 23.5t42 57t24 78.5t12 81t3 71q0 37 -3 73t-12 81t-24 78t-42 56t-63 23h-2q-43 0 -74 -32 t-46 -83.5t-21 -99.5t-6 -96z" />
<glyph unicode="&#x26;" horiz-adv-x="1456" d="M111 342q0 64 19 116t60.5 97t83.5 78.5t111 82.5q22 15 33 23q-148 138 -148 285q0 135 99.5 229.5t236.5 94.5q126 0 214.5 -81t88.5 -202q0 -106 -86 -180q-82 -69 -166 -125q190 -159 344 -318q63 98 123 236q31 72 7 99t-132 40v57h469v-57q-53 -6 -86.5 -15 t-61 -31t-43 -41.5t-46.5 -65.5q-32 -46 -93 -141t-85 -132q82 -80 187 -204.5t146 -204.5l-14 -19q-79 7 -154 34t-96 50q-90 105 -178 195q-107 -144 -211.5 -207.5t-218.5 -63.5q-93 0 -171 33t-127.5 86t-77 118.5t-27.5 133.5zM285 401q0 -71 25 -128t66.5 -91.5 t90.5 -52.5t100 -18h2q96 0 184 54t144 132q-167 185 -426 397q-186 -132 -186 -293zM418 1073q0 -76 44 -136.5t142 -135.5q76 57 114 119.5t38 142.5q0 89 -48 152t-122 63h-2q-72 0 -119 -57t-47 -148z" />
<glyph unicode="'" horiz-adv-x="346" d="M86 1399l158 55l12 -10q-2 -16 -23 -196t-30 -253l-58 -24q-14 133 -33 268t-26 160z" />
<glyph unicode="(" horiz-adv-x="708" d="M143 553v2q0 284 108.5 516.5t326.5 382.5l36 -49q-152 -127 -236.5 -355.5t-84.5 -496.5q0 -267 85 -496.5t236 -357.5l-36 -47q-218 147 -326.5 380.5t-108.5 520.5z" />
<glyph unicode=")" horiz-adv-x="708" d="M92 -301q154 127 239 356t85 498q0 267 -86 497.5t-238 354.5l39 49q220 -150 326 -381.5t106 -519.5v-2q0 -288 -105.5 -517.5t-326.5 -381.5z" />
<glyph unicode="*" horiz-adv-x="827" d="M82 1212l31 43l247 -163l119 270l49 -12l-55 -285l272 -4v-51l-270 -52l80 -282l-47 -19l-143 267l-250 -158l-29 45l209 193z" />
<glyph unicode="+" horiz-adv-x="1187" d="M106 471v102h431v424h118v-424h428v-102h-428v-471h-118v471h-431z" />
<glyph unicode="," horiz-adv-x="466" d="M90 -180q158 65 158 174q0 53 -35.5 88t-91.5 49q-9 0 -18 13.5t-9 35.5q0 37 30.5 61.5t68.5 24.5h2q64 0 125 -62t61 -159q0 -57 -23.5 -105.5t-63.5 -83t-84.5 -57.5t-96.5 -39z" />
<glyph unicode="-" horiz-adv-x="729" d="M117 406l28 112h469l-28 -112h-469z" />
<glyph unicode="." horiz-adv-x="466" d="M119 94q0 50 32.5 83.5t81.5 33.5t82 -33.5t33 -83.5q0 -53 -32.5 -86t-82.5 -33h-2q-48 0 -80 33t-32 86z" />
<glyph unicode="/" horiz-adv-x="677" d="M51 -90l443 1452h116l-444 -1452h-115z" />
<glyph unicode="0" d="M72 639q0 94 13.5 184t45.5 177.5t79 153t120 106t162 40.5h2q88 0 159.5 -39t118 -103t77.5 -150.5t44.5 -178.5t13.5 -190q0 -77 -9.5 -153t-29.5 -151.5t-53.5 -139.5t-78 -114t-107.5 -78t-137 -28q-90 0 -162 38t-119.5 102t-79.5 150.5t-45.5 179.5t-13.5 194z M254 641q0 -114 12.5 -214.5t38.5 -189t74 -140.5t113 -52q66 0 113.5 51.5t72.5 140.5t36 187.5t11 214.5q0 117 -11.5 217t-37 188t-73.5 138.5t-114 50.5h-2q-66 0 -113.5 -50.5t-72.5 -139t-36 -187.5t-11 -215z" />
<glyph unicode="1" d="M223 0v55q50 4 79 7.5t53.5 12.5t35.5 18.5t18.5 31.5t9 44.5t1.5 63.5v789q0 78 -15.5 97t-82.5 22l-99 4v49q179 32 365 106v-1067q0 -41 1.5 -63.5t9 -44.5t18.5 -31.5t35.5 -18.5t54 -12.5t79.5 -7.5v-55h-563z" />
<glyph unicode="2" d="M66 0v47q229 229 329 348q59 71 95.5 120.5t78 116.5t62 131.5t20.5 127.5q0 129 -63 200.5t-176 71.5q-155 0 -281 -190l-45 41l117 166q111 120 276 120q91 0 168.5 -41t126.5 -121t49 -184q0 -127 -60 -233t-210 -266l-289 -305h381q61 0 89.5 7.5t53.5 35.5t56 94 l57 -19q-16 -51 -42 -151.5t-30 -116.5h-763z" />
<glyph unicode="3" d="M94 119q2 32 47 67q26 20 49 0q117 -104 254 -104q112 0 180 82t68 229q0 67 -24 120t-62.5 83t-83 45.5t-90.5 15.5q-58 0 -131 -22l-12 59q75 25 130 50.5t101.5 60t70 80t23.5 100.5q0 92 -54.5 142.5t-139.5 50.5q-137 0 -246 -162l-41 41l88 129q46 50 114 82 t146 32h2q135 0 219 -76.5t84 -193.5q0 -85 -63 -145q-45 -48 -139 -111v-4q133 -26 208.5 -111t75.5 -200q0 -79 -29.5 -150.5t-77 -123t-106 -93t-119.5 -66.5t-113.5 -38t-90.5 -13q-63 0 -121 23t-84 47q-39 36 -33 74z" />
<glyph unicode="4" d="M41 365v57q376 558 614 872h82v-833h197v-96h-197v-148q0 -38 1 -58t7.5 -40.5t15.5 -28.5t31.5 -16.5t48 -11.5t70.5 -7v-55h-524v55q49 4 76 7t50.5 11.5t33.5 16.5t17 28.5t8 40t1 58.5v148h-532zM168 461h405v604h-4q-216 -300 -401 -604z" />
<glyph unicode="5" d="M135 47q-75 69 10 137q30 20 54 -2q124 -102 254 -102q122 0 190 89t68 214q0 140 -85.5 224.5t-248.5 84.5q-107 0 -209 -41l78 625h585l13 -16l-53 -134h-478l-53 -381q161 64 227 64q95 0 172 -30t125 -80t73.5 -111.5t25.5 -126.5q0 -191 -183 -340 q-82 -67 -177.5 -105.5t-176.5 -40.5q-65 0 -125.5 23.5t-85.5 48.5z" />
<glyph unicode="6" d="M76 487q0 129 34.5 243.5t88.5 195.5t126 147.5t140.5 106.5t138.5 65q130 46 262 68l13 -66q-117 -21 -222 -71q-43 -20 -82 -44.5t-86.5 -66t-85.5 -90.5t-71.5 -120t-50.5 -153l137 68q79 35 129 35q162 0 265 -109t103 -270q0 -122 -52.5 -224.5t-149.5 -164.5 t-217 -62q-183 0 -301.5 140t-118.5 372zM258 492q0 -124 32 -225t94 -161.5t144 -60.5q57 0 100 28t66 74.5t34 98t11 106.5q0 89 -28.5 164t-92 124.5t-151.5 49.5h-2q-99 0 -195 -55q-12 -47 -12 -143z" />
<glyph unicode="7" d="M96 971q22 141 37 305h782l17 -25q-102 -218 -294.5 -637.5t-285.5 -617.5l-151 -21l-15 23q351 569 609 1128h-443q-36 0 -58 -1.5t-42 -9t-30.5 -15.5t-23 -28.5t-20.5 -41t-22 -59.5h-60z" />
<glyph unicode="8" d="M92 322q0 106 92 194q60 56 183 131q-224 128 -224 318q0 134 103 234.5t262 100.5h2q144 0 238 -87.5t94 -215.5q0 -92 -58 -163q-50 -56 -163 -132q60 -34 103 -65.5t84 -74.5t62 -97.5t21 -118.5q0 -86 -38.5 -158.5t-99.5 -117.5t-131 -70t-137 -25 q-170 0 -281.5 93.5t-111.5 253.5zM256 334q0 -136 73 -214.5t177 -78.5h2q95 0 157 68t62 184q0 55 -23.5 102t-70.5 86.5t-94 68.5t-117 64q-76 -51 -121 -124.5t-45 -155.5zM297 1024q0 -44 15 -82t36.5 -65t61 -55t71 -45.5t84.5 -43.5q125 98 125 254 q0 121 -60.5 184.5t-140.5 63.5h-2q-86 0 -138 -63t-52 -148z" />
<glyph unicode="9" d="M78 864q0 76 29 152.5t81 140t133.5 103.5t176.5 40h2q123 0 215.5 -70t139 -184.5t46.5 -254.5q0 -273 -133.5 -470t-349.5 -286q-76 -31 -159 -48.5t-128 -17.5l-10 62q223 37 378.5 186t207.5 381l-140 -74q-58 -32 -123 -32q-162 0 -264 105t-102 267zM254 938 q0 -141 74.5 -236.5t199.5 -95.5q109 0 185 58q8 63 8 135q0 59 -7 115.5t-25 115.5t-45 103t-72.5 72t-102.5 28h-2q-56 0 -99 -28.5t-66.5 -74t-35.5 -94.5t-12 -98z" />
<glyph unicode=":" horiz-adv-x="466" d="M121 727q0 51 32.5 84t82.5 33h2q47 0 78.5 -33t31.5 -84q0 -53 -31.5 -86t-80.5 -33q-50 0 -82.5 33.5t-32.5 85.5zM123 94q0 49 33 83t80 34q49 0 81.5 -33.5t32.5 -83.5q0 -53 -32 -86t-82 -33h-3q-47 0 -78.5 33t-31.5 86z" />
<glyph unicode=";" horiz-adv-x="466" d="M92 -180q156 65 156 174q0 53 -35.5 88.5t-91.5 48.5q-10 2 -18.5 14.5t-8.5 34.5q0 38 30 62t69 24h2q64 0 125 -62t61 -159q0 -57 -23.5 -106t-63.5 -83.5t-84 -58t-95 -39.5zM119 727q0 51 31.5 84t80.5 33h2q48 0 80.5 -33t32.5 -84q0 -52 -32.5 -85.5t-82.5 -33.5 q-49 0 -80.5 33t-31.5 86z" />
<glyph unicode="&#x3c;" horiz-adv-x="1130" d="M123 471v96l885 471v-114l-764 -404v-4l764 -401v-115z" />
<glyph unicode="=" horiz-adv-x="1187" d="M106 283v102h977v-102h-977zM106 657v103h977v-103h-977z" />
<glyph unicode="&#x3e;" horiz-adv-x="1130" d="M123 0v115l766 401v4l-766 404v114l885 -471v-96z" />
<glyph unicode="?" horiz-adv-x="776" d="M119 1210q0 32 29.5 62.5t69.5 49t76 29.5t54 11h2q128 0 229 -101t101 -227q0 -54 -22.5 -95.5t-75.5 -84.5q-13 -11 -62 -47t-80 -61.5t-59.5 -64.5t-28.5 -73q0 -49 23 -85.5t74 -80.5l-37 -47q-73 27 -150.5 105t-77.5 162q0 53 38.5 104.5t133.5 124.5q3 2 34 25 t40.5 30.5t36 29.5t37.5 35.5t27 33t22 37.5t6 36q0 54 -33 83.5t-90 29.5q-44 0 -87 -17.5t-69.5 -38t-48 -38t-28.5 -17.5q-23 0 -53.5 28t-30.5 62zM266 94q0 49 33 83t80 34t80 -34t33 -83q0 -53 -32.5 -86t-80.5 -33h-2q-47 0 -79 33t-32 86z" />
<glyph unicode="@" horiz-adv-x="1542" d="M106 426q1 140 44.5 262.5t118.5 212.5t174 155t212.5 97.5t231.5 32.5q134 0 244 -42.5t181 -115.5t109.5 -168t38.5 -201q0 -138 -63 -254.5t-174.5 -184.5t-245.5 -68q-52 0 -76 19t-23.5 51t7.5 75l22 119l-4 2q-57 -84 -169.5 -175t-178.5 -91q-40 0 -69 44t-29 128 q0 95 40.5 200t123.5 185q159 148 329 151q28 0 87 -12t85 -12q-48 -192 -98 -465q-15 -82 -7 -108.5t46 -24.5q54 2 106 29.5t95.5 78t70.5 132.5t27 181q0 208 -134.5 327.5t-350.5 119.5q-188 0 -334.5 -85.5t-225.5 -235.5t-79 -339q0 -84 17.5 -161t59 -149.5t103 -125 t157 -84.5t213.5 -32q84 0 182.5 25.5t145.5 51.5l23 -57q-192 -113 -418 -113q-98 0 -188 24.5t-168 76t-135.5 124.5t-90.5 175.5t-33 224.5zM612 375q0 -92 43 -92q33 0 110 64.5t161 180.5q31 105 51 228q-50 22 -111 22h-2q-75 0 -133 -61q-47 -53 -83 -150.5 t-36 -191.5z" />
<glyph unicode="A" horiz-adv-x="1415" d="M41 0v57q55 8 82 15t54.5 30t46.5 60t46 108l424 1073l64 19q42 -115 181 -504t214 -592q25 -69 42.5 -105.5t44.5 -59.5t55 -30.5t83 -13.5v-57h-501v57q97 13 119 33q11 11 11 31t-10 49q-21 62 -112 315h-436q-65 -182 -91 -262q-14 -42 -18 -66.5t-0.5 -43.5t23 -29 t47 -16t77.5 -11v-57h-446zM479 573h377l-180 523h-4q-36 -94 -100.5 -271.5t-92.5 -251.5z" />
<glyph unicode="B" horiz-adv-x="1204" d="M74 0v57q49 3 75.5 6t51 12.5t34 19.5t17.5 34t9 50t1 73v827q0 48 -1 73t-7.5 50t-15.5 34.5t-31 19t-47 12.5t-70 6v57h526q211 0 308 -69q53 -36 83.5 -99.5t30.5 -134.5q0 -56 -18.5 -103.5t-46 -79.5t-66 -58t-73 -40.5t-72.5 -25.5v-4q360 -55 360 -326 q0 -83 -32.5 -149.5t-88 -111t-132.5 -74.5t-162.5 -43t-180.5 -13h-452zM436 256q0 -110 35 -148q34 -38 130 -38h5q64 0 119.5 17.5t100.5 52t70.5 94t25.5 137.5q0 301 -394 301h-92v-416zM436 741h96q164 0 241 66t77 197q0 114 -67 188t-205 74q-84 0 -115 -21 q-15 -9 -21 -30.5t-6 -71.5v-402z" />
<glyph unicode="C" horiz-adv-x="1361" d="M90 647q0 212 101.5 375.5t281 251.5t406.5 88q74 0 147 -10.5t141 -27t74 -17.5q34 -241 41 -310l-59 -14q-41 161 -137 233t-263 72q-124 0 -225.5 -50t-165.5 -134t-98.5 -191t-34.5 -225q0 -141 40.5 -262t111.5 -204.5t170.5 -131t214.5 -47.5q149 0 244.5 76.5 t176.5 238.5l60 -20q-69 -225 -117 -315q-2 0 -36.5 -7.5t-55 -12t-62.5 -12t-74 -11.5t-73 -7.5t-76 -3.5q-148 0 -271.5 39.5t-207.5 105.5t-142.5 154t-85 183.5t-26.5 195.5z" />
<glyph unicode="D" horiz-adv-x="1505" d="M70 0v55q49 3 76 6.5t51.5 12.5t35 19.5t18.5 34.5t9.5 51t1.5 75v823q0 48 -1.5 75.5t-9 51t-16.5 34t-32.5 19t-46.5 11.5t-68 6v57h574q397 0 577 -174q81 -77 127.5 -189t46.5 -251q0 -355 -252 -547q-220 -170 -608 -170h-483zM436 268q0 -113 49.5 -153.5 t167.5 -40.5q138 0 247 49.5t176 135t101.5 194.5t34.5 235q0 164 -60.5 293t-180.5 199q-136 84 -348 84q-126 0 -160 -27q-14 -10 -20.5 -34.5t-6.5 -82.5v-852z" />
<glyph unicode="E" horiz-adv-x="1163" d="M59 0v57q51 4 80 7.5t54.5 13t37 20.5t20 35t10 50.5t1.5 72.5v815q0 49 -1.5 77.5t-9.5 53t-16.5 35.5t-32.5 20t-47 12t-69 7v55h913q0 -22 3 -69.5t7.5 -118t6.5 -107.5l-60 -8q-22 106 -65 174q-22 34 -72 47t-160 13h-155q-47 0 -57.5 -10.5t-10.5 -55.5v-467h193 q50 0 79.5 1.5t54.5 8.5t37 15t22.5 29t15.5 40.5t12 59.5h59v-391h-59q-8 40 -13 62t-16.5 42.5t-23 28.5t-37 15t-53 8t-76.5 1h-195v-387q0 -58 9.5 -94t21.5 -56.5t48.5 -29.5t66 -10.5t98.5 -1.5h6h5.5h6.5q116 0 170 14.5t88 54.5q59 69 103 193l59 -8 q-35 -197 -71 -324h-988z" />
<glyph unicode="F" horiz-adv-x="1083" d="M82 0v57q46 3 71 6.5t48 12.5t33 20t17.5 35t9 51.5t1.5 75.5v817q0 41 -2 66.5t-4.5 48.5t-12.5 35t-19.5 21.5t-32 14t-43.5 7.5t-60 6v57h901q2 -65 21 -301l-60 -6q-26 114 -57 164q-27 44 -73 59t-161 15h-155q-46 0 -57 -11t-11 -55v-487h211q59 0 92.5 4 t57.5 10.5t36.5 27t19 42t15.5 67.5h60v-395h-60q-7 41 -12 61.5t-15.5 43t-22.5 31t-36.5 16.5t-55 10t-79.5 2h-211v-371q0 -48 1.5 -75.5t10.5 -52t19.5 -35t37 -19.5t54.5 -12.5t80 -6.5v-57h-557z" />
<glyph unicode="G" horiz-adv-x="1464" d="M90 657q0 138 43 254.5t117 198.5t173.5 139.5t213 85t235.5 27.5q35 0 71.5 -2t71.5 -7l63 -9t61 -11t50 -11t45.5 -11t33.5 -8q13 -156 30 -320l-57 -12q-18 92 -54.5 156t-90 98.5t-115 49.5t-139.5 15q-239 0 -391 -165t-152 -443q0 -91 21 -180.5t66.5 -173.5 t110.5 -147t161 -101.5t210 -38.5q111 0 179 35q34 19 49.5 47t15.5 88v174q0 41 -1.5 63t-10 44t-19.5 31t-38.5 17.5t-58.5 12.5t-87 8v57h520v-57q-92 -12 -111.5 -34.5t-19.5 -112.5v-176q0 -128 14 -195l-65 -15t-75.5 -17.5t-73 -15t-83 -14t-78 -8.5t-83.5 -4 q-337 0 -544.5 190.5t-207.5 497.5z" />
<glyph unicode="H" horiz-adv-x="1568" d="M78 1274v57h530v-57q-43 -3 -67 -6.5t-46.5 -12t-31.5 -19.5t-16.5 -34t-9 -50t-1.5 -73v-331h699v331q0 46 -1.5 73t-9.5 50t-17 33.5t-32.5 19.5t-47.5 12t-69 7v57h535v-57q-47 -4 -72.5 -7t-49.5 -12t-33.5 -19.5t-17.5 -34t-9.5 -50t-1.5 -72.5v-827q0 -47 1.5 -74 t9.5 -50t17.5 -33.5t33.5 -19.5t48.5 -12t71.5 -6v-57h-549v57q50 3 76 6t51.5 12t35.5 19.5t18.5 33.5t10 50t1.5 74v407h-699v-407q0 -46 1.5 -73t9.5 -50t18 -34t34 -19.5t49.5 -12t72.5 -6.5v-57h-539v57q46 3 70.5 6t48.5 12t33 19.5t17 33.5t9.5 50t1.5 74v827 q0 47 -1.5 73.5t-9.5 50t-17.5 34t-33.5 19.5t-49.5 12t-72.5 6z" />
<glyph unicode="I" horiz-adv-x="698" d="M78 0v57q47 3 72.5 6.5t49.5 12.5t33.5 19.5t17.5 34.5t9.5 51.5t1.5 74.5v819q0 47 -1.5 74.5t-9.5 51.5t-17.5 34.5t-33.5 19.5t-49.5 12.5t-72.5 6.5v57h543v-57q-47 -3 -72.5 -6.5t-49.5 -12.5t-34 -19.5t-18 -34.5t-9.5 -51.5t-1.5 -74.5v-819q0 -48 1.5 -75.5 t9.5 -51.5t18 -34.5t34 -19.5t49.5 -12t72.5 -6v-57h-543z" />
<glyph unicode="J" horiz-adv-x="673" d="M55 -281q160 79 197 269q20 122 20 389v698q0 70 -4 103t-25.5 56t-53 29t-99.5 11v57h531v-57q-65 -5 -95 -11t-51 -29t-25 -56.5t-4 -102.5v-766q0 -200 -38 -318t-138 -210q-103 -93 -190 -119z" />
<glyph unicode="K" horiz-adv-x="1378" d="M84 1274v57h528v-57q-44 -3 -68.5 -6.5t-47.5 -13t-33 -21t-17.5 -36t-9.5 -54t-2 -78.5v-358q59 13 144 92q213 205 342 364q42 49 42 71q0 4 -1 6q-6 22 -74 28l-47 6v57h491v-57q-117 -11 -176.5 -38.5t-155.5 -115.5q-81 -73 -362 -358q189 -239 481 -557 q79 -85 125.5 -112t122.5 -36v-57h-313q-121 135 -508 596q-35 39 -58.5 49.5t-52.5 5.5v-387q0 -49 1.5 -77.5t10 -53t19 -36t34.5 -21t50.5 -13t73.5 -6.5v-57h-533v57q43 3 67 6.5t46.5 13t31.5 21t16.5 36t9 53t1.5 77.5v801q0 51 -1.5 80t-9.5 54t-17 36t-32.5 20.5 t-47.5 12.5t-70 6z" />
<glyph unicode="L" horiz-adv-x="1101" d="M74 0v57q48 3 74.5 6.5t50.5 12.5t34 20t18 35.5t9.5 51.5t1.5 75v819q0 48 -1 74.5t-8.5 51t-17 34.5t-33 19t-48.5 12t-72 6v57h534v-57q-46 -3 -70 -6t-48 -12t-33.5 -19.5t-17.5 -34t-9.5 -51t-1.5 -74.5v-809q0 -84 10 -120.5t37 -51.5q46 -26 197 -26 q92 0 144 12.5t85 50.5q61 68 105 201l61 -12q-36 -189 -74 -322h-927z" />
<glyph unicode="M" horiz-adv-x="1824" d="M53 0v57q92 9 128 34t46 89q24 144 39 375l29 426q5 75 7 113v19q0 29 -4 57q-6 37 -14.5 51t-34.5 27.5t-52 17t-80 8.5v57h336l465 -1026l475 1026h348v-57q-32 -3 -49.5 -4.5t-39.5 -5.5t-32.5 -7t-24.5 -11t-18.5 -15t-12 -21t-9 -28t-3.5 -36.5t-1.5 -46t1.5 -57.5 l21 -741q2 -63 3.5 -93.5t9.5 -62.5t17 -43t33.5 -23.5t50.5 -16t76 -7.5v-55h-540v55q28 3 46 5t36.5 6.5t29 7.5t22 12t16.5 16t11 23.5t7.5 29.5t3.5 39t2 48v59l-8 836h-7l-499 -1125h-43l-459 1096h-4l-29 -584q-7 -150 -7 -266q0 -39 1 -74q3 -70 41 -93t147 -34v-57 h-477z" />
<glyph unicode="N" horiz-adv-x="1521" d="M41 1274v57h301l856 -1026h6v502q0 240 -14 340q-7 68 -50 94.5t-151 32.5v57h484v-57q-89 -5 -128 -31t-45 -90q-12 -95 -12 -346v-825h-63l-873 1073h-4v-514q0 -228 12 -346q7 -76 48.5 -104t148.5 -34v-57h-485v57q92 6 132.5 33.5t47.5 99.5q12 126 12 351v450 q0 110 -6 139.5t-35 67.5q-32 38 -70.5 54t-111.5 22z" />
<glyph unicode="O" horiz-adv-x="1529" d="M90 651q0 111 30 215.5t89 194t140.5 157t192 106t236.5 38.5h2q129 0 249 -49.5t211 -136t145.5 -215.5t54.5 -279q0 -162 -54 -297.5t-147 -225.5t-217.5 -140t-265.5 -50q-184 0 -336 87.5t-241 244t-89 350.5zM299 709q0 -190 64.5 -342.5t178.5 -238t257 -85.5 q87 0 164 36.5t137.5 107t95.5 184t35 256.5q0 158 -39.5 285t-107.5 208t-156.5 124.5t-190.5 43.5h-2q-87 0 -164.5 -37t-138.5 -107.5t-97 -182.5t-36 -252z" />
<glyph unicode="P" horiz-adv-x="1153" d="M82 0v57q67 5 98.5 11.5t52.5 29.5t25 56t4 102v819q0 49 -1.5 77t-9 52t-16 34.5t-31 19t-44.5 11t-66 5.5v57h506q229 0 346 -84q131 -100 131 -289q0 -96 -33.5 -173.5t-91 -127t-127 -79t-147.5 -39.5q-28 -4 -55 -4l-37 2l-152 38v-321q0 -47 1.5 -74.5t10.5 -51 t19.5 -34t37.5 -19.5t54.5 -12t79.5 -6v-57h-555zM434 643q68 -25 150 -25q43 0 82.5 9t79.5 33t69 60.5t47.5 95.5t18.5 134q0 157 -87.5 236.5t-222.5 79.5q-89 0 -114 -25q-23 -17 -23 -96v-502z" />
<glyph unicode="Q" horiz-adv-x="1525" d="M90 645q0 143 48 272t135 228.5t220 158t293 58.5q129 0 247.5 -49.5t208.5 -137t144 -217.5t54 -280q0 -132 -38 -247.5t-104 -198.5t-148 -141t-175 -87q253 -175 500 -287l-17 -43h-22q-121 0 -240 31q-56 15 -178 81.5t-291 184.5q-104 5 -220 48.5t-206 130.5 q-96 90 -153.5 218.5t-57.5 276.5zM299 700q0 -257 115.5 -434.5t298.5 -214.5l139 45q9 -6 27.5 -19.5t27.5 -19.5q63 18 120 62t103.5 112t73.5 168t27 219q0 156 -37.5 283.5t-104 211.5t-156.5 129.5t-196 45.5q-87 0 -164.5 -37.5t-139 -109t-98 -185.5t-36.5 -256z " />
<glyph unicode="R" horiz-adv-x="1271" d="M78 0v57q47 3 72.5 6.5t49.5 12.5t33.5 19.5t17.5 34.5t9.5 51.5t1.5 74.5v821q0 48 -1.5 75t-9.5 50.5t-16.5 34t-32.5 19t-46.5 11.5t-69.5 7v57h508q223 0 326 -69q65 -41 101 -110t36 -159q0 -234 -260 -352q57 -107 168.5 -272t179.5 -236q64 -74 147 -96l-8 -53 q-157 0 -241 38t-162 150q-25 35 -55.5 82t-50.5 79t-55 90.5t-46 76.5q-28 45 -63.5 63.5t-110.5 18.5h-66v-326q0 -46 1.5 -73.5t9.5 -51.5t18 -35t33 -20t48 -12.5t70 -6.5v-57h-536zM434 647h98q151 0 222 60q112 85 112 254q0 80 -24.5 140t-67.5 94.5t-95 51.5 t-112 17q-82 0 -110 -21q-23 -14 -23 -90v-506z" />
<glyph unicode="S" horiz-adv-x="970" d="M84 360l61 15q10 -42 26 -83t44.5 -87.5t64 -81t88 -57.5t113.5 -23q116 0 181 66t65 180q0 44 -14 82.5t-34.5 66.5t-58 57.5t-71.5 49.5t-88 49q-124 68 -171 103q-167 124 -167 300q0 153 115 259t307 106q111 0 258 -47q1 -6 35 -283l-60 -10q-12 45 -24 78t-34 72 t-49 63t-68.5 40.5t-92.5 16.5q-111 0 -169 -65.5t-58 -157.5q0 -55 17 -98.5t53.5 -79.5t79.5 -63.5t110 -61.5q144 -75 203 -121q151 -117 151 -289q0 -164 -127 -275.5t-328 -111.5q-92 0 -200 31q-58 20 -103 43q-17 53 -55 317z" />
<glyph unicode="T" horiz-adv-x="1263" d="M57 1014q21 267 25 368h41q20 -33 43 -42t70 -9h808q40 0 59.5 10t43.5 41h43q4 -183 22 -362l-61 -6q-26 126 -64 184q-19 26 -39.5 38.5t-63.5 19t-120 6.5h-143v-1010q0 -44 2 -69.5t10 -49t20 -35t37.5 -21t57 -13.5t82.5 -7v-57h-586v57q50 3 80 7t55 13.5 t36.5 20.5t19.5 34.5t10 49.5t2 70v1010h-127q-123 0 -170 -13.5t-68 -50.5q-23 -32 -59 -163q-1 -5 -2 -7.5t-2 -6.5t-2 -7h-60z" />
<glyph unicode="U" horiz-adv-x="1507" d="M68 1274v57h528v-57q-45 -3 -69 -6t-47 -12t-32.5 -20t-17 -36t-9 -54t-1.5 -79v-465q0 -251 98 -385.5t287 -134.5q108 0 184.5 43t120 124t63 183.5t19.5 235.5v153q0 228 -14 338q-7 60 -48.5 83.5t-150.5 31.5v57h487v-57q-94 -6 -133 -32t-45 -89q-12 -110 -12 -334 v-166q0 -191 -35 -321t-119 -219q-70 -71 -166 -106.5t-202 -35.5q-200 0 -328 97q-92 71 -136 189.5t-44 299.5v510q0 37 -1 61.5t-5 46.5t-8 35t-15.5 24.5t-21.5 16.5t-32 10.5t-41 7.5t-54 5z" />
<glyph unicode="V" horiz-adv-x="1439" d="M35 1274v57h502v-57q-106 -10 -126 -32q-9 -9 -9 -27q0 -24 16 -62q109 -311 340 -895h4q245 620 323 862q17 50 17 80q0 22 -10 34q-22 26 -146 40v57h461v-57q-57 -7 -86.5 -14.5t-58 -32t-48.5 -61.5t-51 -109q-296 -725 -426 -1080h-63q-243 666 -424 1117 q-43 110 -81 140.5t-134 39.5z" />
<glyph unicode="W" horiz-adv-x="1988" d="M33 1274v57h497v-57q-110 -13 -129 -37q-8 -10 -8 -30q0 -27 15 -72q180 -619 249 -844h5q45 141 159 489t172 533h60q95 -278 358 -1024h4q67 213 138 464.5t94 356.5q12 46 12 77q1 31 -11 45q-24 30 -141 42v57h451v-57q-39 -5 -61.5 -9.5t-44.5 -14.5t-34.5 -21.5 t-27.5 -35.5t-25.5 -51t-27.5 -73q-122 -354 -338 -1092h-64q-50 146 -113.5 327t-137 390t-107.5 305h-4q-55 -172 -167.5 -510.5t-166.5 -511.5h-64q-80 273 -335 1096q-20 65 -35.5 100.5t-40.5 57.5t-52.5 29.5t-78.5 13.5z" />
<glyph unicode="X" horiz-adv-x="1339" d="M14 0v57q90 9 143.5 34.5t96.5 82.5q98 121 336 490q-64 101 -275 438q-67 102 -110.5 131t-151.5 41v57h504v-57q-89 -10 -106.5 -28.5t10.5 -57.5q75 -128 233 -373q137 211 203 332q26 46 26 72q0 12 -5 19q-17 24 -117 36v57h467v-57q-80 -8 -123 -22t-77.5 -43.5 t-82.5 -92.5q-95 -130 -248 -366q132 -210 322 -504q71 -108 123 -143.5t159 -45.5v-57h-538v57q94 10 113 30q7 8 7 20q0 20 -18 51q-166 273 -270 438q-141 -215 -250 -414q-26 -45 -26 -70q-1 -12 5 -20q18 -24 119 -35v-57h-469z" />
<glyph unicode="Y" horiz-adv-x="1298" d="M31 1274v57h489v-57q-55 -7 -84 -15t-37 -22.5t-3.5 -29.5t20.5 -44q61 -114 278 -485q189 345 242 461q24 50 24 78q0 14 -6 21q-19 24 -137 36v57h453v-57q-73 -8 -110.5 -23t-64.5 -43.5t-69 -95.5q-146 -238 -258 -448q-22 -40 -28.5 -64.5t-6.5 -64.5v-279 q0 -47 1.5 -74t10 -51t20 -35t37.5 -20t55 -12.5t81 -6.5v-57h-580v57q51 3 79.5 6.5t54 12.5t36.5 20t19.5 35t10 51t1.5 74v272q0 30 -8 52t-35 71q-3 5 -97.5 170.5t-160.5 278.5q-45 77 -70.5 108t-59 46t-97.5 20z" />
<glyph unicode="Z" horiz-adv-x="1234" d="M59 31q58 81 208.5 294t230 325.5t201 286.5t221.5 320h-355q-110 0 -166.5 -7.5t-80 -21.5t-42.5 -44q-37 -54 -71 -178l-60 2q20 257 25 374h49q18 -33 39 -42t70 -9h817l14 -28q-534 -755 -846 -1217q99 -12 334 -12q192 0 269 15t120 61q58 60 113 210l59 -12 q-50 -263 -73 -348h-1059z" />
<glyph unicode="[" horiz-adv-x="706" d="M246 -334v1774h348v-58q-62 -5 -93 -8.5t-60.5 -13t-40 -18t-19.5 -32.5t-9.5 -46.5t-0.5 -69.5v-1284q0 -47 0.5 -68.5t9.5 -46t19 -32.5t39.5 -18t61 -13t93.5 -8v-58h-348z" />
<glyph unicode="\" horiz-adv-x="681" d="M74 1362h114l424 -1452h-116z" />
<glyph unicode="]" horiz-adv-x="706" d="M115 -279q46 4 72.5 7t53.5 9t40 10t26.5 16.5t17.5 22t8 31.5t4.5 40.5t0.5 54.5v1284q0 47 -1 69t-9.5 46t-19 32.5t-40 18.5t-61 13.5t-92.5 8.5v56h348v-1774h-348v55z" />
<glyph unicode="^" horiz-adv-x="1159" d="M143 432l392 844h88l393 -844h-121l-317 709l-322 -709h-113z" />
<glyph unicode="_" horiz-adv-x="1024" d="M0 -154h1024v-102h-1024v102z" />
<glyph unicode="`" horiz-adv-x="819" d="M211 1317l6 16q15 8 72.5 19t79.5 8q70 -174 137 -344l-55 -29q-136 190 -240 330z" />
<glyph unicode="a" horiz-adv-x="899" d="M80 225q0 144 166 201q261 87 317 133v35q0 111 -46.5 171t-125.5 60q-59 0 -90 -39q-31 -31 -61 -133q-14 -47 -60 -47q-30 0 -59 26t-29 60q0 21 15.5 39t48.5 43q54 39 140 82.5t165 61.5q100 0 168 -56q51 -44 71.5 -104.5t20.5 -147.5v-379q0 -64 21 -93t51 -29 q33 0 73 24l21 -53l-174 -105q-23 0 -51 11.5t-46 27.5q-33 33 -49 92q-12 -8 -49 -33.5t-55.5 -37.5t-47.5 -29t-50.5 -24t-38.5 -7q-106 0 -176 75t-70 175zM254 254q0 -73 45.5 -114.5t99.5 -41.5q39 0 86.5 22t77.5 52v317q-6 -3 -184 -86q-65 -30 -95 -62.5t-30 -86.5z " />
<glyph unicode="b" horiz-adv-x="1040" d="M14 1337v49q161 20 297 72v-633l166 72q49 21 84 21q166 0 285 -125.5t119 -305.5q0 -145 -72 -264t-189 -183.5t-253 -64.5q-143 0 -301 74v1137q0 54 -2 77t-17 41.5t-39.5 23.5t-77.5 9zM311 238q0 -40 13 -72q13 -39 61 -76t119 -37q129 0 203.5 102t74.5 279 q0 169 -89.5 269t-221.5 100q-97 0 -160 -39v-526z" />
<glyph unicode="c" horiz-adv-x="866" d="M76 401q0 243 207 400q74 57 158 87t147 30h2q59 0 108 -16t76 -40q33 -24 33 -61q0 -30 -24.5 -59t-43.5 -29q-17 0 -39 22q-90 84 -206 84q-107 0 -179.5 -86.5t-72.5 -240.5q0 -81 21 -147.5t54 -108t75 -70t82 -40t77 -11.5q69 0 124.5 24t123.5 88l35 -43 q-70 -92 -164.5 -150.5t-182.5 -58.5q-124 0 -219.5 61.5t-143.5 157.5t-48 207z" />
<glyph unicode="d" horiz-adv-x="1081" d="M78 412q0 104 43 198t115 161.5t168.5 107t199.5 39.5q72 0 137 -25v293q0 38 -1 58t-7.5 38.5t-14 26t-29 14.5t-42.5 9t-63 5v52q167 19 319 69v-1222q0 -77 16 -98t74 -27l66 -7v-51q-201 -36 -318 -78v134l-125 -74q-105 -60 -159 -60q-63 0 -128.5 29t-122 82 t-92.5 138.5t-36 187.5zM262 467q0 -88 25.5 -159t66.5 -114.5t90.5 -66.5t100.5 -23q103 0 196 70v561q-35 51 -92.5 78t-118.5 27q-32 0 -65 -10t-70.5 -37t-66 -67t-47.5 -107.5t-19 -151.5z" />
<glyph unicode="e" horiz-adv-x="870" d="M76 412q0 103 35.5 195.5t99.5 160.5q64 70 143 110t156 40h2q125 0 216 -94.5t91 -215.5q0 -32 -9.5 -45.5t-37.5 -19.5q-31 -6 -200.5 -18t-335.5 -17q1 -100 28.5 -178.5t72.5 -123.5t97.5 -68t108.5 -23q124 0 235 102l31 -45q-86 -106 -178 -151.5t-156 -45.5 q-122 0 -214.5 61.5t-138.5 160t-46 215.5zM246 592q170 0 348 6q28 0 38.5 8.5t10.5 30.5v6q0 79 -48 138q-50 61 -132 61h-2q-72 0 -132.5 -66t-82.5 -184z" />
<glyph unicode="f" horiz-adv-x="606" d="M55 834l56 59h96v43q0 101 22 172q48 147 158 242q114 94 225 108q105 -3 162 -67q17 -20 17 -41q0 -3 -1 -6q-2 -24 -14 -42.5t-31 -33.5q-29 -23 -55 6q-76 76 -166 76q-69 0 -108 -60q-47 -72 -47 -288v-27v-82h241q10 -13 3.5 -42.5t-23.5 -39.5h-221v-588 q0 -41 1 -64t9 -43.5t16.5 -29t32.5 -16.5t47 -11t70 -8v-51h-484v53q99 9 122.5 34t23.5 124v600h-144z" />
<glyph unicode="g" horiz-adv-x="958" d="M59 -276q0 64 50 114q43 43 170 144q-101 32 -152 112q-24 38 -24 75q0 6 1 11q58 22 106 56.5t75 68.5q-76 32 -128.5 103.5t-52.5 169.5q0 83 34.5 150t90 107t118 61.5t124.5 21.5h2q97 0 197 -54q127 5 278 29l10 -16q-16 -29 -42.5 -60.5t-49.5 -42.5l-116 6 q61 -74 61 -182q0 -64 -20.5 -118t-55.5 -91.5t-81 -64.5t-97 -39.5t-104 -12.5q-44 0 -105 11q-22 -15 -41.5 -40.5t-19.5 -45.5q0 -32 32.5 -55t96.5 -23q39 0 111 1t106 1q54 0 100.5 -10t92.5 -35t73 -75t27 -122q0 -76 -42 -150.5t-110.5 -130t-163.5 -90t-194 -34.5 q-161 0 -258 77t-99 173zM221 -225q0 -84 78 -140.5t193 -56.5q141 0 217.5 63.5t76.5 163.5q0 54 -21.5 89.5t-64 53t-89.5 23.5t-115 6h-2q-128 0 -179 -43q-94 -80 -94 -159zM281 610q0 -120 53.5 -196t138.5 -76q72 2 121 64.5t49 177.5q0 121 -52.5 197.5t-139.5 76.5 h-2q-69 0 -118.5 -65.5t-49.5 -178.5z" />
<glyph unicode="h" horiz-adv-x="1093" d="M37 0l2 53q51 4 74.5 9.5t40.5 23t20.5 44.5t3.5 81v977q0 38 -0.5 55.5t-6 37t-12 26.5t-25 14.5t-38 10t-57.5 5.5v49q130 19 301 72v-690q150 150 293 150q130 0 206 -86.5t76 -262.5v-358q0 -43 3 -67.5t10 -43t24.5 -27t38.5 -13t60 -7.5v-53h-433v53 q91 9 113.5 34.5t22.5 123.5v338q0 252 -201 252q-122 0 -213 -105v-485q0 -99 20.5 -124t112.5 -34v-53h-436z" />
<glyph unicode="i" horiz-adv-x="548" d="M66 0v53q36 3 56 6.5t38 11t26 16.5t14 28.5t7.5 41.5t1.5 60v422q0 53 -2 75.5t-17 41t-37.5 24.5t-72.5 13v49q159 24 291 80v-705q0 -104 23 -129.5t122 -34.5v-53h-450zM174 1225q0 45 30.5 76.5t71.5 31.5h3q43 0 72.5 -31t29.5 -75q0 -42 -30.5 -73.5t-74.5 -31.5 q-40 0 -71 31.5t-31 71.5z" />
<glyph unicode="j" horiz-adv-x="524" d="M-53 -436q0 38 43 47q102 24 142 69t58 156q17 122 17 395v400q0 56 -2.5 81.5t-19 44.5t-39.5 24.5t-76 13.5v47q170 26 299 80v-695q0 -107 -9.5 -179t-37.5 -150q-48 -136 -123 -247.5t-125 -154.5q-27 -22 -54 -22q-22 0 -47.5 28t-25.5 62zM174 1227q0 45 30 75.5 t72 30.5h3q42 0 71 -30.5t29 -75.5q0 -42 -30.5 -73.5t-72.5 -31.5q-41 0 -71.5 31.5t-30.5 73.5z" />
<glyph unicode="k" horiz-adv-x="1015" d="M29 0v53q44 4 68.5 9.5t42.5 14t25 27.5t10 42.5t3 66.5v967q0 101 -20.5 125.5t-114.5 31.5v49q117 12 295 72v-964q79 15 129 69q60 60 145 180q25 35 25 54q-1 5 -3 11q-12 18 -83 26v53l418 18v-51q-105 -17 -154.5 -39.5t-109.5 -79.5q-70 -73 -177 -194 q38 -54 153.5 -189t166.5 -186q62 -62 101.5 -86t94.5 -27v-53l-270 -2q-43 46 -98.5 111.5t-130.5 157t-111 134.5q-38 43 -60 43h-3q-12 3 -33 -4v-227q0 -71 10.5 -100.5t38.5 -41.5t98 -18v-53h-456z" />
<glyph unicode="l" horiz-adv-x="518" d="M31 0v53q53 5 78 10.5t43 23.5t22 45t4 81v969q0 38 -1 59t-7.5 40t-13 26.5t-26.5 14.5t-37.5 9t-55.5 6v49q148 17 303 72v-1245q0 -71 10.5 -100.5t38.5 -41.5t98 -18v-53h-456z" />
<glyph unicode="m" horiz-adv-x="1677" d="M55 0v53q37 3 58.5 6.5t41 10.5t28.5 16.5t16 27.5t8.5 40t1.5 57v422q0 99 -18 123t-107 37v47q161 29 285 84v-166q4 2 57.5 41t91.5 61q93 58 166 58q74 0 135.5 -45t93.5 -123q59 45 168 114q84 54 156 54q120 0 190 -82.5t70 -231.5v-393q0 -55 3 -81.5t19.5 -44 t38.5 -22.5t72 -10v-53h-436v53q50 5 73 10.5t41 23.5t22.5 47t4.5 85v340q0 238 -180 238q-95 0 -227 -107q6 -37 6 -86v-397q0 -95 22 -120t109 -34v-53h-438v53q43 4 64.5 8.5t40.5 13t26 26.5t10.5 42.5t3.5 67.5v350q0 236 -180 236q-95 0 -223 -107v-479 q0 -68 9.5 -98.5t32 -41.5t76.5 -18v-53h-432z" />
<glyph unicode="n" horiz-adv-x="1120" d="M59 0v53q39 4 60 7t40.5 11t27 16.5t14 27.5t7.5 40t1 58v422q0 53 -2.5 77.5t-18 42.5t-35.5 23.5t-67 14.5v47q169 31 285 84v-164q28 21 137 96q96 62 170 62q124 0 194 -81.5t70 -228.5v-395q0 -38 1 -59.5t7 -40.5t12.5 -27.5t24 -16t35 -10.5t51.5 -6v-53h-428v53 q91 9 113 36.5t22 133.5v340q0 234 -186 234q-102 0 -223 -105v-479q0 -38 1 -59.5t7 -40.5t13 -27.5t24.5 -16t35.5 -10.5t52 -6v-53h-445z" />
<glyph unicode="o" horiz-adv-x="1044" d="M76 426q0 121 43.5 218.5t111.5 155t144 88t149 30.5h2q124 0 226.5 -61.5t159.5 -166t57 -229.5q0 -95 -27 -176.5t-71.5 -137.5t-102.5 -95.5t-120 -58t-124 -18.5q-102 0 -188 38.5t-142 102.5t-87 144.5t-31 165.5zM266 492q0 -196 77.5 -322.5t203.5 -126.5 q105 0 168 88t63 287q0 187 -73 309.5t-203 122.5h-2q-97 0 -165.5 -96t-68.5 -262z" />
<glyph unicode="p" horiz-adv-x="1073" d="M35 -436q100 9 124.5 34.5t24.5 125.5v925q0 28 -0.5 44.5t-3 33.5t-5 25.5t-11.5 17.5t-16.5 12.5t-24.5 8t-31.5 6.5t-42.5 6v49q128 21 297 86v-160l189 107q53 33 100 33q163 0 262.5 -114.5t99.5 -271.5q0 -112 -42 -209.5t-113.5 -167t-162 -115.5t-192.5 -65 q-74 2 -141 37v-268q0 -43 1.5 -67t8.5 -45.5t16 -31t31.5 -18t46 -11.5t68.5 -7v-56h-483v56zM346 154q34 -34 87 -56t106 -22q129 0 207.5 103t78.5 274q0 158 -79.5 250t-194.5 92q-46 0 -102.5 -26t-102.5 -62v-553z" />
<glyph unicode="q" horiz-adv-x="1046" d="M78 403q0 107 46 204t122 164.5t176 107.5q98 39 200 39h5q94 -10 141 -29q36 -10 55 -10q34 6 72 24l8 -6q-6 -129 -6 -219v-948q0 -39 1.5 -61.5t8.5 -42t15 -28.5t29 -16.5t42 -10.5t62 -7v-56h-494v56q45 3 70 6t47 11.5t31 17.5t16.5 29.5t8.5 43t1 62.5v327 l-217 -86q-107 0 -193.5 38.5t-138.5 101t-80 137t-28 151.5zM262 471q0 -89 28.5 -163.5t75.5 -120.5t103.5 -71.5t114.5 -25.5q83 0 151 35v623q-34 39 -90.5 62.5t-107.5 23.5q-112 0 -193.5 -96t-81.5 -267z" />
<glyph unicode="r" horiz-adv-x="759" d="M68 0v53q96 9 118.5 34t22.5 124v424q0 38 -1 58t-6 39.5t-11.5 27.5t-23 15.5t-34.5 10.5t-51 7v47q151 24 289 82v-222h4q130 218 248 218q50 0 84 -32.5t34 -70.5q0 -31 -18 -59t-47 -41q-35 -14 -53 4q-44 41 -88 41q-42 0 -87 -45.5t-77 -128.5v-373q0 -38 1 -58.5 t7.5 -40t15.5 -28t30.5 -16.5t46 -11t67.5 -6v-53h-471z" />
<glyph unicode="s" horiz-adv-x="751" d="M84 287l55 8q28 -106 95 -179t155 -73q59 0 102.5 39.5t43.5 103.5t-39.5 105.5t-122.5 79.5q-38 18 -62.5 30.5t-58 32.5t-54.5 40.5t-41.5 47t-30 59t-9.5 70.5q0 111 87 189t224 78q96 0 180 -37q13 -32 27.5 -104t17.5 -113l-51 -15q-68 203 -211 203 q-60 0 -96.5 -39.5t-36.5 -101.5q0 -61 45 -101t127 -75q129 -52 194.5 -115t65.5 -162q0 -89 -51 -155t-126.5 -97t-160.5 -31q-72 0 -137.5 22t-95.5 48q-11 22 -23 104.5t-12 137.5z" />
<glyph unicode="t" horiz-adv-x="624" d="M35 834l57 59h92v147l133 138l29 -4v-281h232q15 -17 11 -43.5t-24 -38.5h-219v-524q0 -195 121 -195q61 0 125 33l18 -51l-139 -72q-53 -27 -86 -27q-98 0 -149.5 61t-51.5 181v594h-141z" />
<glyph unicode="u" horiz-adv-x="1087" d="M59 825v49q6 0 148 11q120 17 145 22q-6 -63 -6 -295v-276q0 -126 50.5 -179t129.5 -53q120 0 222 99v479q0 79 -16 101t-70 30l-74 12v49q74 3 169 12.5t152 20.5v-682q0 -52 8.5 -76t27 -33t61.5 -12l55 -2v-53q-107 -14 -301 -74l-12 13v147l-24 -19 q-25 -20 -31 -24.5t-30.5 -22.5t-35.5 -24.5t-34 -21t-39 -20.5t-37 -14t-40.5 -11t-38.5 -3q-112 0 -183 75t-71 231v401q0 78 -13 100.5t-54 30.5z" />
<glyph unicode="v" horiz-adv-x="948" d="M-4 840v53h420v-53q-82 -10 -95 -30q-4 -7 -4 -19q0 -24 17 -68q79 -220 194 -504q88 206 183 486q15 43 15 70q0 19 -7 29q-18 26 -105 36v53h365v-53q-80 -10 -109 -35.5t-71 -118.5q-133 -292 -291 -709h-57q-91 249 -283 715q-36 89 -63 112.5t-109 35.5z" />
<glyph unicode="w" horiz-adv-x="1402" d="M18 840v53h424v-53q-92 -13 -109 -34q-7 -9 -7 -28q0 -24 12 -63q84 -268 151 -475h5q73 190 237 643h53q92 -258 246 -650h4q107 334 142 472q11 41 12 62.5t-13 37t-39.5 22t-78.5 13.5v53h368v-53q-74 -12 -101.5 -39t-59.5 -113q-78 -208 -246 -711h-60 q-49 131 -142.5 366.5t-106.5 268.5q-21 -55 -108.5 -279.5t-135.5 -355.5h-57q-141 451 -238 730q-28 80 -53.5 102t-98.5 31z" />
<glyph unicode="x" horiz-adv-x="966" d="M8 0v53q94 12 131.5 34.5t98.5 100.5q60 76 174 244l-179 279q-48 74 -82 96.5t-118 32.5v53h407v-53q-64 -9 -74 -26q-3 -4 -3 -11q0 -18 22 -49l121 -189q69 100 119 191q18 32 18 49q-1 9 -5 13q-12 14 -81 22v53h375v-53q-94 -9 -131.5 -27.5t-93.5 -81.5 q-30 -35 -160 -223l198 -305q57 -87 95.5 -112.5t130.5 -37.5v-53h-439v53q66 8 80.5 24.5t-10.5 57.5l-151 238q-86 -129 -132 -215q-23 -37 -23 -58q0 -8 4 -14q12 -20 89 -33v-53h-381z" />
<glyph unicode="y" horiz-adv-x="940" d="M4 840v53h414l2 -53q-71 -10 -86 -32q-6 -9 -6 -24q0 -22 14 -57l184 -512q118 287 189 508q11 29 11 50q0 20 -10 31q-21 24 -108 36v53h371v-53q-80 -12 -109 -36t-71 -112q-24 -49 -54 -120.5t-91.5 -222t-112.5 -273.5q-176 -418 -211 -551q-12 -51 -66 -51 q-43 0 -78.5 30.5t-35.5 67.5q0 24 11.5 40t39.5 34q48 30 81.5 70.5t71.5 111.5q47 91 64 141q6 18 6 38q0 25 -10 52q-135 384 -234 627q-15 38 -25 58t-23.5 39.5t-30 29t-39.5 16.5t-58 11z" />
<glyph unicode="z" horiz-adv-x="860" d="M63 31q220 323 510 792h-182q-74 0 -114 -13.5t-63 -41t-54 -90.5l-29 -55l-51 18q43 145 70 295h43q9 -24 32.5 -33.5t79.5 -9.5h471l12 -29q-250 -390 -499 -796h203q59 0 97 7.5t69.5 29t53.5 49t54 79.5l27 50l53 -27q-65 -179 -94 -256h-674z" />
<glyph unicode="{" horiz-adv-x="710" d="M131 584q43 3 76 12t52.5 24t32 30t17.5 37t6.5 37t1.5 38q0 63 -7.5 207t-6.5 213q0 270 297 270v-57q-55 -7 -91 -24.5t-53 -45.5t-22.5 -55t-5.5 -66q0 -66 13.5 -203.5t13.5 -205.5q0 -90 -41.5 -153.5t-128.5 -82.5v-8q86 -21 128 -85.5t42 -154.5 q0 -69 -13.5 -203.5t-13.5 -197.5q0 -41 5.5 -69t22.5 -57t53 -47.5t91 -25.5v-57q-43 0 -78 4t-78 20t-72 43t-49 77t-20 118q0 71 7.5 216.5t6.5 213.5q0 28 -2 46t-12 43.5t-28.5 42t-54.5 30t-87 16.5z" />
<glyph unicode="|" horiz-adv-x="538" d="M203 -512v2048h131v-2048h-131z" />
<glyph unicode="}" horiz-adv-x="710" d="M111 -289q103 14 138.5 63t35.5 130q0 67 -14 204.5t-15 200.5q0 197 172 240v8q-88 21 -130 84t-42 152q0 69 14 209t15 202q0 82 -35.5 129.5t-138.5 61.5v57q45 0 80.5 -4.5t78.5 -20.5t72 -43t48.5 -77.5t19.5 -118.5q0 -76 -8.5 -218t-8.5 -202q0 -30 2 -49t12 -46 t29 -43.5t55.5 -30.5t88.5 -17v-60q-52 -3 -88.5 -17t-55.5 -30.5t-29 -43.5t-12 -46t-2 -49q0 -58 8.5 -200t8.5 -220q0 -262 -299 -262v57z" />
<glyph unicode="~" horiz-adv-x="1187" d="M113 399q90 226 266 226q59 0 112 -18.5t127 -61.5q70 -41 117 -60.5t92 -19.5q61 0 101 39.5t73 126.5l74 -43q-33 -109 -99 -167.5t-161 -58.5q-105 0 -258 93q-59 35 -100.5 51t-85.5 16q-63 0 -108 -42t-79 -132z" />
<glyph unicode="&#xa1;" horiz-adv-x="565" d="M164 793q0 54 33 87t84 33h2q48 0 81 -33.5t33 -86.5q0 -51 -33 -85t-83 -34q-51 0 -84 34t-33 85zM174 -406q0 45 14 160q23 205 60 733q8 11 37 11t37 -11q5 -66 12.5 -186.5t12 -193t13.5 -171.5t19 -182q14 -144 14 -160q0 -61 -108 -61h-2q-109 0 -109 61z" />
<glyph unicode="&#xa2;" d="M104 610q0 114 52 211.5t139 165.5q102 77 217 100v173h72v-162q14 2 37 2q128 0 206 -56q29 -20 29 -51q0 -30 -24.5 -58t-49.5 -30q-8 2 -30 19q-74 74 -168 88v-684q80 -3 142 26t128 95l35 -48q-61 -81 -145 -134.5t-160 -65.5v-201h-72v197q-118 3 -212.5 61.5 t-145 151.5t-50.5 200zM264 694q0 -85 23 -152.5t61.5 -109t79.5 -65.5t84 -33v678q-42 -1 -84 -19.5t-79.5 -55t-61 -100t-23.5 -143.5z" />
<glyph unicode="&#xa3;" d="M49.5 17q-11.5 27 11.5 71q16 29 97 119q86 93 86 276q0 34 -6 121h-183v78h172q-10 128 -10 168q0 221 170 358q45 38 107 64t106 28q64 0 121 -28.5t78 -57.5q17 -20 13 -41.5t-15.5 -38t-28.5 -28.5q-28 -19 -57 4q-46 40 -90 63t-101 23q-147 0 -147 -197 q0 -89 41 -317h356v-78h-352q2 -16 2 -45q0 -192 -178 -356q93 0 215 -56q166 -77 245 -77q57 0 88 26t31 68q0 37 -14 65q-10 23 6 45q35 54 74 54q21 0 34 -26t13 -58q0 -65 -47 -130.5t-111 -107.5q-99 -63 -186 -63q-39 0 -92 19t-86 36.5t-99 54.5q-81 49 -118 49 q-51 0 -84 -88q-9 -24 -25 -24q-25 0 -36.5 27z" />
<glyph unicode="&#xa4;" d="M57 276l142 136q-88 107 -88 254q0 144 88 249l-142 140l82 82l131 -154q97 78 217 78h2q52 0 110.5 -20t105.5 -58l129 154l84 -82l-142 -137q88 -106 88 -252q0 -145 -90 -252l144 -138l-84 -83l-132 155q-46 -38 -104 -59t-111 -21q-55 0 -114.5 20t-104.5 58 l-129 -153zM236 666q0 -132 72 -214.5t181 -82.5t180.5 82.5t71.5 214.5q0 130 -72.5 212.5t-179.5 82.5h-2q-108 0 -179.5 -82t-71.5 -213z" />
<glyph unicode="&#xa5;" d="M14 1223v53h418v-53l-53 -11q-42 -9 -51 -21t2 -44q39 -100 180 -428q136 286 180 401q19 42 11 61.5t-56 28.5l-57 13v53h366v-53q-79 -10 -109.5 -35t-78.5 -111q-76 -133 -203 -399h264v-74h-278v-137h278v-76h-278v-172q0 -38 1.5 -59.5t8.5 -41.5t17 -29t33 -17 t50.5 -11t73.5 -6v-55h-526v55q68 4 100.5 9.5t52.5 25.5t23.5 46t3.5 83v172h-266v76h266v137h-266v74h246q-65 159 -179 399q-40 89 -70 113t-104 33z" />
<glyph unicode="&#xa6;" horiz-adv-x="538" d="M203 -358v716h131v-716h-131zM203 666v716h131v-716h-131z" />
<glyph unicode="&#xa7;" horiz-adv-x="976" d="M111 756q0 177 161 352q79 87 148 134t162 69q56 0 107.5 -26t51.5 -68q0 -21 -11.5 -40t-24.5 -26q-23 -17 -41 -4q-21 19 -63 37t-91 18q-63 0 -97 -34t-34 -74q0 -72 76 -140q72 -65 225 -194q192 -166 192 -346v-2q-1 -118 -60 -231.5t-142 -205.5 q-129 -140 -283 -188q-30 0 -71 12t-76 38t-35 57q0 27 43 65q23 16 43 6q91 -57 162 -57q57 0 99.5 31.5t43.5 91.5q0 44 -30.5 92.5t-106.5 120.5q-29 28 -101.5 99.5t-101.5 100.5q-145 138 -145 312zM213 842q0 -84 42.5 -161t139.5 -169q204 -185 250 -260 q18 -29 30 -74.5t9 -83.5l4 -4q78 119 78 234q0 160 -164 303q-183 164 -227 211q-40 38 -64 92t-18 108l-6 2q-74 -100 -74 -194v-4z" />
<glyph unicode="&#xa8;" horiz-adv-x="819" d="M139 1167q0 42 29 72.5t68 30.5h2q40 0 68 -30t28 -73q0 -40 -28.5 -69t-69.5 -29q-38 0 -67.5 29.5t-29.5 68.5zM485 1167q0 42 29 72.5t68 30.5h2q40 0 68 -30t28 -73q0 -40 -28.5 -69t-69.5 -29q-38 0 -67.5 29.5t-29.5 68.5z" />
<glyph unicode="&#xa9;" horiz-adv-x="1437" d="M104 659q0 128 47 243t128 198.5t195.5 132.5t244.5 49h2q172 0 312.5 -83t220 -226t79.5 -314q0 -170 -79.5 -311.5t-220.5 -224t-314 -82.5t-314.5 82.5t-221 224t-79.5 311.5zM201 662q0 -235 148 -393t372 -158q147 0 265.5 72.5t184.5 198.5t66 280 q0 236 -146.5 393t-369.5 157h-2q-147 0 -266 -72t-185.5 -197.5t-66.5 -280.5zM375 655q0 164 116 262.5t281 98.5q120 0 213 -35q16 -109 23 -186l-43 -9q-26 88 -76 130t-131 42q-108 0 -171 -80.5t-63 -207.5q0 -135 68.5 -220t171.5 -85q81 0 133 44.5t88 129.5l45 -11 q-38 -149 -53 -184q-114 -39 -213 -39q-95 0 -171.5 30t-122.5 80.5t-70.5 112t-24.5 127.5z" />
<glyph unicode="&#xaa;" horiz-adv-x="638" d="M70 700q0 89 98 125q14 5 70 25.5t93.5 36.5t57.5 31v24q0 46 -27 77.5t-71 31.5q-70 0 -103 -111q-8 -31 -45 -31q-23 0 -44 17.5t-21 42.5t41 57q36 26 94 53t115 35q86 0 133 -45.5t47 -128.5v-225q0 -38 12.5 -55t30.5 -17q22 0 47 14l16 -45l-129 -67q-62 2 -92 80 q-5 -3 -33 -20t-39 -23t-32 -17.5t-35 -15.5t-25 -4q-69 0 -114 47.5t-45 107.5zM199 723q0 -41 27 -64.5t65 -23.5q24 0 52.5 13t45.5 28v188q-13 -7 -63 -28t-66 -29q-33 -15 -47 -34.5t-14 -49.5z" />
<glyph unicode="&#xab;" horiz-adv-x="909" d="M100 453q128 128 326 376l45 -30l-190 -346l190 -342l-47 -33q-212 269 -324 375zM440 453q148 153 324 376l47 -30l-190 -346l190 -342l-47 -33q-201 256 -324 375z" />
<glyph unicode="&#xac;" horiz-adv-x="1187" d="M106 651v103h977v-555h-118v452h-859z" />
<glyph unicode="&#xad;" horiz-adv-x="729" d="M117 406l28 112h469l-28 -112h-469z" />
<glyph unicode="&#xae;" horiz-adv-x="657" d="M66 1085q0 107 77.5 186t186.5 79h2q112 0 188 -78.5t76 -186.5q0 -106 -76.5 -184t-189.5 -78q-112 0 -188 75.5t-76 186.5zM125 1085q0 -92 59.5 -153.5t147.5 -61.5t147.5 61.5t59.5 153.5q0 91 -60 154.5t-147 63.5h-2q-88 0 -146.5 -63t-58.5 -155zM203 948v31 q28 2 33.5 7t5.5 32v139q0 27 -5 32t-32 7v31h139q98 0 98 -72q0 -50 -55 -70q40 -78 94 -114l-6 -25q-37 0 -59.5 9t-40.5 34q-4 6 -37 64q-7 14 -27 14h-8v-49q0 -27 5.5 -32t31.5 -7v-31h-137zM303 1098h16q58 0 58 51q0 26 -15.5 36.5t-33.5 10.5q-14 0 -19.5 -5 t-5.5 -20v-73z" />
<glyph unicode="&#xaf;" horiz-adv-x="819" d="M184 1090v110h451v-110h-451z" />
<glyph unicode="&#xb0;" horiz-adv-x="702" d="M66 1079q0 124 84 202.5t202 78.5h2q115 0 200 -79t85 -202q0 -128 -84.5 -204t-202.5 -76q-119 0 -202.5 75.5t-83.5 204.5zM188 1079q0 -86 46 -139t120 -53q72 0 117 52.5t45 137.5q0 87 -45 141t-117 54h-2q-72 0 -118 -53.5t-46 -139.5z" />
<glyph unicode="&#xb1;" horiz-adv-x="1187" d="M106 0v102h977v-102h-977zM106 637v102h431v391h118v-391h428v-102h-428v-418h-118v418h-431z" />
<glyph unicode="&#xb2;" horiz-adv-x="698" d="M82 823v45q5 4 37 30t44 36t44.5 38t48 43.5t44 43.5t43 48t34.5 48t30 50.5t17.5 49t7.5 50.5q0 73 -38.5 111t-98.5 38q-90 0 -174 -113l-35 37l66 88q35 44 87 68.5t111 24.5q92 0 158.5 -59.5t66.5 -160.5q0 -71 -48 -137t-169 -172l-106 -96v-4h186q62 0 88 15.5 t56 74.5l45 -14q-30 -101 -47 -183h-498z" />
<glyph unicode="&#xb3;" horiz-adv-x="698" d="M93 888q-2 21 9 37.5t29 30.5q19 16 43 -2q81 -67 156 -67q58 0 94.5 37.5t36.5 113.5q0 68 -47 104t-111 36q-19 0 -86 -15l-12 49q99 31 151 69t52 91q0 41 -28 67.5t-79 26.5q-45 0 -86.5 -31t-67.5 -71l-32 33l59 84q27 30 76 52.5t100 22.5h2q87 0 141 -45.5 t54 -111.5q0 -53 -39 -84q-74 -52 -86 -58v-4q55 -10 95 -33.5t61.5 -58.5t21.5 -80q0 -39 -14.5 -74.5t-38.5 -62.5t-55 -50t-64.5 -38.5t-66 -27t-59.5 -16.5t-46 -5q-40 0 -78 13.5t-61 29.5q-22 17 -24 38z" />
<glyph unicode="&#xb4;" horiz-adv-x="819" d="M342 1020q73 161 137 321q15 6 79.5 16t82.5 7l6 -18l-252 -353z" />
<glyph unicode="&#xb5;" horiz-adv-x="1048" d="M139 881l166 37q4 -47 4 -216v-350q0 -70 17 -121t46 -78t60 -39t64 -12q60 0 114 33t90 76v670l164 37v-685q0 -143 84 -143q34 0 72 21l20 -54q-27 -33 -75.5 -57.5t-98.5 -24.5q-64 0 -107 44.5t-52 115.5h-5q-142 -160 -274 -160q-53 0 -96 24t-70 62h-8v-32 q-1 -116 25 -290.5t51 -240.5l-27 -24q-32 3 -80 29t-73 51q-3 10 -4.5 46t-1.5 96v117t0.5 138.5t0.5 132.5v600q0 124 -6 197z" />
<glyph unicode="&#xb6;" horiz-adv-x="1017" d="M102 659q0 98 37.5 184t98.5 144q63 59 147 94t156 35h405l8 -24l-61 -56l-180 -20v-971q0 -125 -33 -214t-105 -165q-41 -42 -99.5 -72t-78.5 -30q-88 0 -135 47q-57 50 21 117q18 15 39 0q67 -45 129 -45q32 0 58 13t49.5 46t36.5 99.5t13 162.5v307l-137 -59 q-12 -6 -35 -6q-35 0 -78.5 17.5t-88.5 54t-82.5 84.5t-61 115.5t-23.5 141.5z" />
<glyph unicode="&#xb7;" horiz-adv-x="462" d="M115 477q0 50 32.5 83.5t83.5 33.5q49 0 83 -34t34 -83q0 -53 -33.5 -87t-83.5 -34h-2q-50 0 -82 33.5t-32 87.5z" />
<glyph unicode="&#xb8;" horiz-adv-x="819" d="M291 -436q123 53 123 123q0 33 -47 80q-40 37 -46 62t23 65l78 104h80l-43 -55q-21 -27 -18 -42.5t30 -41.5q43 -45 61.5 -76.5t18.5 -65.5q0 -64 -63 -119t-173 -87z" />
<glyph unicode="&#xb9;" horiz-adv-x="698" d="M154 1450v47q136 15 272 59v-565q0 -73 23.5 -92.5t109.5 -28.5v-47h-403v47q86 6 110.5 27t24.5 94v365q0 59 -12 73.5t-64 18.5z" />
<glyph unicode="&#xba;" horiz-adv-x="700" d="M59 819q0 72 28 130.5t72 93t93.5 53t97.5 18.5h2q121 0 202 -81t81 -197q-1 -90 -45 -158.5t-108 -100.5t-134 -32q-130 0 -209.5 83t-79.5 191zM205 852q0 -111 44.5 -180.5t112.5 -69.5q58 0 95 48.5t37 156.5q0 109 -41.5 179.5t-114.5 70.5h-2q-56 0 -93.5 -53.5 t-37.5 -151.5z" />
<glyph unicode="&#xbb;" horiz-adv-x="911" d="M100 109l193 344l-193 346l47 30q192 -244 324 -376q-123 -119 -324 -375zM438 109l191 344l-191 346l47 30q192 -244 324 -376q-123 -119 -324 -375z" />
<glyph unicode="&#xbc;" horiz-adv-x="1560" d="M162 1194v49q138 18 270 62v-564q0 -72 23 -91.5t110 -28.5v-52h-401v52q87 8 111 27.5t24 92.5v359q0 59 -12 73t-64 17zM340 -6l829 1347l66 -49l-834 -1347zM823 201v47q217 289 383 485h82v-457h123v-75h-123v-51q0 -61 21 -78t94 -23v-49h-373v49q82 6 105.5 23 t23.5 78v51h-336zM934 276h225v302h-4q-110 -135 -221 -302z" />
<glyph unicode="&#xbd;" horiz-adv-x="1560" d="M147 1194v49q125 14 271 62v-564q0 -71 23 -90t110 -30v-52h-401v52q87 9 111 29t24 91v359q0 59 -12 73t-64 17zM311 -6l830 1347l65 -49l-833 -1347zM893 0v43q42 34 57.5 46.5t62 52.5t69.5 63.5t60 64.5t55 72t33 69.5t15 71.5q0 66 -35 106t-102 40q-87 0 -168 -113 l-43 37l72 92q69 90 194 90q93 0 159.5 -60t66.5 -161q0 -75 -46.5 -140.5t-164.5 -166.5l-109 -96v-5h182q59 0 87 16.5t55 70.5l47 -15q-24 -81 -45 -178h-502z" />
<glyph unicode="&#xbe;" horiz-adv-x="1560" d="M151 631q-2 21 9 38t28 29q21 15 43 -2q82 -63 154 -63q61 0 96 38.5t35 110.5q0 69 -44 102.5t-107 33.5q-33 0 -91 -15l-12 51q103 33 153 71.5t50 88.5q0 40 -28 66t-79 26q-44 0 -84.5 -28t-66.5 -66l-35 31l64 88q28 29 74 49t96 20h2q87 0 141.5 -44.5t54.5 -110.5 q0 -54 -41 -86q-48 -37 -86 -58v-4q84 -17 131 -64t47 -108q0 -53 -27.5 -99.5t-69 -77.5t-89.5 -53.5t-89 -33t-69 -10.5q-77 0 -137 43q-21 16 -23 37zM346 -6l830 1347l65 -49l-833 -1347zM813 201v47q203 275 381 485h82v-457h123v-75h-123v-51q0 -61 21 -79t92 -24v-47 h-371v47q82 6 105.5 24t23.5 79v51h-334zM920 276h227v302h-6q-93 -115 -221 -302z" />
<glyph unicode="&#xbf;" horiz-adv-x="776" d="M94 -143q0 55 23 97.5t76 84.5q11 8 48 35.5t62 48.5t55 50t46 58.5t16 57.5q0 48 -22.5 83t-73.5 79l36 47q31 -12 69 -37t75 -60t61.5 -80.5t24.5 -89.5q0 -53 -39.5 -105.5t-134.5 -123.5q-2 -1 -26.5 -19.5t-30 -23t-28 -22t-30.5 -26t-25.5 -25t-24.5 -28t-17 -27 t-13.5 -30t-3.5 -28.5q0 -52 32 -80.5t89 -28.5q44 0 87 17t69 37.5t48 37.5t29 17q24 0 54 -27.5t30 -62.5q0 -32 -29.5 -62t-69.5 -48t-76.5 -29t-55.5 -11h-2q-128 0 -228 99t-100 225zM279 799q0 52 31 84t79 32h2q47 0 79 -32.5t32 -83.5q0 -49 -33 -83t-80 -34 t-78.5 33.5t-31.5 83.5z" />
<glyph unicode="&#xc0;" horiz-adv-x="1415" d="M41 0v57q55 8 82 15t54.5 30t46.5 60t46 108l424 1073l64 19q42 -115 181 -504t214 -592q25 -69 42.5 -105.5t44.5 -59.5t55 -30.5t83 -13.5v-57h-501v57q97 12 118.5 32.5t1.5 80.5q-21 62 -112 315h-436q-65 -182 -91 -262q-14 -42 -18 -66.5t-0.5 -43.5t23 -29t47 -16 t77.5 -11v-57h-446zM422 1546q6 23 38 67t50 50q290 -188 324 -211l-27 -51l-381 129zM479 573h377l-180 523h-4q-36 -94 -100.5 -271.5t-92.5 -251.5z" />
<glyph unicode="&#xc1;" horiz-adv-x="1415" d="M41 0v57q55 8 82 15t54.5 30t46.5 60t46 108l424 1073l64 19q42 -115 181 -504t214 -592q25 -69 42.5 -105.5t44.5 -59.5t55 -30.5t83 -13.5v-57h-501v57q97 12 118.5 32.5t1.5 80.5q-21 62 -112 315h-436q-65 -182 -91 -262q-14 -42 -18 -66.5t-0.5 -43.5t23 -29t47 -16 t77.5 -11v-57h-446zM479 573h377l-180 523h-4q-36 -94 -100.5 -271.5t-92.5 -251.5zM625 1452q66 42 187.5 121.5t133.5 87.5q18 -3 50.5 -46.5t37.5 -66.5l-4 -16l-379 -131z" />
<glyph unicode="&#xc2;" horiz-adv-x="1415" d="M41 0v57q55 8 82 15t54.5 30t46.5 60t46 108l424 1073l64 19q42 -115 181 -504t214 -592q25 -69 42.5 -105.5t44.5 -59.5t55 -30.5t83 -13.5v-57h-501v57q97 12 118.5 32.5t1.5 80.5q-21 62 -112 315h-436q-65 -182 -91 -262q-14 -42 -18 -66.5t-0.5 -43.5t23 -29t47 -16 t77.5 -11v-57h-446zM453 1452q8 6 43 33t47 36.5t41.5 33t46 38.5t39 36.5t41.5 41.5h45q14 -15 30.5 -31.5t29 -28t33.5 -29.5t30.5 -26t34.5 -28t31 -24.5t35 -27t32 -24.5l-33 -51q-104 44 -248 127q-162 -91 -246 -127zM479 573h377l-180 523h-4q-36 -94 -100.5 -271.5 t-92.5 -251.5z" />
<glyph unicode="&#xc3;" horiz-adv-x="1415" d="M41 0v57q55 8 82 15t54.5 30t46.5 60t46 108l424 1073l64 19q42 -115 181 -504t214 -592q25 -69 42.5 -105.5t44.5 -59.5t55 -30.5t83 -13.5v-57h-501v57q97 12 118.5 32.5t1.5 80.5q-21 62 -112 315h-436q-65 -182 -91 -262q-14 -42 -18 -66.5t-0.5 -43.5t23 -29t47 -16 t77.5 -11v-57h-446zM459 1446q35 89 78.5 128.5t85.5 39.5h2q46 0 125 -39q74 -33 112 -33q54 0 94 88l52 -28q-31 -94 -75.5 -134.5t-92.5 -40.5q-50 0 -144 46q-58 28 -90 28q-28 0 -50.5 -22t-47.5 -68zM479 573h377l-180 523h-4q-36 -94 -100.5 -271.5t-92.5 -251.5z " />
<glyph unicode="&#xc4;" horiz-adv-x="1415" d="M41 0v57q55 8 82 15t54.5 30t46.5 60t46 108l424 1073l64 19q42 -115 181 -504t214 -592q25 -69 42.5 -105.5t44.5 -59.5t55 -30.5t83 -13.5v-57h-501v57q97 12 118.5 32.5t1.5 80.5q-21 62 -112 315h-436q-65 -182 -91 -262q-14 -42 -18 -66.5t-0.5 -43.5t23 -29t47 -16 t77.5 -11v-57h-446zM432 1524q0 42 28.5 72t67.5 30h2q40 0 68.5 -29.5t28.5 -72.5q0 -40 -29 -69.5t-70 -29.5q-38 0 -67 29.5t-29 69.5zM479 573h377l-180 523h-4q-36 -94 -100.5 -271.5t-92.5 -251.5zM823 1524q0 42 29 72t68 30h2q40 0 68 -29.5t28 -72.5 q0 -40 -28.5 -69.5t-69.5 -29.5q-38 0 -67.5 29.5t-29.5 69.5z" />
<glyph unicode="&#xc5;" horiz-adv-x="1415" d="M41 0v57q55 8 82 15t54.5 30t46.5 60t46 108l424 1073l64 19q42 -115 181 -504t214 -592q25 -69 42.5 -105.5t44.5 -59.5t55 -30.5t83 -13.5v-57h-501v57q97 12 118.5 32.5t1.5 80.5q-21 62 -112 315h-436q-65 -182 -91 -262q-14 -42 -18 -66.5t-0.5 -43.5t23 -29t47 -16 t77.5 -11v-57h-446zM479 573h377l-180 523h-4q-36 -94 -100.5 -271.5t-92.5 -251.5zM547 1581q0 76 54 123t126 47h2q72 0 126 -47t54 -123q0 -78 -54.5 -127t-127.5 -49q-71 0 -125.5 49t-54.5 127zM637 1581q0 -48 25.5 -80.5t64.5 -32.5q40 0 65 32.5t25 80.5 q0 47 -24.5 77t-65.5 30h-2q-38 0 -63 -30.5t-25 -76.5z" />
<glyph unicode="&#xc6;" horiz-adv-x="1779" d="M-23 0v55q100 14 142.5 43.5t99.5 130.5q59 105 132.5 240t120.5 224.5t130.5 248.5t108.5 207q34 64 23 85.5t-87 31.5l-84 10v55h1051q6 -145 20 -291l-61 -8q-30 125 -66 170q-26 33 -69 45.5t-146 12.5h-170q-46 0 -55.5 -10t-9.5 -54v-510h182q49 0 79.5 1.5t55.5 9 t37.5 16t23.5 29.5t16 41.5t13 60.5h62v-400h-62q-8 41 -13.5 62.5t-17 43.5t-23.5 30t-37.5 15.5t-55 9t-78.5 1.5h-182v-340q0 -30 1.5 -53t5.5 -42t9.5 -33t13.5 -24.5t18.5 -17.5t24 -12t29.5 -7t35.5 -3.5t42 -1.5h48.5h30q112 0 170 14.5t92 54.5q50 59 100 197 l60 -14q-37 -195 -74 -324h-969v57q48 3 76 7t52 14t35 22.5t19 38.5t9.5 55.5t1.5 79.5v332h-363q-121 -228 -196 -397q-39 -79 -18.5 -109t136.5 -45v-55h-469zM561 686h326v563q-26 0 -58 -39q-126 -236 -268 -524z" />
<glyph unicode="&#xc7;" horiz-adv-x="1353" d="M94 643q0 210 99 374t276 254.5t401 90.5q41 0 84 -3.5t74.5 -7.5t69 -11.5t55.5 -12l48 -12l34 -8.5q32 -231 41 -316l-62 -10q-47 166 -138.5 235.5t-262.5 69.5q-152 0 -268.5 -78.5t-178 -213.5t-61.5 -304q0 -185 63 -330.5t183 -229t278 -83.5q105 0 183 37.5 t132.5 103.5t110.5 177l58 -23q-55 -206 -111 -319q-212 -48 -338 -50l-22 -28q-19 -27 -16.5 -43t28.5 -43q42 -42 60 -73.5t18 -66.5q0 -61 -63 -117.5t-169 -90.5l-28 57q125 55 125 123q0 15 -8.5 31t-15 23t-23.5 24q-38 38 -43.5 63.5t20.5 63.5l55 75 q-139 4 -255.5 45.5t-195 107.5t-133 152.5t-79.5 178.5t-25 188z" />
<glyph unicode="&#xc8;" horiz-adv-x="1163" d="M59 0v57q51 4 80 7.5t54.5 13t37 20.5t20 35t10 50.5t1.5 72.5v815q0 49 -1.5 77.5t-9.5 53t-16.5 35.5t-32.5 20t-47 12t-69 7v55h913q0 -22 3 -69.5t7.5 -118t6.5 -107.5l-60 -8q-22 106 -65 174q-22 34 -72 47t-160 13h-155q-47 0 -57.5 -10.5t-10.5 -55.5v-467h193 q50 0 79.5 1.5t54.5 8.5t37 15t22.5 29t15.5 40.5t12 59.5h59v-391h-59q-8 40 -13 62t-16.5 42.5t-23 28.5t-37 15t-53 8t-76.5 1h-195v-387q0 -58 9.5 -94t21.5 -56.5t48.5 -29.5t66 -10.5t98.5 -1.5h6h5.5h6.5q116 0 170 14.5t88 54.5q59 69 103 193l59 -8 q-35 -197 -71 -324h-988zM303 1546q6 23 38 67t50 50q290 -188 324 -211l-27 -51l-381 129z" />
<glyph unicode="&#xc9;" horiz-adv-x="1163" d="M59 0v57q51 4 80 7.5t54.5 13t37 20.5t20 35t10 50.5t1.5 72.5v815q0 49 -1.5 77.5t-9.5 53t-16.5 35.5t-32.5 20t-47 12t-69 7v55h913q0 -22 3 -69.5t7.5 -118t6.5 -107.5l-60 -8q-22 106 -65 174q-22 34 -72 47t-160 13h-155q-47 0 -57.5 -10.5t-10.5 -55.5v-467h193 q50 0 79.5 1.5t54.5 8.5t37 15t22.5 29t15.5 40.5t12 59.5h59v-391h-59q-8 40 -13 62t-16.5 42.5t-23 28.5t-37 15t-53 8t-76.5 1h-195v-387q0 -58 9.5 -94t21.5 -56.5t48.5 -29.5t66 -10.5t98.5 -1.5h6h5.5h6.5q116 0 170 14.5t88 54.5q59 69 103 193l59 -8 q-35 -197 -71 -324h-988zM473 1452q49 31 106 68t121.5 79t94.5 62q18 -3 50.5 -46.5t37.5 -66.5l-4 -16l-379 -131z" />
<glyph unicode="&#xca;" horiz-adv-x="1163" d="M59 0v57q51 4 80 7.5t54.5 13t37 20.5t20 35t10 50.5t1.5 72.5v815q0 49 -1.5 77.5t-9.5 53t-16.5 35.5t-32.5 20t-47 12t-69 7v55h913q0 -22 3 -69.5t7.5 -118t6.5 -107.5l-60 -8q-22 106 -65 174q-22 34 -72 47t-160 13h-155q-47 0 -57.5 -10.5t-10.5 -55.5v-467h193 q50 0 79.5 1.5t54.5 8.5t37 15t22.5 29t15.5 40.5t12 59.5h59v-391h-59q-8 40 -13 62t-16.5 42.5t-23 28.5t-37 15t-53 8t-76.5 1h-195v-387q0 -58 9.5 -94t21.5 -56.5t48.5 -29.5t66 -10.5t98.5 -1.5h6h5.5h6.5q116 0 170 14.5t88 54.5q59 69 103 193l59 -8 q-35 -197 -71 -324h-988zM309 1452q8 6 43 33t47 36.5t41.5 33t46 38.5t39 36.5t41.5 41.5h45q14 -15 30.5 -31.5t29 -28t33.5 -29.5t30.5 -26t34.5 -28t31 -24.5t35 -27t32 -24.5l-32 -51q-103 44 -248 127q-162 -91 -246 -127z" />
<glyph unicode="&#xcb;" horiz-adv-x="1163" d="M59 0v57q51 4 80 7.5t54.5 13t37 20.5t20 35t10 50.5t1.5 72.5v815q0 49 -1.5 77.5t-9.5 53t-16.5 35.5t-32.5 20t-47 12t-69 7v55h913q0 -22 3 -69.5t7.5 -118t6.5 -107.5l-60 -8q-22 106 -65 174q-22 34 -72 47t-160 13h-155q-47 0 -57.5 -10.5t-10.5 -55.5v-467h193 q50 0 79.5 1.5t54.5 8.5t37 15t22.5 29t15.5 40.5t12 59.5h59v-391h-59q-8 40 -13 62t-16.5 42.5t-23 28.5t-37 15t-53 8t-76.5 1h-195v-387q0 -58 9.5 -94t21.5 -56.5t48.5 -29.5t66 -10.5t98.5 -1.5h6h5.5h6.5q116 0 170 14.5t88 54.5q59 69 103 193l59 -8 q-35 -197 -71 -324h-988zM301 1532q0 42 28.5 72t67.5 30h2q40 0 68.5 -29.5t28.5 -72.5q0 -40 -29 -69t-70 -29q-38 0 -67 29t-29 69zM692 1532q0 42 28.5 72t67.5 30h3q40 0 68 -29.5t28 -72.5q0 -40 -29 -69t-70 -29q-38 0 -67 29t-29 69z" />
<glyph unicode="&#xcc;" horiz-adv-x="698" d="M70 1546q6 23 38 67t50 50q262 -170 323 -211l-26 -51l-381 129zM78 0v57q47 3 72.5 6.5t49.5 12.5t33.5 19.5t17.5 34.5t9.5 51.5t1.5 74.5v819q0 47 -1.5 74.5t-9.5 51.5t-17.5 34.5t-33.5 19.5t-49.5 12.5t-72.5 6.5v57h543v-57q-47 -3 -72.5 -6.5t-49.5 -12.5 t-34 -19.5t-18 -34.5t-9.5 -51.5t-1.5 -74.5v-819q0 -48 1.5 -75.5t9.5 -51.5t18 -34.5t34 -19.5t49.5 -12t72.5 -6v-57h-543z" />
<glyph unicode="&#xcd;" horiz-adv-x="698" d="M78 0v57q47 3 72.5 6.5t49.5 12.5t33.5 19.5t17.5 34.5t9.5 51.5t1.5 74.5v819q0 47 -1.5 74.5t-9.5 51.5t-17.5 34.5t-33.5 19.5t-49.5 12.5t-72.5 6.5v57h543v-57q-47 -3 -72.5 -6.5t-49.5 -12.5t-34 -19.5t-18 -34.5t-9.5 -51.5t-1.5 -74.5v-819q0 -48 1.5 -75.5 t9.5 -51.5t18 -34.5t34 -19.5t49.5 -12t72.5 -6v-57h-543zM229 1452q49 31 106 68t121.5 79t94.5 62q18 -3 50.5 -46.5t37.5 -66.5l-4 -16l-379 -131z" />
<glyph unicode="&#xce;" horiz-adv-x="698" d="M70 1452q8 6 43 33t47 36.5t41.5 33t46 38.5t39 36.5t41.5 41.5h45q14 -15 30.5 -31.5t29 -28t33.5 -29.5t30.5 -26t34.5 -28t31 -24.5t35 -27t32 -24.5l-33 -51q-104 44 -248 127q-162 -91 -246 -127zM78 0v57q47 3 72.5 6.5t49.5 12.5t33.5 19.5t17.5 34.5t9.5 51.5 t1.5 74.5v819q0 47 -1.5 74.5t-9.5 51.5t-17.5 34.5t-33.5 19.5t-49.5 12.5t-72.5 6.5v57h543v-57q-47 -3 -72.5 -6.5t-49.5 -12.5t-34 -19.5t-18 -34.5t-9.5 -51.5t-1.5 -74.5v-819q0 -48 1.5 -75.5t9.5 -51.5t18 -34.5t34 -19.5t49.5 -12t72.5 -6v-57h-543z" />
<glyph unicode="&#xcf;" horiz-adv-x="698" d="M57 1526q0 42 29 72t68 30h2q40 0 68 -29.5t28 -72.5q0 -40 -28.5 -69.5t-69.5 -29.5q-38 0 -67.5 29.5t-29.5 69.5zM78 0v57q47 3 72.5 6.5t49.5 12.5t33.5 19.5t17.5 34.5t9.5 51.5t1.5 74.5v819q0 47 -1.5 74.5t-9.5 51.5t-17.5 34.5t-33.5 19.5t-49.5 12.5t-72.5 6.5 v57h543v-57q-47 -3 -72.5 -6.5t-49.5 -12.5t-34 -19.5t-18 -34.5t-9.5 -51.5t-1.5 -74.5v-819q0 -48 1.5 -75.5t9.5 -51.5t18 -34.5t34 -19.5t49.5 -12t72.5 -6v-57h-543zM449 1526q0 42 28.5 72t67.5 30h2q40 0 68 -29.5t28 -72.5q0 -40 -28.5 -69.5t-69.5 -29.5 q-38 0 -67 29.5t-29 69.5z" />
<glyph unicode="&#xd0;" horiz-adv-x="1509" d="M76 655v84h209v312q0 54 -1.5 85.5t-9 58.5t-17 39t-32.5 22t-47 13.5t-69 6.5v55h565q385 0 567 -174q81 -77 128.5 -190t47.5 -250q0 -142 -42.5 -260t-119 -202t-183.5 -141.5t-235.5 -85.5t-275.5 -28h-469v57q48 3 75.5 6t52 13.5t35.5 23t19 39.5t9.5 58t1.5 84 v374h-209zM459 270q0 -56 7 -89t27.5 -58.5t60 -36t103.5 -10.5q112 0 204.5 32t156.5 88t108.5 133.5t65 167t20.5 189.5q0 169 -59 297.5t-176 200.5q-129 80 -332 80q-120 0 -162 -21q-24 -15 -24 -88v-416h321v-84h-321v-385z" />
<glyph unicode="&#xd1;" horiz-adv-x="1521" d="M41 1274v57h301l856 -1026h6v502q0 240 -14 340q-7 68 -50 94.5t-151 32.5v57h484v-57q-89 -5 -128 -31t-45 -90q-12 -95 -12 -346v-825h-63l-873 1073h-4v-514q0 -228 12 -346q7 -76 48.5 -104t148.5 -34v-57h-485v57q92 6 132.5 33.5t47.5 99.5q12 126 12 351v450 q0 110 -6 139.5t-35 67.5q-32 38 -70.5 54t-111.5 22zM500 1446q35 89 78.5 128.5t85.5 39.5h2q46 0 125 -39q74 -33 112 -33q54 0 94 88l52 -28q-31 -94 -75.5 -134.5t-92.5 -40.5q-50 0 -144 46q-58 28 -90 28q-28 0 -50.5 -22t-47.5 -68z" />
<glyph unicode="&#xd2;" horiz-adv-x="1529" d="M90 651q0 111 30 215.5t89 194t140.5 157t192 106t236.5 38.5h2q129 0 249 -49.5t211 -136t145.5 -215.5t54.5 -279q0 -162 -54 -297.5t-147 -225.5t-217.5 -140t-265.5 -50q-184 0 -336 87.5t-241 244t-89 350.5zM299 709q0 -190 64.5 -342.5t178.5 -238t257 -85.5 q87 0 164 36.5t137.5 107t95.5 184t35 256.5q0 158 -39.5 285t-107.5 208t-156.5 124.5t-190.5 43.5h-2q-87 0 -164.5 -37t-138.5 -107.5t-97 -182.5t-36 -252zM502 1565q6 23 38 66.5t50 49.5q262 -170 323 -211l-26 -51l-381 129z" />
<glyph unicode="&#xd3;" horiz-adv-x="1529" d="M90 651q0 111 30 215.5t89 194t140.5 157t192 106t236.5 38.5h2q129 0 249 -49.5t211 -136t145.5 -215.5t54.5 -279q0 -162 -54 -297.5t-147 -225.5t-217.5 -140t-265.5 -50q-184 0 -336 87.5t-241 244t-89 350.5zM299 709q0 -190 64.5 -342.5t178.5 -238t257 -85.5 q87 0 164 36.5t137.5 107t95.5 184t35 256.5q0 158 -39.5 285t-107.5 208t-156.5 124.5t-190.5 43.5h-2q-87 0 -164.5 -37t-138.5 -107.5t-97 -182.5t-36 -252zM623 1466q66 42 187.5 121.5t133.5 87.5q18 -3 50.5 -46t37.5 -66l-4 -17l-379 -131z" />
<glyph unicode="&#xd4;" horiz-adv-x="1529" d="M90 651q0 111 30 215.5t89 194t140.5 157t192 106t236.5 38.5h2q129 0 249 -49.5t211 -136t145.5 -215.5t54.5 -279q0 -162 -54 -297.5t-147 -225.5t-217.5 -140t-265.5 -50q-184 0 -336 87.5t-241 244t-89 350.5zM299 709q0 -190 64.5 -342.5t178.5 -238t257 -85.5 q87 0 164 36.5t137.5 107t95.5 184t35 256.5q0 158 -39.5 285t-107.5 208t-156.5 124.5t-190.5 43.5h-2q-87 0 -164.5 -37t-138.5 -107.5t-97 -182.5t-36 -252zM485 1466q5 4 37 28.5t40.5 31t35.5 28t40 33t34 30t38 35.5t33 34h45q73 -79 256 -220l-32 -51 q-104 44 -248 127q-162 -91 -246 -127z" />
<glyph unicode="&#xd5;" horiz-adv-x="1529" d="M90 651q0 111 30 215.5t89 194t140.5 157t192 106t236.5 38.5h2q129 0 249 -49.5t211 -136t145.5 -215.5t54.5 -279q0 -162 -54 -297.5t-147 -225.5t-217.5 -140t-265.5 -50q-184 0 -336 87.5t-241 244t-89 350.5zM299 709q0 -190 64.5 -342.5t178.5 -238t257 -85.5 q87 0 164 36.5t137.5 107t95.5 184t35 256.5q0 158 -39.5 285t-107.5 208t-156.5 124.5t-190.5 43.5h-2q-87 0 -164.5 -37t-138.5 -107.5t-97 -182.5t-36 -252zM496 1464q35 89 78 128.5t85 39.5h3q45 0 124 -39q72 -32 113 -32q54 0 94 88l51 -29q-31 -94 -75 -134t-92 -40 q-52 0 -144 45q-3 1 -13.5 6.5t-13 6.5t-11 5t-13 5t-12 3t-14 2.5t-13.5 0.5q-28 0 -50.5 -22t-47.5 -68z" />
<glyph unicode="&#xd6;" horiz-adv-x="1529" d="M90 651q0 111 30 215.5t89 194t140.5 157t192 106t236.5 38.5h2q129 0 249 -49.5t211 -136t145.5 -215.5t54.5 -279q0 -162 -54 -297.5t-147 -225.5t-217.5 -140t-265.5 -50q-184 0 -336 87.5t-241 244t-89 350.5zM299 709q0 -190 64.5 -342.5t178.5 -238t257 -85.5 q87 0 164 36.5t137.5 107t95.5 184t35 256.5q0 158 -39.5 285t-107.5 208t-156.5 124.5t-190.5 43.5h-2q-87 0 -164.5 -37t-138.5 -107.5t-97 -182.5t-36 -252zM473 1534q0 42 28.5 72t67.5 30h2q40 0 68.5 -29.5t28.5 -72.5q0 -40 -29 -69t-70 -29q-38 0 -67 29t-29 69z M864 1534q0 42 29 72t68 30h2q40 0 68 -29.5t28 -72.5q0 -40 -28.5 -69t-69.5 -29q-39 0 -68 29t-29 69z" />
<glyph unicode="&#xd7;" horiz-adv-x="1187" d="M123 94l395 408l-395 405l72 78l399 -407l399 409l76 -76l-399 -409l399 -408l-76 -78l-399 408l-399 -408z" />
<glyph unicode="&#xd8;" horiz-adv-x="1533" d="M102 653q0 139 49.5 266.5t137.5 226t221 157.5t289 59q191 0 334 -94l102 153l61 -41l-100 -151q116 -96 187 -237t71 -306q0 -161 -54 -297t-147 -227t-219 -142t-268 -51q-195 0 -354 103l-115 -164l-55 47l108 160q-114 95 -181 234.5t-67 303.5zM307 705 q0 -132 37 -250.5t100 -202.5l615 907q-120 129 -307 129q-88 0 -167 -37t-141.5 -107.5t-99.5 -184t-37 -254.5zM492 188q56 -71 137 -108t172 -37q112 0 199.5 46t141 126.5t80.5 184.5t27 225q0 281 -141 475z" />
<glyph unicode="&#xd9;" horiz-adv-x="1507" d="M68 1274v57h528v-57q-45 -3 -69 -6t-47 -12t-32.5 -20t-17 -36t-9 -54t-1.5 -79v-465q0 -251 98 -385.5t287 -134.5q108 0 184.5 43t120 124t63 183.5t19.5 235.5v153q0 228 -14 338q-7 60 -48.5 83.5t-150.5 31.5v57h487v-57q-94 -6 -133 -32t-45 -89q-12 -110 -12 -334 v-166q0 -191 -35 -321t-119 -219q-70 -71 -166 -106.5t-202 -35.5q-200 0 -328 97q-92 71 -136 189.5t-44 299.5v510q0 37 -1 61.5t-5 46.5t-8 35t-15.5 24.5t-21.5 16.5t-32 10.5t-41 7.5t-54 5zM487 1546q6 23 38 67t50 50q290 -188 324 -211l-27 -51l-380 129z" />
<glyph unicode="&#xda;" horiz-adv-x="1507" d="M68 1274v57h528v-57q-45 -3 -69 -6t-47 -12t-32.5 -20t-17 -36t-9 -54t-1.5 -79v-465q0 -251 98 -385.5t287 -134.5q108 0 184.5 43t120 124t63 183.5t19.5 235.5v153q0 228 -14 338q-7 60 -48.5 83.5t-150.5 31.5v57h487v-57q-94 -6 -133 -32t-45 -89q-12 -110 -12 -334 v-166q0 -191 -35 -321t-119 -219q-70 -71 -166 -106.5t-202 -35.5q-200 0 -328 97q-92 71 -136 189.5t-44 299.5v510q0 37 -1 61.5t-5 46.5t-8 35t-15.5 24.5t-21.5 16.5t-32 10.5t-41 7.5t-54 5zM653 1452q49 31 106 68t121.5 79t94.5 62q18 -3 50.5 -46.5t37.5 -66.5 l-4 -16l-379 -131z" />
<glyph unicode="&#xdb;" horiz-adv-x="1507" d="M68 1274v57h528v-57q-45 -3 -69 -6t-47 -12t-32.5 -20t-17 -36t-9 -54t-1.5 -79v-465q0 -251 98 -385.5t287 -134.5q108 0 184.5 43t120 124t63 183.5t19.5 235.5v153q0 228 -14 338q-7 60 -48.5 83.5t-150.5 31.5v57h487v-57q-94 -6 -133 -32t-45 -89q-12 -110 -12 -334 v-166q0 -191 -35 -321t-119 -219q-70 -71 -166 -106.5t-202 -35.5q-200 0 -328 97q-92 71 -136 189.5t-44 299.5v510q0 37 -1 61.5t-5 46.5t-8 35t-15.5 24.5t-21.5 16.5t-32 10.5t-41 7.5t-54 5zM500 1452q8 6 43 33t47 36.5t41.5 33t46 38.5t39 36.5t41.5 41.5h45 q14 -15 30.5 -31.5t29 -28t33.5 -29.5t30.5 -26t34.5 -28t31 -24.5t35 -27t32 -24.5l-33 -51q-104 44 -248 127q-162 -91 -246 -127z" />
<glyph unicode="&#xdc;" horiz-adv-x="1507" d="M68 1274v57h528v-57q-45 -3 -69 -6t-47 -12t-32.5 -20t-17 -36t-9 -54t-1.5 -79v-465q0 -251 98 -385.5t287 -134.5q108 0 184.5 43t120 124t63 183.5t19.5 235.5v153q0 228 -14 338q-7 60 -48.5 83.5t-150.5 31.5v57h487v-57q-94 -6 -133 -32t-45 -89q-12 -110 -12 -334 v-166q0 -191 -35 -321t-119 -219q-70 -71 -166 -106.5t-202 -35.5q-200 0 -328 97q-92 71 -136 189.5t-44 299.5v510q0 37 -1 61.5t-5 46.5t-8 35t-15.5 24.5t-21.5 16.5t-32 10.5t-41 7.5t-54 5zM479 1526q0 42 28.5 72t67.5 30h3q40 0 68 -29.5t28 -72.5q0 -40 -29 -69.5 t-70 -29.5q-38 0 -67 29.5t-29 69.5zM870 1526q0 42 29 72t68 30h2q40 0 68 -29.5t28 -72.5q0 -40 -28.5 -69.5t-69.5 -29.5q-38 0 -67.5 29.5t-29.5 69.5z" />
<glyph unicode="&#xdd;" horiz-adv-x="1298" d="M31 1274v57h489v-57q-55 -7 -84 -15t-37 -22.5t-3.5 -29.5t20.5 -44q61 -114 278 -485q189 345 242 461q37 76 18 99.5t-137 35.5v57h453v-57q-73 -8 -110.5 -23t-64.5 -43.5t-69 -95.5q-146 -238 -258 -448q-22 -40 -28.5 -64.5t-6.5 -64.5v-279q0 -47 1.5 -74t10 -51 t20 -35t37.5 -20t55 -12.5t81 -6.5v-57h-580v57q51 3 79.5 6.5t54 12.5t36.5 20t19.5 35t10 51t1.5 74v272q0 30 -8 52t-35 71q-3 5 -97.5 170.5t-160.5 278.5q-45 77 -70.5 108t-59 46t-97.5 20zM555 1452q49 31 106 68t121.5 79t94.5 62q18 -3 50.5 -46.5t37.5 -66.5 l-4 -16l-379 -131z" />
<glyph unicode="&#xde;" horiz-adv-x="1124" d="M78 0v57q44 3 69 6.5t47.5 13t32 21.5t17 37.5t9 54.5t1.5 80v791q0 52 -1 80.5t-8 55t-16 37.5t-30.5 20.5t-45 13t-67.5 6.5v57h504v-57q-33 -3 -50.5 -4.5t-38 -7t-29.5 -11t-20 -19t-14 -28t-7 -41.5t-4.5 -55.5t-0.5 -73.5q122 4 180 4q209 0 323.5 -84.5 t114.5 -263.5q0 -92 -39.5 -165.5t-106 -119t-150 -69.5t-177.5 -25l-145 35v-86q0 -48 1.5 -76t10 -52t19 -35.5t35 -20.5t51.5 -12.5t75 -6.5v-57h-540zM426 418q62 -25 139 -25q124 0 203.5 76t79.5 215q0 142 -75.5 214.5t-213.5 72.5q-80 0 -110 -19q-12 -7 -17.5 -20 t-5.5 -45v-469z" />
<glyph unicode="&#xdf;" horiz-adv-x="1116" d="M57 825l58 68h96v25q0 92 25 176q8 28 17 50.5t27 58t49.5 73t73.5 72.5q119 99 263 110q94 -2 164.5 -37.5t112 -105t44.5 -166.5q0 -50 -22 -84q-211 -167 -211 -281q0 -12 2 -24t8 -24.5t10 -21t15.5 -22t16.5 -20t21.5 -21.5t21 -19.5t24.5 -22t24 -21.5 q34 -29 58 -53.5t51 -59t41 -74.5t14 -82q0 -58 -25.5 -113.5t-66.5 -96.5t-90.5 -72.5t-100.5 -47.5t-94 -16q-35 0 -71.5 10.5t-62 33.5t-20.5 53q6 23 31 47.5t49 7.5q77 -59 152 -59q56 0 101.5 41t45.5 126q0 63 -34.5 113.5t-106.5 112.5q-168 140 -168 250 q0 53 32.5 104t110.5 135q81 81 88 92q15 27 15 70q0 103 -70 182.5t-174 79.5q-49 0 -87 -20t-62.5 -60t-41 -87.5t-24.5 -115t-11 -129.5t-3 -143v-604q0 -97 18 -124t90 -34v-55h-418v55q52 4 79.5 10.5t44 25.5t20.5 44t4 74v596h-143z" />
<glyph unicode="&#xe0;" horiz-adv-x="899" d="M80 225q0 144 166 201q261 87 317 133v35q0 111 -46.5 171t-125.5 60q-59 0 -90 -39q-31 -31 -61 -133q-14 -47 -60 -47q-30 0 -59 26t-29 60q0 21 15.5 39t48.5 43q54 39 140 82.5t165 61.5q100 0 168 -56q51 -44 71.5 -104.5t20.5 -147.5v-379q0 -64 21 -93t51 -29 q33 0 73 24l21 -53l-174 -105q-23 0 -51 11.5t-46 27.5q-33 33 -49 92q-12 -8 -49 -33.5t-55.5 -37.5t-47.5 -29t-50.5 -24t-38.5 -7q-106 0 -176 75t-70 175zM221 1327l6 16q15 8 72.5 19t79.5 8q70 -174 137 -344l-55 -29q-136 190 -240 330zM254 254q0 -73 45.5 -114.5 t99.5 -41.5q39 0 86.5 22t77.5 52v317q-6 -3 -184 -86q-65 -30 -95 -62.5t-30 -86.5z" />
<glyph unicode="&#xe1;" horiz-adv-x="899" d="M80 225q0 144 166 201q261 87 317 133v35q0 111 -46.5 171t-125.5 60q-59 0 -90 -39q-31 -31 -61 -133q-14 -47 -60 -47q-30 0 -59 26t-29 60q0 21 15.5 39t48.5 43q54 39 140 82.5t165 61.5q100 0 168 -56q51 -44 71.5 -104.5t20.5 -147.5v-379q0 -64 21 -93t51 -29 q33 0 73 24l21 -53l-174 -105q-23 0 -51 11.5t-46 27.5q-33 33 -49 92q-12 -8 -49 -33.5t-55.5 -37.5t-47.5 -29t-50.5 -24t-38.5 -7q-106 0 -176 75t-70 175zM254 254q0 -73 45.5 -114.5t99.5 -41.5q39 0 86.5 22t77.5 52v317q-6 -3 -184 -86q-65 -30 -95 -62.5t-30 -86.5z M367 1020q73 161 137 321q15 6 79.5 16t82.5 7l6 -18l-252 -353z" />
<glyph unicode="&#xe2;" horiz-adv-x="899" d="M80 225q0 144 166 201q261 87 317 133v35q0 111 -46.5 171t-125.5 60q-59 0 -90 -39q-31 -31 -61 -133q-14 -47 -60 -47q-30 0 -59 26t-29 60q0 21 15.5 39t48.5 43q54 39 140 82.5t165 61.5q100 0 168 -56q51 -44 71.5 -104.5t20.5 -147.5v-379q0 -64 21 -93t51 -29 q33 0 73 24l21 -53l-174 -105q-23 0 -51 11.5t-46 27.5q-33 33 -49 92q-12 -8 -49 -33.5t-55.5 -37.5t-47.5 -29t-50.5 -24t-38.5 -7q-106 0 -176 75t-70 175zM197 1026q102 142 206 334h52q95 -181 202 -334l-51 -35q-82 76 -178 199q-105 -130 -182 -199zM254 254 q0 -73 45.5 -114.5t99.5 -41.5q39 0 86.5 22t77.5 52v317q-6 -3 -184 -86q-65 -30 -95 -62.5t-30 -86.5z" />
<glyph unicode="&#xe3;" horiz-adv-x="899" d="M80 225q0 144 166 201q261 87 317 133v35q0 111 -46.5 171t-125.5 60q-59 0 -90 -39q-31 -31 -61 -133q-14 -47 -60 -47q-30 0 -59 26t-29 60q0 21 15.5 39t48.5 43q54 39 140 82.5t165 61.5q100 0 168 -56q51 -44 71.5 -104.5t20.5 -147.5v-379q0 -64 21 -93t51 -29 q33 0 73 24l21 -53l-174 -105q-23 0 -51 11.5t-46 27.5q-33 33 -49 92q-12 -8 -49 -33.5t-55.5 -37.5t-47.5 -29t-50.5 -24t-38.5 -7q-106 0 -176 75t-70 175zM168 1069q31 97 75 140.5t89 43.5h2q41 0 119 -41q71 -38 108 -38q46 0 88 92l51 -29q-58 -184 -161 -184 q-50 0 -136 49q-54 31 -92 31q-51 0 -90 -99zM254 254q0 -73 45.5 -114.5t99.5 -41.5q39 0 86.5 22t77.5 52v317q-6 -3 -184 -86q-65 -30 -95 -62.5t-30 -86.5z" />
<glyph unicode="&#xe4;" horiz-adv-x="899" d="M80 225q0 144 166 201q261 87 317 133v35q0 111 -46.5 171t-125.5 60q-59 0 -90 -39q-31 -31 -61 -133q-14 -47 -60 -47q-30 0 -59 26t-29 60q0 21 15.5 39t48.5 43q54 39 140 82.5t165 61.5q100 0 168 -56q51 -44 71.5 -104.5t20.5 -147.5v-379q0 -64 21 -93t51 -29 q33 0 73 24l21 -53l-174 -105q-23 0 -51 11.5t-46 27.5q-33 33 -49 92q-12 -8 -49 -33.5t-55.5 -37.5t-47.5 -29t-50.5 -24t-38.5 -7q-106 0 -176 75t-70 175zM160 1167q0 42 28.5 72.5t67.5 30.5h2q40 0 68 -30t28 -73q0 -40 -28.5 -69t-69.5 -29q-38 0 -67 29t-29 69z M254 254q0 -73 45.5 -114.5t99.5 -41.5q39 0 86.5 22t77.5 52v317q-6 -3 -184 -86q-65 -30 -95 -62.5t-30 -86.5zM506 1167q0 42 28.5 72.5t67.5 30.5h2q40 0 68 -30t28 -73q0 -40 -28.5 -69t-69.5 -29q-38 0 -67 29t-29 69z" />
<glyph unicode="&#xe5;" horiz-adv-x="899" d="M80 225q0 144 166 201q261 87 317 133v35q0 111 -46.5 171t-125.5 60q-59 0 -90 -39q-31 -31 -61 -133q-14 -47 -60 -47q-30 0 -59 26t-29 60q0 21 15.5 39t48.5 43q54 39 140 82.5t165 61.5q100 0 168 -56q51 -44 71.5 -104.5t20.5 -147.5v-379q0 -64 21 -93t51 -29 q33 0 73 24l21 -53l-174 -105q-23 0 -51 11.5t-46 27.5q-33 33 -49 92q-12 -8 -49 -33.5t-55.5 -37.5t-47.5 -29t-50.5 -24t-38.5 -7q-106 0 -176 75t-70 175zM250 1174q0 78 54.5 125t127.5 47h2q71 0 124.5 -47t53.5 -125t-54 -126.5t-126 -48.5q-73 0 -127.5 48.5 t-54.5 126.5zM254 254q0 -73 45.5 -114.5t99.5 -41.5q39 0 86.5 22t77.5 52v317q-6 -3 -184 -86q-65 -30 -95 -62.5t-30 -86.5zM342 1174q0 -48 25.5 -80.5t66.5 -32.5q40 0 65 32.5t25 80.5t-24.5 78t-65.5 30h-2q-40 0 -65 -30.5t-25 -77.5z" />
<glyph unicode="&#xe6;" horiz-adv-x="1374" d="M82 221q0 77 39 125t123 78q9 3 43.5 15t49 17t47 16.5t49.5 18t43.5 17.5t43 18.5t34 17t28.5 17.5v49q0 95 -53 155t-128 60q-63 0 -96 -45q-30 -38 -55 -129q-15 -49 -57 -49q-27 0 -61 27t-34 57q0 43 64 88q60 40 146 83t163 61q88 0 147 -42t87 -114 q63 71 143 113.5t160 42.5q129 0 221 -94.5t94 -213.5q0 -36 -9 -50.5t-38 -20.5t-201 -18t-344 -17q-1 -98 25.5 -175t73 -123t103 -69.5t118.5 -23.5q119 0 227 102l35 -43q-55 -74 -125.5 -121t-120 -61.5t-88.5 -14.5q-109 0 -194 48.5t-136 132.5l-71 -56 q-69 -51 -138 -88t-110 -37q-108 0 -178 75t-70 171zM256 260q0 -72 45 -114t105 -42h2q53 0 109.5 27t103.5 88q-41 83 -41 273q-23 -12 -201 -86q-66 -29 -94.5 -61t-28.5 -85zM743 586q40 1 112.5 1.5t133.5 1.5t115 3q23 0 33 9.5t10 35.5q0 83 -50.5 143t-135.5 60h-3 q-75 0 -138 -67t-77 -187z" />
<glyph unicode="&#xe7;" horiz-adv-x="862" d="M76 399q0 118 53 221.5t152 178.5q157 119 313 119q41 0 89.5 -11.5t89 -40t36.5 -65.5q-1 -30 -26.5 -59t-47.5 -29q-17 0 -37 20q-94 84 -211 84q-44 0 -85.5 -18.5t-78 -55.5t-59 -101.5t-22.5 -147.5q0 -84 21.5 -152t55 -109t76 -69t81.5 -38.5t75 -10.5 q70 0 125 24t125 90l37 -45q-136 -165 -283 -198l-27 -39q-18 -27 -14.5 -41.5t29.5 -40.5q75 -75 75 -139q0 -61 -61.5 -116.5t-167.5 -90.5l-22 53q59 25 89.5 58t30.5 67q0 15 -8.5 31t-15 23t-23.5 24q-38 37 -43 61t21 62l59 77q-177 6 -289 126.5t-112 297.5z" />
<glyph unicode="&#xe8;" horiz-adv-x="870" d="M76 412q0 103 35.5 195.5t99.5 160.5q64 70 143 110t156 40h2q125 0 216 -94.5t91 -215.5q0 -32 -9.5 -45.5t-37.5 -19.5q-31 -6 -200.5 -18t-335.5 -17q1 -100 28.5 -178.5t72.5 -123.5t97.5 -68t108.5 -23q124 0 235 102l31 -45q-86 -106 -178 -151.5t-156 -45.5 q-122 0 -214.5 61.5t-138.5 160t-46 215.5zM246 592q170 0 348 6q28 0 38.5 8.5t10.5 30.5q2 83 -48 144t-132 61h-2q-72 0 -132.5 -66t-82.5 -184zM250 1323l6 16q15 8 72.5 19t79.5 8q70 -174 137 -344l-56 -29q-161 226 -239 330z" />
<glyph unicode="&#xe9;" horiz-adv-x="870" d="M76 412q0 103 35.5 195.5t99.5 160.5q64 70 143 110t156 40h2q125 0 216 -94.5t91 -215.5q0 -32 -9.5 -45.5t-37.5 -19.5q-31 -6 -200.5 -18t-335.5 -17q1 -100 28.5 -178.5t72.5 -123.5t97.5 -68t108.5 -23q124 0 235 102l31 -45q-86 -106 -178 -151.5t-156 -45.5 q-122 0 -214.5 61.5t-138.5 160t-46 215.5zM246 592q170 0 348 6q28 0 38.5 8.5t10.5 30.5q2 83 -48 144t-132 61h-2q-72 0 -132.5 -66t-82.5 -184zM395 1026q70 153 137 322q14 6 79 15.5t83 6.5l6 -18l-251 -353z" />
<glyph unicode="&#xea;" horiz-adv-x="870" d="M76 412q0 103 35.5 195.5t99.5 160.5q64 70 143 110t156 40h2q125 0 216 -94.5t91 -215.5q0 -32 -9.5 -45.5t-37.5 -19.5q-31 -6 -200.5 -18t-335.5 -17q1 -100 28.5 -178.5t72.5 -123.5t97.5 -68t108.5 -23q124 0 235 102l31 -45q-86 -106 -178 -151.5t-156 -45.5 q-122 0 -214.5 61.5t-138.5 160t-46 215.5zM238 1026q102 142 206 334h52q95 -181 202 -334l-51 -35q-82 76 -178 199q-105 -130 -182 -199zM246 592q170 0 348 6q28 0 38.5 8.5t10.5 30.5q2 83 -48 144t-132 61h-2q-72 0 -132.5 -66t-82.5 -184z" />
<glyph unicode="&#xeb;" horiz-adv-x="870" d="M76 412q0 103 35.5 195.5t99.5 160.5q64 70 143 110t156 40h2q125 0 216 -94.5t91 -215.5q0 -32 -9.5 -45.5t-37.5 -19.5q-31 -6 -200.5 -18t-335.5 -17q1 -100 28.5 -178.5t72.5 -123.5t97.5 -68t108.5 -23q124 0 235 102l31 -45q-86 -106 -178 -151.5t-156 -45.5 q-122 0 -214.5 61.5t-138.5 160t-46 215.5zM190 1167q0 42 29 72.5t68 30.5h2q40 0 68 -30t28 -73q0 -40 -28.5 -69t-69.5 -29q-39 0 -68 29.5t-29 68.5zM246 592q170 0 348 6q28 0 38.5 8.5t10.5 30.5q2 83 -48 144t-132 61h-2q-72 0 -132.5 -66t-82.5 -184zM537 1167 q0 42 28.5 72.5t67.5 30.5h2q40 0 68 -30t28 -73q0 -40 -28.5 -69t-69.5 -29q-38 0 -67 29t-29 69z" />
<glyph unicode="&#xec;" horiz-adv-x="548" d="M49 1327l6 16q15 8 72.5 19t79.5 8q70 -174 137 -344l-55 -29q-136 190 -240 330zM68 0v53q35 3 55.5 6.5t38.5 11.5t26 17.5t14 29.5t7.5 42.5t1.5 60.5v410q0 55 -2.5 80.5t-18 44t-37 24t-71.5 13.5v49q159 24 291 80v-701q0 -46 3 -71t10 -45t25 -29t41 -14t66 -9 v-53h-450z" />
<glyph unicode="&#xed;" horiz-adv-x="548" d="M68 0v53q35 3 55.5 6.5t38.5 11.5t26 17.5t14 29.5t7.5 42.5t1.5 60.5v410q0 55 -2.5 80.5t-18 44t-37 24t-71.5 13.5v49q159 24 291 80v-701q0 -46 3 -71t10 -45t25 -29t41 -14t66 -9v-53h-450zM199 1020q73 161 137 321q15 6 79.5 16t82.5 7l6 -18l-252 -353z" />
<glyph unicode="&#xee;" horiz-adv-x="548" d="M39 1026q106 148 207 334h51q92 -176 203 -334l-51 -35q-85 79 -179 199q-105 -130 -182 -199zM68 0v53q35 3 55.5 6.5t38.5 11.5t26 17.5t14 29.5t7.5 42.5t1.5 60.5v410q0 55 -2.5 80.5t-18 44t-37 24t-71.5 13.5v49q159 24 291 80v-701q0 -46 3 -71t10 -45t25 -29 t41 -14t66 -9v-53h-450z" />
<glyph unicode="&#xef;" horiz-adv-x="548" d="M-2 1167q0 42 28.5 72.5t67.5 30.5h2q40 0 68.5 -30t28.5 -73q0 -40 -29 -69t-70 -29q-38 0 -67 29t-29 69zM68 0v53q35 3 55.5 6.5t38.5 11.5t26 17.5t14 29.5t7.5 42.5t1.5 60.5v410q0 55 -2.5 80.5t-18 44t-37 24t-71.5 13.5v49q159 24 291 80v-701q0 -46 3 -71 t10 -45t25 -29t41 -14t66 -9v-53h-450zM344 1167q0 42 28.5 72.5t67.5 30.5h2q40 0 68.5 -30t28.5 -73q0 -40 -29 -69t-70 -29q-38 0 -67 29t-29 69z" />
<glyph unicode="&#xf0;" horiz-adv-x="1034" d="M78 426q0 96 28.5 179t75 139t106 96.5t120.5 59t120 18.5h2q105 0 197 -50q-37 170 -147 297l-297 -159l-33 63l276 150q-163 151 -354 178q-9 12 -4.5 32.5t16.5 28.5q110 -6 230 -52t217 -126l258 137l33 -63l-232 -125q266 -284 266 -682q0 -143 -37.5 -255 t-101.5 -180t-142.5 -102.5t-166.5 -34.5q-96 0 -178.5 40t-136.5 104.5t-84.5 144.5t-30.5 162zM268 483q0 -195 75 -316.5t200 -121.5q47 0 86 21t73 68.5t53.5 135t20.5 209.5q1 134 -13 194.5t-48 96.5q-80 80 -195 80h-2q-111 0 -180.5 -101t-69.5 -266z" />
<glyph unicode="&#xf1;" horiz-adv-x="1120" d="M59 0v53q39 4 60 7t40.5 11t27 16.5t14 27.5t7.5 40t1 58v422q0 53 -2.5 77.5t-18 42.5t-35.5 23.5t-67 14.5v47q169 31 285 84v-164q28 21 137 96q96 62 170 62q124 0 194 -81.5t70 -228.5v-395q0 -38 1 -59.5t7 -40.5t12.5 -27.5t24 -16t35 -10.5t51.5 -6v-53h-428v53 q91 9 113 36.5t22 133.5v340q0 234 -186 234q-102 0 -223 -105v-479q0 -38 1 -59.5t7 -40.5t13 -27.5t24.5 -16t35.5 -10.5t52 -6v-53h-445zM291 1069q31 97 75 140.5t89 43.5h2q40 0 118 -41q71 -38 109 -38q46 0 88 92l51 -29q-58 -184 -161 -184q-50 0 -136 49 q-54 31 -92 31q-51 0 -90 -99z" />
<glyph unicode="&#xf2;" horiz-adv-x="1044" d="M76 426q0 121 43.5 218.5t111.5 155t144 88t149 30.5h2q124 0 226.5 -61.5t159.5 -166t57 -229.5q0 -95 -27 -176.5t-71.5 -137.5t-102.5 -95.5t-120 -58t-124 -18.5q-102 0 -188 38.5t-142 102.5t-87 144.5t-31 165.5zM266 492q0 -196 77.5 -322.5t203.5 -126.5 q105 0 168 88t63 287q0 187 -73 309.5t-203 122.5h-2q-97 0 -165.5 -96t-68.5 -262zM309 1323l6 16q15 8 72.5 19t79.5 8q70 -174 137 -344l-55 -29q-136 190 -240 330z" />
<glyph unicode="&#xf3;" horiz-adv-x="1044" d="M76 426q0 121 43.5 218.5t111.5 155t144 88t149 30.5h2q124 0 226.5 -61.5t159.5 -166t57 -229.5q0 -95 -27 -176.5t-71.5 -137.5t-102.5 -95.5t-120 -58t-124 -18.5q-102 0 -188 38.5t-142 102.5t-87 144.5t-31 165.5zM266 492q0 -196 77.5 -322.5t203.5 -126.5 q105 0 168 88t63 287q0 187 -73 309.5t-203 122.5h-2q-97 0 -165.5 -96t-68.5 -262zM449 1020q73 161 137 321q15 6 79.5 16t82.5 7l6 -18l-252 -353z" />
<glyph unicode="&#xf4;" horiz-adv-x="1044" d="M76 426q0 121 43.5 218.5t111.5 155t144 88t149 30.5h2q124 0 226.5 -61.5t159.5 -166t57 -229.5q0 -95 -27 -176.5t-71.5 -137.5t-102.5 -95.5t-120 -58t-124 -18.5q-102 0 -188 38.5t-142 102.5t-87 144.5t-31 165.5zM266 492q0 -196 77.5 -322.5t203.5 -126.5 q105 0 168 88t63 287q0 187 -73 309.5t-203 122.5h-2q-97 0 -165.5 -96t-68.5 -262zM293 1026q106 148 207 334h51q92 -176 203 -334l-52 -35q-82 76 -178 199q-105 -130 -182 -199z" />
<glyph unicode="&#xf5;" horiz-adv-x="1044" d="M76 426q0 121 43.5 218.5t111.5 155t144 88t149 30.5h2q124 0 226.5 -61.5t159.5 -166t57 -229.5q0 -95 -27 -176.5t-71.5 -137.5t-102.5 -95.5t-120 -58t-124 -18.5q-102 0 -188 38.5t-142 102.5t-87 144.5t-31 165.5zM256 1069q31 97 75 140.5t89 43.5h2q41 0 119 -41 q71 -38 108 -38q46 0 88 92l51 -29q-58 -184 -161 -184q-49 0 -135 49q-54 31 -93 31q-51 0 -90 -99zM266 492q0 -196 77.5 -322.5t203.5 -126.5q105 0 168 88t63 287q0 187 -73 309.5t-203 122.5h-2q-97 0 -165.5 -96t-68.5 -262z" />
<glyph unicode="&#xf6;" horiz-adv-x="1044" d="M76 426q0 121 43.5 218.5t111.5 155t144 88t149 30.5h2q124 0 226.5 -61.5t159.5 -166t57 -229.5q0 -95 -27 -176.5t-71.5 -137.5t-102.5 -95.5t-120 -58t-124 -18.5q-102 0 -188 38.5t-142 102.5t-87 144.5t-31 165.5zM252 1167q0 42 28.5 72.5t67.5 30.5h2q40 0 68 -30 t28 -73q0 -40 -28.5 -69t-69.5 -29q-38 0 -67 29t-29 69zM266 492q0 -196 77.5 -322.5t203.5 -126.5q105 0 168 88t63 287q0 187 -73 309.5t-203 122.5h-2q-97 0 -165.5 -96t-68.5 -262zM598 1167q0 42 28.5 72.5t67.5 30.5h2q40 0 68.5 -30t28.5 -73q0 -40 -29 -69t-70 -29 q-38 0 -67 29t-29 69z" />
<glyph unicode="&#xf7;" horiz-adv-x="1187" d="M104 469v102h979v-102h-979zM494 215q0 43 29.5 71.5t72.5 28.5h2q37 0 67.5 -29.5t30.5 -70.5q0 -39 -31.5 -69.5t-68.5 -30.5q-42 0 -72 30t-30 70zM498 823q0 39 31 70t69 31q41 0 71.5 -30.5t30.5 -70.5q0 -41 -30.5 -70.5t-71.5 -29.5h-2q-38 0 -68 30t-30 70z" />
<glyph unicode="&#xf8;" horiz-adv-x="1050" d="M76 428q0 96 29 178.5t76.5 138.5t108 96t122 58.5t120.5 18.5q119 0 224 -62l75 111l54 -39l-72 -107q77 -65 119.5 -158t42.5 -198q0 -117 -40 -212.5t-104.5 -154.5t-141.5 -91t-157 -32q-130 0 -239 64l-80 -113l-51 45l76 107q-76 66 -119 159.5t-43 190.5zM258 477 q0 -163 64 -272l370 555q-30 41 -79 65.5t-103 24.5q-107 0 -179.5 -99.5t-72.5 -273.5zM365 143q65 -100 186 -100q49 0 91.5 22.5t77.5 67.5t55 123t20 180q0 148 -62 260z" />
<glyph unicode="&#xf9;" horiz-adv-x="1087" d="M59 825v49q6 0 148 11q120 17 145 22q-6 -63 -6 -295v-276q0 -126 50.5 -179t129.5 -53q120 0 222 99v479q0 79 -16 101t-70 30l-74 12v49q74 3 169 12.5t152 20.5v-682q0 -52 8.5 -76t27 -33t61.5 -12l55 -2v-53q-107 -14 -301 -74l-12 13v147l-24 -19 q-25 -20 -31 -24.5t-30.5 -22.5t-35.5 -24.5t-34 -21t-39 -20.5t-37 -14t-40.5 -11t-38.5 -3q-112 0 -183 75t-71 231v401q0 78 -13 100.5t-54 30.5zM305 1327l6 16q15 8 72.5 19t79.5 8q70 -174 137 -344l-55 -29q-136 190 -240 330z" />
<glyph unicode="&#xfa;" horiz-adv-x="1087" d="M59 825v49q6 0 148 11q120 17 145 22q-6 -63 -6 -295v-276q0 -126 50.5 -179t129.5 -53q120 0 222 99v479q0 79 -16 101t-70 30l-74 12v49q74 3 169 12.5t152 20.5v-682q0 -52 8.5 -76t27 -33t61.5 -12l55 -2v-53q-107 -14 -301 -74l-12 13v147l-24 -19 q-25 -20 -31 -24.5t-30.5 -22.5t-35.5 -24.5t-34 -21t-39 -20.5t-37 -14t-40.5 -11t-38.5 -3q-112 0 -183 75t-71 231v401q0 78 -13 100.5t-54 30.5zM463 1020q73 161 137 321q15 6 79.5 16t82.5 7l6 -18l-252 -353z" />
<glyph unicode="&#xfb;" horiz-adv-x="1087" d="M59 825v49q6 0 148 11q120 17 145 22q-6 -63 -6 -295v-276q0 -126 50.5 -179t129.5 -53q120 0 222 99v479q0 79 -16 101t-70 30l-74 12v49q74 3 169 12.5t152 20.5v-682q0 -52 8.5 -76t27 -33t61.5 -12l55 -2v-53q-107 -14 -301 -74l-12 13v147l-24 -19 q-25 -20 -31 -24.5t-30.5 -22.5t-35.5 -24.5t-34 -21t-39 -20.5t-37 -14t-40.5 -11t-38.5 -3q-112 0 -183 75t-71 231v401q0 78 -13 100.5t-54 30.5zM307 1026q106 148 207 334h51q92 -176 203 -334l-51 -35q-82 76 -178 199q-103 -127 -183 -199z" />
<glyph unicode="&#xfc;" horiz-adv-x="1087" d="M59 825v49q6 0 148 11q120 17 145 22q-6 -63 -6 -295v-276q0 -126 50.5 -179t129.5 -53q120 0 222 99v479q0 79 -16 101t-70 30l-74 12v49q74 3 169 12.5t152 20.5v-682q0 -52 8.5 -76t27 -33t61.5 -12l55 -2v-53q-107 -14 -301 -74l-12 13v147l-24 -19 q-25 -20 -31 -24.5t-30.5 -22.5t-35.5 -24.5t-34 -21t-39 -20.5t-37 -14t-40.5 -11t-38.5 -3q-112 0 -183 75t-71 231v401q0 78 -13 100.5t-54 30.5zM258 1167q0 21 8 40t21 33t30.5 22t36.5 8h2q40 0 68.5 -30t28.5 -73q0 -40 -29 -69t-70 -29q-38 0 -67 29t-29 69z M604 1167q0 42 28.5 72.5t67.5 30.5h2q26 0 48.5 -13.5t35.5 -37.5t13 -52q0 -40 -29 -69t-70 -29q-38 0 -67 29t-29 69z" />
<glyph unicode="&#xfd;" horiz-adv-x="940" d="M4 840v53h414l2 -53q-71 -10 -86 -32.5t8 -80.5l184 -512q118 287 189 508q21 58 0.5 81.5t-107.5 35.5v53h371v-53q-80 -12 -109 -36t-71 -112q-24 -49 -54 -120.5t-91.5 -222t-112.5 -273.5q-176 -418 -211 -551q-12 -51 -66 -51q-43 0 -78.5 30.5t-35.5 67.5 q0 24 11.5 40t39.5 34q48 30 81.5 70.5t71.5 111.5q47 91 64 141q14 42 -4 90q-135 384 -234 627q-15 38 -25 58t-23.5 39.5t-30 29t-39.5 16.5t-58 11zM449 1020q73 161 137 321q15 6 79.5 16t82.5 7l6 -18l-252 -353z" />
<glyph unicode="&#xfe;" horiz-adv-x="1052" d="M10 -436q43 4 65 8.5t41.5 13.5t26.5 27.5t11 44.5t4 70v1454q0 40 -0.5 60.5t-7 40.5t-13 27.5t-26 15t-39 10t-58.5 5.5v52q162 16 305 65v-674q93 51 228 117q34 17 71 17q82 0 151 -34.5t113 -90t68.5 -123.5t24.5 -138q0 -112 -41 -209t-111.5 -166.5t-162.5 -116 t-197 -65.5q-83 5 -144 41v-284q0 -39 1.5 -62t9.5 -42.5t18.5 -29t33.5 -17t49 -11t71 -6.5v-53h-492v53zM319 164q32 -35 89 -59.5t112 -24.5t104.5 20.5t90.5 62.5t65.5 115t24.5 168q0 170 -80 260.5t-203 90.5q-90 0 -203 -80v-553z" />
<glyph unicode="&#xff;" horiz-adv-x="940" d="M4 840v53h414l2 -53q-71 -10 -86 -32.5t8 -80.5l184 -512q118 287 189 508q21 58 0.5 81.5t-107.5 35.5v53h371v-53q-80 -12 -109 -36t-71 -112q-24 -49 -54 -120.5t-91.5 -222t-112.5 -273.5q-176 -418 -211 -551q-12 -51 -66 -51q-43 0 -78.5 30.5t-35.5 67.5 q0 24 11.5 40t39.5 34q48 30 81.5 70.5t71.5 111.5q47 91 64 141q14 42 -4 90q-135 384 -234 627q-15 38 -25 58t-23.5 39.5t-30 29t-39.5 16.5t-58 11zM223 1167q0 42 28.5 72.5t67.5 30.5h3q40 0 68 -30t28 -73q0 -40 -29 -69t-70 -29q-38 0 -67 29t-29 69zM569 1167 q0 42 29 72.5t68 30.5h2q40 0 68 -30t28 -73q0 -40 -28.5 -69t-69.5 -29q-38 0 -67.5 29.5t-29.5 68.5z" />
<glyph unicode="&#x152;" horiz-adv-x="1992" d="M92 649q0 209 104 371t281 248t397 86q64 0 194 -11.5t192 -11.5h565q5 -123 18 -291l-61 -6q-27 122 -62 170q-22 31 -71 43.5t-160 12.5h-158q-45 0 -55 -9.5t-10 -52.5v-467h202q46 0 74.5 1.5t51.5 9.5t34 15t21 28.5t14 39t12 56.5h62v-389h-62q-6 32 -9.5 47.5 t-10 35.5t-12 28t-17 19t-23.5 14.5t-33 7.5t-44 4.5t-58 0.5h-202v-377q0 -51 3.5 -84.5t18.5 -56.5t27 -34.5t47.5 -17t60 -6.5t82.5 -1h21q118 0 171.5 13.5t88.5 51.5q47 51 98 193l62 -8q-29 -160 -72 -322h-627q-116 0 -209 -8q-165 -15 -207 -15q-147 0 -270 36.5 t-208.5 99.5t-145 149t-87.5 183.5t-28 203.5zM301 676q0 -99 18.5 -188t60.5 -170t105 -140t157.5 -94t211.5 -35q103 0 166 29q40 21 56 51.5t16 95.5v893q0 56 -8 82.5t-29 38.5q-71 43 -203 43q-258 0 -404.5 -163t-146.5 -443z" />
<glyph unicode="&#x153;" horiz-adv-x="1576" d="M76 426q0 97 29 180.5t75.5 139.5t105.5 96t117.5 58t112.5 18h2q112 0 202 -55t142 -150q59 89 154.5 147t191.5 58q130 0 223 -93.5t93 -214.5q0 -37 -9 -50t-36 -19q-29 -6 -204 -18t-347 -17q-1 -102 25.5 -180t73 -123t102 -67.5t118.5 -22.5q113 0 232 104l30 -45 q-78 -106 -170 -151.5t-159 -45.5q-108 0 -195 48t-137 131q-63 -87 -152.5 -133t-181.5 -46q-99 0 -183.5 39.5t-139 104t-85 144.5t-30.5 163zM268 494q0 -200 75.5 -324.5t201.5 -124.5q97 0 161 92.5t64 286.5q0 188 -71 306t-199 118h-2q-96 0 -163 -95.5t-67 -258.5z M940 586q40 1 113 1.5t135.5 1.5t118.5 3q22 0 31.5 10.5t9.5 36.5q0 88 -53 145.5t-138 57.5h-2q-74 0 -137.5 -68.5t-77.5 -187.5z" />
<glyph unicode="&#x178;" horiz-adv-x="1298" d="M31 1274v57h489v-57q-55 -7 -84 -15t-37 -22.5t-3.5 -29.5t20.5 -44q61 -114 278 -485q189 345 242 461q37 76 18 99.5t-137 35.5v57h453v-57q-73 -8 -110.5 -23t-64.5 -43.5t-69 -95.5q-146 -238 -258 -448q-22 -40 -28.5 -64.5t-6.5 -64.5v-279q0 -47 1.5 -74t10 -51 t20 -35t37.5 -20t55 -12.5t81 -6.5v-57h-580v57q51 3 79.5 6.5t54 12.5t36.5 20t19.5 35t10 51t1.5 74v272q0 30 -8 52t-35 71q-3 5 -97.5 170.5t-160.5 278.5q-45 77 -70.5 108t-59 46t-97.5 20zM377 1526q0 42 28.5 72t67.5 30h2q40 0 68 -29.5t28 -72.5 q0 -40 -28.5 -69.5t-69.5 -29.5q-38 0 -67 29.5t-29 69.5zM768 1526q0 42 28.5 72t67.5 30h2q40 0 68.5 -29.5t28.5 -72.5q0 -40 -29 -69.5t-70 -29.5q-38 0 -67 29.5t-29 69.5z" />
<glyph unicode="&#x2c6;" horiz-adv-x="819" d="M180 1026q106 148 207 334h51q92 -176 203 -334l-51 -35q-82 76 -178 199q-103 -127 -183 -199z" />
<glyph unicode="&#x2dc;" horiz-adv-x="819" d="M143 1069q31 97 75 140.5t89 43.5h2q41 0 119 -41q71 -38 109 -38q46 0 88 92l51 -29q-58 -184 -162 -184q-49 0 -135 49q-54 31 -92 31q-51 0 -90 -99z" />
<glyph unicode="&#x2000;" horiz-adv-x="875" />
<glyph unicode="&#x2001;" horiz-adv-x="1751" />
<glyph unicode="&#x2002;" horiz-adv-x="875" />
<glyph unicode="&#x2003;" horiz-adv-x="1751" />
<glyph unicode="&#x2004;" horiz-adv-x="583" />
<glyph unicode="&#x2005;" horiz-adv-x="437" />
<glyph unicode="&#x2006;" horiz-adv-x="291" />
<glyph unicode="&#x2007;" horiz-adv-x="291" />
<glyph unicode="&#x2008;" horiz-adv-x="218" />
<glyph unicode="&#x2009;" horiz-adv-x="350" />
<glyph unicode="&#x200a;" horiz-adv-x="97" />
<glyph unicode="&#x2010;" horiz-adv-x="729" d="M117 406l28 112h469l-28 -112h-469z" />
<glyph unicode="&#x2011;" horiz-adv-x="729" d="M117 406l28 112h469l-28 -112h-469z" />
<glyph unicode="&#x2012;" horiz-adv-x="729" d="M117 406l28 112h469l-28 -112h-469z" />
<glyph unicode="&#x2013;" horiz-adv-x="1064" d="M102 412v104h859v-104h-859z" />
<glyph unicode="&#x2014;" horiz-adv-x="1888" d="M102 412v104h1684v-104h-1684z" />
<glyph unicode="&#x2018;" horiz-adv-x="458" d="M86 1198q0 100 78 169t188 99l21 -55q-80 -33 -120 -72.5t-40 -99.5q0 -53 36 -86t91 -41q12 -2 20.5 -13t8.5 -30q0 -36 -28.5 -57t-59.5 -21h-2q-72 0 -132.5 58t-60.5 149z" />
<glyph unicode="&#x2019;" horiz-adv-x="456" d="M86 1034q79 33 118.5 72.5t39.5 99.5q0 51 -36 84t-91 43q-27 4 -27 41q0 38 27.5 59t58.5 21h2q70 0 130.5 -58t60.5 -149q0 -69 -40.5 -125.5t-97.5 -89.5t-125 -51z" />
<glyph unicode="&#x201a;" horiz-adv-x="489" d="M100 -172q83 36 124.5 75.5t41.5 98.5q0 53 -38.5 87t-96.5 42q-10 2 -18.5 13t-8.5 30q0 38 29 59t60 21h2q74 0 137 -59.5t63 -151.5q0 -105 -80.5 -175.5t-193.5 -98.5z" />
<glyph unicode="&#x201c;" horiz-adv-x="815" d="M86 1200q0 99 78 167.5t188 98.5l21 -53q-81 -35 -120.5 -74t-39.5 -98q0 -53 36 -86t91 -43q10 0 19.5 -11t9.5 -30q0 -36 -28.5 -57t-59.5 -21h-2q-72 0 -132.5 58t-60.5 149zM444 1200q0 99 78.5 167.5t188.5 98.5l20 -53q-81 -35 -120.5 -74t-39.5 -98 q0 -53 36.5 -86t92.5 -43q10 0 18.5 -11t8.5 -30q0 -36 -28.5 -57t-59.5 -21h-2q-72 0 -132.5 58t-60.5 149z" />
<glyph unicode="&#x201d;" horiz-adv-x="821" d="M84 1032q81 35 120.5 74.5t39.5 97.5q0 53 -36.5 87t-92.5 42q-10 2 -18.5 13t-8.5 28q0 38 28.5 59t59.5 21h2q71 0 132 -58.5t61 -150.5q0 -101 -79 -170.5t-188 -97.5zM449 1032q80 35 119.5 74.5t39.5 97.5q0 53 -37 87t-92 42q-10 2 -18 13t-8 28q0 37 28 58.5 t58 21.5h2q72 0 133 -58.5t61 -150.5q0 -52 -23.5 -98t-62.5 -78.5t-85 -55.5t-97 -36z" />
<glyph unicode="&#x201e;" horiz-adv-x="878" d="M100 -172q83 36 124.5 75.5t41.5 98.5q0 52 -39 86.5t-96 44.5q-27 4 -27 41q0 38 29 60t60 22h2q74 0 137 -59.5t63 -153.5q0 -71 -42 -129.5t-101 -92t-131 -52.5zM479 -172q83 35 124.5 75t41.5 99q0 52 -39 86.5t-96 44.5q-10 2 -18.5 13t-8.5 28q0 38 28.5 60 t59.5 22h2q73 0 137 -60t64 -153q0 -71 -42.5 -129.5t-101.5 -92t-130 -52.5z" />
<glyph unicode="&#x2022;" horiz-adv-x="798" d="M133 446q0 113 78 193t190 80h2q108 0 185.5 -80.5t77.5 -192.5q0 -115 -78 -194.5t-187 -79.5q-113 0 -190.5 79.5t-77.5 194.5z" />
<glyph unicode="&#x2026;" horiz-adv-x="1986" d="M215 94q0 50 32.5 83.5t82.5 33.5q49 0 81.5 -33.5t32.5 -83.5q0 -53 -32 -86t-82 -33h-2q-50 0 -81.5 32.5t-31.5 86.5zM881 94q0 50 32 83.5t82 33.5q49 0 82 -33.5t33 -83.5q0 -53 -32.5 -86t-82.5 -33h-2q-50 0 -81 32.5t-31 86.5zM1538 94q0 50 33 83.5t82 33.5 q50 0 82 -33.5t32 -83.5q0 -54 -31.5 -86.5t-82.5 -32.5h-2q-48 0 -80.5 33t-32.5 86z" />
<glyph unicode="&#x202f;" horiz-adv-x="350" />
<glyph unicode="&#x2039;" horiz-adv-x="571" d="M100 453q162 167 324 376l47 -30l-192 -346l192 -342l-47 -33q-189 244 -324 375z" />
<glyph unicode="&#x203a;" horiz-adv-x="571" d="M100 109l193 344l-193 346l47 30q192 -244 324 -376q-135 -131 -324 -375z" />
<glyph unicode="&#x205f;" horiz-adv-x="437" />
<glyph unicode="&#x20ac;" d="M14 516l23 74h92q-3 61 6 131h-82l23 74h69q38 235 177 371.5t337 136.5q39 0 79.5 -6.5t64.5 -13.5t55 -17.5t37 -12.5q12 -81 31 -243l-60 -15q-31 126 -80.5 182t-150.5 56q-118 0 -199.5 -115.5t-109.5 -322.5h553l-23 -74h-537q-8 -66 -2 -131h508l-24 -74h-477 q52 -471 301 -471q84 0 140 55.5t116 180.5l57 -21q-11 -54 -36.5 -124t-47.5 -111q-40 -16 -111.5 -33t-132.5 -17q-111 0 -198 42t-143.5 117t-89.5 170.5t-44 211.5h-121z" />
<glyph unicode="&#x2122;" horiz-adv-x="940" d="M53 1202q1 22 3.5 62t2.5 53h25q3 -10 10 -10q4 -2 17 -2h219q16 0 26 12h25q0 -21 4 -115h-31q-1 3 -4 13t-3.5 12.5t-3.5 10t-4 9t-4.5 7t-6.5 6.5t-7.5 4t-10 3.5t-12.5 1.5t-15 1h-31v-199q0 -42 8 -51t47 -10v-33h-176v33q38 1 45.5 10t7.5 51v199h-26 q-39 0 -54 -19q-12 -8 -22 -49h-29zM410 977v33q23 0 32.5 6t12.5 20q8 37 12 88l6 80q4 41 -4.5 51.5t-46.5 12.5v37h131l100 -207l103 207h129v-37q-32 -1 -39.5 -10t-7.5 -44l2 -139q0 -44 7 -53.5t40 -11.5v-33h-162v33q34 1 40.5 9.5t6.5 47.5l2 184h-4l-121 -268h-24 l-109 252h-2l-8 -117q-2 -41 -2 -80q2 -15 11.5 -21t37.5 -7v-33h-143z" />
<glyph unicode="&#xe000;" horiz-adv-x="890" d="M0 0v891h891v-891h-891z" />
</font>
</defs>
</svg>
